<svg width="24" height="24" viewBox="0 0 24 24" fill="none" xmlns="http://www.w3.org/2000/svg">
<path d="M23 12C23 18.0751 18.0751 23 12 23C5.92487 23 1 18.0751 1 12C1 5.92487 5.92487 1 12 1C18.0751 1 23 5.92487 23 12Z" fill="#00A7D6" fill-opacity="0.2"/>
<path d="M16.0442 6.79999C16.3507 6.79999 16.6446 6.92173 16.8613 7.13844C17.0781 7.35515 17.1998 7.64907 17.1998 7.95554V16.0444C17.1998 16.3509 17.0781 16.6448 16.8613 16.8615C16.6446 17.0782 16.3507 17.2 16.0442 17.2H7.95536C7.64889 17.2 7.35497 17.0782 7.13826 16.8615C6.92155 16.6448 6.7998 16.3509 6.7998 16.0444V7.95554C6.7998 7.64907 6.92155 7.35515 7.13826 7.13844C7.35497 6.92173 7.64889 6.79999 7.95536 6.79999H16.0442ZM16.0442 10.2667H7.95536V16.0444H16.0442V10.2667ZM9.97758 13.7333C10.1308 13.7333 10.2778 13.7942 10.3861 13.9025C10.4945 14.0109 10.5554 14.1579 10.5554 14.3111C10.5554 14.4643 10.4945 14.6113 10.3861 14.7196C10.2778 14.828 10.1308 14.8889 9.97758 14.8889H9.3998C9.24657 14.8889 9.09961 14.828 8.99125 14.7196C8.8829 14.6113 8.82203 14.4643 8.82203 14.3111C8.82203 14.1579 8.8829 14.0109 8.99125 13.9025C9.09961 13.7942 9.24657 13.7333 9.3998 13.7333H9.97758ZM12.2887 13.7333C12.436 13.7335 12.5776 13.7899 12.6847 13.891C12.7918 13.9921 12.8562 14.1302 12.8648 14.2772C12.8735 14.4242 12.8256 14.569 12.7311 14.6819C12.6366 14.7949 12.5025 14.8674 12.3563 14.8848L12.2887 14.8889H11.7109C11.5637 14.8887 11.422 14.8323 11.3149 14.7312C11.2078 14.6301 11.1434 14.492 11.1348 14.345C11.1261 14.1979 11.174 14.0532 11.2685 13.9403C11.363 13.8273 11.4971 13.7548 11.6433 13.7374L11.7109 13.7333H12.2887ZM9.97758 11.4222C10.1248 11.4224 10.2665 11.4788 10.3736 11.5799C10.4807 11.6809 10.5451 11.8191 10.5537 11.9661C10.5624 12.1131 10.5145 12.2579 10.42 12.3708C10.3255 12.4838 10.1914 12.5563 10.0452 12.5737L9.97758 12.5778H9.3998C9.25254 12.5776 9.1109 12.5212 9.00381 12.4201C8.89673 12.319 8.83229 12.1809 8.82366 12.0338C8.81503 11.8868 8.86286 11.7421 8.95738 11.6292C9.0519 11.5162 9.18597 11.4436 9.3322 11.4263L9.3998 11.4222H9.97758ZM12.2887 11.4222C12.4419 11.4222 12.5889 11.4831 12.6972 11.5914C12.8056 11.6998 12.8665 11.8468 12.8665 12C12.8665 12.1532 12.8056 12.3002 12.6972 12.4085C12.5889 12.5169 12.4419 12.5778 12.2887 12.5778H11.7109C11.5577 12.5778 11.4107 12.5169 11.3024 12.4085C11.194 12.3002 11.1331 12.1532 11.1331 12C11.1331 11.8468 11.194 11.6998 11.3024 11.5914C11.4107 11.4831 11.5577 11.4222 11.7109 11.4222H12.2887ZM14.5998 11.4222C14.7471 11.4224 14.8887 11.4788 14.9958 11.5799C15.1029 11.6809 15.1673 11.8191 15.1759 11.9661C15.1846 12.1131 15.1367 12.2579 15.0422 12.3708C14.9477 12.4838 14.8136 12.5563 14.6674 12.5737L14.5998 12.5778H14.022C13.8748 12.5776 13.7331 12.5212 13.626 12.4201C13.519 12.319 13.4545 12.1809 13.4459 12.0338C13.4373 11.8868 13.4851 11.7421 13.5796 11.6292C13.6741 11.5162 13.8082 11.4436 13.9544 11.4263L14.022 11.4222H14.5998ZM16.0442 7.95554H7.95536V9.1111H16.0442V7.95554Z" fill="#00A7D6"/>
</svg>
