<svg width="24" height="24" viewBox="0 0 24 24" fill="none" xmlns="http://www.w3.org/2000/svg">
<path d="M23 12C23 18.0751 18.0751 23 12 23C5.92487 23 1 18.0751 1 12C1 5.92487 5.92487 1 12 1C18.0751 1 23 5.92487 23 12Z" fill="#FFAB00" fill-opacity="0.2"/>
<path opacity="0.48" d="M10.3247 16.9594L10.259 17.0676C10.259 17.0676 7.33789 17.218 7.33789 15.2849C7.33789 13.3088 9.89639 12.4433 10.6886 12.1704C10.8616 12.1108 11.1702 12.024 11.5467 11.9039C11.6029 12.0231 11.6577 12.143 11.7111 12.2634C10.7274 12.6156 8.62662 13.4943 8.62662 15.2849C8.62662 16.3566 9.5245 16.7878 10.3247 16.9594V16.9594ZM13.2757 16.8065L13.6812 14.9699C13.7848 14.4516 14.0395 13.9755 14.4133 13.6016L15.1739 12.8411C14.849 12.8116 14.514 12.9211 14.2653 13.1697L12.9528 14.4823C12.579 14.8561 12.3242 15.3322 12.2206 15.8506L11.9773 17.0676C11.9773 17.0676 13.2487 16.8128 13.2757 16.8065V16.8065Z" fill="#FFAB00"/>
<path d="M17.0378 12.0067C16.7416 11.7106 16.3479 11.5475 15.9291 11.5475C15.5102 11.5475 15.1165 11.7106 14.8203 12.0067L12.6486 14.1784C12.2134 14.6137 11.9196 15.1627 11.799 15.7663L11.5557 16.9833C11.5275 17.1242 11.5716 17.2697 11.6732 17.3713C11.7546 17.4527 11.8642 17.4971 11.977 17.4971C12.005 17.4971 12.0332 17.4944 12.0612 17.4888L13.2782 17.2455C13.8818 17.1249 14.4308 16.8311 14.8661 16.3959L17.0378 14.2242C17.3339 13.928 17.497 13.5343 17.497 13.1154C17.497 12.6966 17.3339 12.3029 17.0378 12.0067ZM16.4303 13.6166L14.2585 15.7883C13.9437 16.1032 13.5465 16.3158 13.1099 16.403L12.5245 16.52L12.6415 15.9346C12.7288 15.498 12.9413 15.1008 13.2562 14.786L15.4279 12.6142C15.5617 12.4804 15.7397 12.4066 15.9291 12.4066C16.1184 12.4066 16.2964 12.4804 16.4303 12.6143C16.5641 12.7481 16.6379 12.9261 16.6379 13.1154C16.6379 13.3048 16.5642 13.4828 16.4303 13.6166Z" fill="#FFAB00"/>
<path d="M11.1363 12.4775C11.0109 12.5169 10.8838 12.5575 10.8095 12.5831C10.0571 12.8421 7.76736 13.6306 7.76736 15.2848C7.76736 15.6046 7.87078 15.8586 8.08355 16.0613C8.6425 16.5936 9.82813 16.6585 10.2374 16.6385C10.4746 16.6267 10.6758 16.8094 10.6876 17.0461C10.6995 17.2828 10.5177 17.4844 10.281 17.4966C10.2685 17.4972 10.2085 17.5 10.113 17.5C9.63727 17.5 8.27808 17.431 7.49303 16.6853C7.10499 16.3167 6.9082 15.8455 6.9082 15.2848C6.9082 14.7427 7.07039 14.2323 7.39021 13.7678C7.6456 13.3969 8.00462 13.0529 8.45739 12.7453C9.23613 12.2162 10.1287 11.9088 10.5486 11.7643C10.6338 11.7349 10.7472 11.6992 10.8785 11.6579C11.4652 11.4735 12.447 11.1647 13.2892 10.6958C14.2144 10.1805 14.6835 9.63339 14.6835 9.06949C14.6835 8.42594 14.3786 8.0195 14.1228 7.79186C13.8275 7.52898 13.4237 7.35915 13.0941 7.35915C12.8569 7.35915 12.6645 7.16683 12.6645 6.92958C12.6645 6.69232 12.8569 6.5 13.0941 6.5C13.6385 6.5 14.2366 6.74299 14.694 7.15001C15.2413 7.63707 15.5427 8.31874 15.5427 9.06947C15.5427 11.0918 12.4549 12.0628 11.1363 12.4775Z" fill="#7A4100"/>
<path d="M8.86268 9.16337C7.95801 9.16337 7.40512 8.77922 7.10061 8.45695C6.71893 8.05298 6.5 7.49627 6.5 6.92958C6.5 6.69232 6.69232 6.5 6.92958 6.5C7.16683 6.5 7.35916 6.69232 7.35916 6.92958C7.35916 7.59164 7.82965 8.30422 8.86268 8.30422C9.60488 8.30422 10.0734 7.93573 10.616 7.50905C10.7842 7.37681 10.958 7.24007 11.1446 7.11159C11.34 6.97704 11.6075 7.02632 11.742 7.22171C11.8766 7.4171 11.8273 7.68458 11.6319 7.81914C11.4677 7.93223 11.312 8.0547 11.1471 8.18439C10.5636 8.64326 9.90225 9.16337 8.86268 9.16337Z" fill="#7A4100"/>
</svg>
