<svg width="24" height="24" viewBox="0 0 24 24" fill="none" xmlns="http://www.w3.org/2000/svg">
<circle cx="12" cy="12" r="11" fill="#8E33FF" fill-opacity="0.2"/>
<g opacity="0.32">
<path d="M7.30443 17.4921C6.88632 17.4815 6.56961 17.23 6.53543 16.8132C6.51496 16.5635 6.5 16.2203 6.5 15.7506C6.5 15.2809 6.51496 14.9377 6.53543 14.688C6.56961 14.2712 6.88632 14.0197 7.30443 14.009C7.48736 14.0044 7.71608 14.0012 7.99945 14.0012C8.28282 14.0012 8.51154 14.0044 8.69447 14.009C9.11259 14.0197 9.42928 14.2712 9.46346 14.688C9.48393 14.9377 9.4989 15.2809 9.4989 15.7506C9.4989 16.2203 9.48393 16.5635 9.46346 16.8132C9.42928 17.23 9.11259 17.4815 8.69447 17.4921C8.51154 17.4968 8.28282 17.5 7.99945 17.5C7.71608 17.5 7.48736 17.4968 7.30443 17.4921Z" fill="url(#paint0_linear_824_53392)"/>
<path d="M15.4195 17.4896C14.9324 17.4704 14.5908 17.1279 14.5592 16.6414C14.5265 16.137 14.4971 15.3176 14.4971 14.0012C14.4971 12.6848 14.5265 11.8654 14.5592 11.361C14.5908 10.8745 14.9324 10.532 15.4195 10.5128C15.5802 10.5065 15.7711 10.5024 15.9965 10.5024C16.222 10.5024 16.4128 10.5065 16.5736 10.5128C17.0607 10.532 17.4023 10.8745 17.4338 11.361C17.4666 11.8654 17.496 12.6848 17.496 14.0012C17.496 15.3176 17.4666 16.137 17.4338 16.6414C17.4023 17.1279 17.0607 17.4704 16.5736 17.4896C16.4128 17.4959 16.222 17.5 15.9965 17.5C15.7711 17.5 15.5802 17.4959 15.4195 17.4896Z" fill="url(#paint1_linear_824_53392)"/>
<path d="M11.3865 17.4915C10.9197 17.4773 10.5795 17.171 10.546 16.7052C10.5196 16.3391 10.4985 15.7974 10.4985 15.0008C10.4985 14.2043 10.5196 13.6626 10.546 13.2965C10.5795 12.8307 10.9197 12.5244 11.3865 12.5102C11.5542 12.5051 11.7562 12.5017 11.998 12.5017C12.2397 12.5017 12.4417 12.5051 12.6095 12.5102C13.0762 12.5244 13.4165 12.8307 13.45 13.2965C13.4763 13.6626 13.4974 14.2043 13.4974 15.0008C13.4974 15.7974 13.4763 16.3391 13.45 16.7052C13.4165 17.171 13.0762 17.4773 12.6095 17.4915C12.4417 17.4966 12.2397 17.5 11.998 17.5C11.7562 17.5 11.5542 17.4966 11.3865 17.4915Z" fill="url(#paint2_linear_824_53392)"/>
</g>
<path d="M16.4766 9.02831C16.4518 9.52211 15.9821 9.70765 15.6178 9.37339C15.4521 9.22139 15.2538 9.03428 15.0179 8.80452C14.485 9.28947 13.6585 10.0456 12.6732 10.9606C12.4144 11.2008 11.9941 11.174 11.7681 10.9027L11.7679 10.9025C11.3242 10.3717 10.8773 9.84307 10.4148 9.32861C9.87435 9.72541 8.90426 10.4816 7.94155 11.4443C7.69756 11.6883 7.30198 11.6883 7.05799 11.4443C6.814 11.2003 6.814 10.8048 7.05799 10.5608C8.00245 9.6163 9.03871 8.73037 10.1501 7.98495L10.1518 7.98379C10.1522 7.98351 10.1521 7.98359 10.1521 7.98359C10.3999 7.81839 10.7299 7.85106 10.9405 8.06165C11.4243 8.54546 11.8614 9.07762 12.3039 9.59913C13.0562 8.90338 13.6899 8.32369 14.1343 7.9191C13.9326 7.71101 13.7656 7.53357 13.6275 7.38308C13.2931 7.01871 13.4788 6.54888 13.9727 6.52402C14.6029 6.49231 15.2497 6.47364 15.8722 6.59003C16.1526 6.64244 16.3582 6.8481 16.4106 7.12842C16.5269 7.75107 16.5083 8.39798 16.4766 9.02831Z" fill="url(#paint3_linear_824_53392)"/>
<defs>
<linearGradient id="paint0_linear_824_53392" x1="6.5" y1="10.5024" x2="12.839" y2="20.4636" gradientUnits="userSpaceOnUse">
<stop stop-color="#C684FF"/>
<stop offset="1" stop-color="#8E33FF"/>
</linearGradient>
<linearGradient id="paint1_linear_824_53392" x1="6.5" y1="10.5024" x2="12.839" y2="20.4636" gradientUnits="userSpaceOnUse">
<stop stop-color="#C684FF"/>
<stop offset="1" stop-color="#8E33FF"/>
</linearGradient>
<linearGradient id="paint2_linear_824_53392" x1="6.5" y1="10.5024" x2="12.839" y2="20.4636" gradientUnits="userSpaceOnUse">
<stop stop-color="#C684FF"/>
<stop offset="1" stop-color="#8E33FF"/>
</linearGradient>
<linearGradient id="paint3_linear_824_53392" x1="6.875" y1="6.5" x2="11.13" y2="14.4881" gradientUnits="userSpaceOnUse">
<stop stop-color="#C684FF"/>
<stop offset="1" stop-color="#8E33FF"/>
</linearGradient>
</defs>
</svg>
