<svg width="24" height="24" viewBox="0 0 24 24" fill="none" xmlns="http://www.w3.org/2000/svg">
<circle cx="12" cy="12" r="11" fill="#00A7D6" fill-opacity="0.2"/>
<path d="M16.5 16.5L14.3285 14.3285M14.3285 14.3285C14.7 13.9571 14.9946 13.5161 15.1956 13.0308C15.3966 12.5455 15.5001 12.0254 15.5001 11.5001C15.5001 10.9748 15.3967 10.4546 15.1956 9.9693C14.9946 9.48399 14.7 9.04303 14.3285 8.67159C13.9571 8.30015 13.5161 8.00551 13.0308 7.80449C12.5455 7.60346 12.0254 7.5 11.5001 7.5C10.9748 7.5 10.4546 7.60346 9.9693 7.80449C9.48399 8.00551 9.04303 8.30015 8.67159 8.67159C7.92143 9.42175 7.5 10.4392 7.5 11.5001C7.5 12.5609 7.92143 13.5784 8.67159 14.3285C9.42175 15.0787 10.4392 15.5001 11.5001 15.5001C12.5609 15.5001 13.5784 15.0787 14.3285 14.3285Z" stroke="#00A7D6" stroke-width="1.24999" stroke-linecap="round" stroke-linejoin="round"/>
</svg>
