<svg width="24" height="24" viewBox="0 0 24 24" fill="none" xmlns="http://www.w3.org/2000/svg">
<circle opacity="0.2" cx="12" cy="12" r="11" fill="#B76E00"/>
<path opacity="0.32" d="M16.1852 10.1402V10.5767C16.1852 11.1006 16.334 11.6127 16.6142 12.0486L17.3012 13.1169C17.928 14.0928 17.4494 15.4191 16.3588 15.7272C13.509 16.5345 10.4911 16.5345 7.64139 15.7272C6.55078 15.4191 6.07213 14.0928 6.69897 13.1169L7.38594 12.0486C7.66716 11.6092 7.8163 11.0983 7.81561 10.5767V10.1402C7.81561 7.74315 9.68929 5.79999 12.0001 5.79999C14.3109 5.79999 16.1852 7.74315 16.1852 10.1402Z" fill="#B76E00"/>
<path d="M12.4652 8.28008C12.4652 8.15675 12.4162 8.03847 12.329 7.95126C12.2418 7.86406 12.1235 7.81506 12.0002 7.81506C11.8769 7.81506 11.7586 7.86406 11.6714 7.95126C11.5842 8.03847 11.5352 8.15675 11.5352 8.28008V10.7602C11.5352 10.8835 11.5842 11.0018 11.6714 11.089C11.7586 11.1762 11.8769 11.2252 12.0002 11.2252C12.1235 11.2252 12.2418 11.1762 12.329 11.089C12.4162 11.0018 12.4652 10.8835 12.4652 10.7602V8.28008ZM9.05078 16.0583C9.25337 16.6809 9.64778 17.2234 10.1775 17.6081C10.7073 17.9928 11.3452 18.2 11.9999 18.2C12.6546 18.2 13.2925 17.9928 13.8222 17.6081C14.352 17.2234 14.7464 16.6809 14.949 16.0583C12.999 16.4241 11.0013 16.4241 9.05078 16.0583Z" fill="#B76E00"/>
</svg>
