<svg width="24" height="24" viewBox="0 0 24 24" fill="none" xmlns="http://www.w3.org/2000/svg">
<path d="M23 12C23 18.0751 18.0751 23 12 23C5.92487 23 1 18.0751 1 12C1 5.92487 5.92487 1 12 1C18.0751 1 23 5.92487 23 12Z" fill="#FFAB00" fill-opacity="0.2"/>
<path fill-rule="evenodd" clip-rule="evenodd" d="M6.5 12.3V11.7C6.5 9.72781 6.5 8.74141 7.0448 8.07721C7.14446 7.9558 7.25579 7.84447 7.3772 7.74481C8.042 7.20001 9.0272 7.20001 11 7.20001C12.9722 7.20001 13.9586 7.20001 14.6228 7.74481C14.7442 7.84447 14.8555 7.9558 14.9552 8.07721C15.3764 8.59021 15.4718 9.29581 15.4934 10.5L15.8954 10.302C17.0624 9.71881 17.6462 9.42661 18.0734 9.69061C18.5 9.95461 18.5 10.6074 18.5 11.9124V12.0876C18.5 13.3926 18.5 14.0454 18.0734 14.3094C17.6462 14.5734 17.0624 14.2812 15.8954 13.6974L15.4934 13.5C15.4718 14.7042 15.3764 15.4098 14.9552 15.9228C14.8555 16.0442 14.7442 16.1556 14.6228 16.2552C13.958 16.8 12.9728 16.8 11 16.8C9.0278 16.8 8.0414 16.8 7.3772 16.2552C7.25579 16.1556 7.14446 16.0442 7.0448 15.9228C6.5 15.258 6.5 14.2728 6.5 12.3ZM13.436 10.536C13.5234 10.4533 13.5933 10.354 13.6416 10.2438C13.6899 10.1336 13.7157 10.0149 13.7173 9.89461C13.719 9.77433 13.6965 9.65494 13.6512 9.54349C13.6059 9.43204 13.5387 9.33081 13.4536 9.24577C13.3686 9.16072 13.2673 9.0936 13.1558 9.04837C13.0444 9.00313 12.925 8.9807 12.8047 8.9824C12.6844 8.9841 12.5657 9.0099 12.4555 9.05827C12.3454 9.10664 12.246 9.1766 12.1634 9.26401C11.9995 9.43383 11.9089 9.66122 11.9111 9.89719C11.9132 10.1332 12.008 10.3589 12.175 10.5256C12.3419 10.6924 12.5677 10.787 12.8037 10.7889C13.0396 10.7909 13.2663 10.7 13.436 10.536Z" fill="#FFAB00"/>
</svg>
