<svg width="120" height="120" viewBox="0 0 120 120" fill="none" xmlns="http://www.w3.org/2000/svg">
<g opacity="0.48">
<path opacity="0.48" fill-rule="evenodd" clip-rule="evenodd" d="M21.1902 86.066L22.6459 87.5218L24.1062 86.062L24.7302 86.6858L23.2696 88.1454L24.7262 89.6011L24.1005 90.2266L22.6438 88.7711L21.1845 90.2306L20.5605 89.6068L22.0201 88.1475L20.5645 86.6915L21.1902 86.066Z" fill="#919EAB"/>
<path opacity="0.48" fill-rule="evenodd" clip-rule="evenodd" d="M87.2381 12.7676L88.6937 14.2234L90.1541 12.7635L90.7781 13.3874L89.3175 14.8469L90.7741 16.3026L90.1483 16.9282L88.6916 15.4726L87.2323 16.9322L86.6083 16.3084L88.0679 14.8491L86.6124 13.3931L87.2381 12.7676Z" fill="#919EAB"/>
<path opacity="0.72" d="M61.4784 104.835C61.7522 104.562 62.1233 104.409 62.5101 104.409C62.897 104.409 63.268 104.562 63.5419 104.835L64.5809 105.874C64.717 106.009 64.8258 106.171 64.8995 106.348C64.9734 106.526 65.0115 106.716 65.0115 106.909C65.0115 107.101 64.9734 107.291 64.8995 107.469C64.8258 107.646 64.7178 107.807 64.5817 107.943L63.5419 108.982C63.268 109.255 62.897 109.409 62.5101 109.409C62.1233 109.409 61.7522 109.255 61.4784 108.982L60.4393 107.943C60.3032 107.808 60.1945 107.646 60.1207 107.469C60.0468 107.291 60.0088 107.101 60.0088 106.909C60.0088 106.716 60.0468 106.526 60.1207 106.348C60.1944 106.171 60.3024 106.01 60.4385 105.875L61.4784 104.835Z" fill="#919EAB"/>
<path fill-rule="evenodd" clip-rule="evenodd" d="M96.6978 39.0406C96.6977 39.0407 96.6979 39.0406 96.6978 39.0406L95.6585 40.0797L95.2196 39.6407L95.6571 40.081C95.6368 40.1012 95.6207 40.1252 95.6097 40.1517C95.5987 40.1781 95.593 40.2064 95.593 40.235C95.593 40.2637 95.5987 40.292 95.6097 40.3184C95.6207 40.3449 95.6368 40.3689 95.6571 40.3891L95.6585 40.3904L96.6978 41.4295C96.6979 41.4295 96.6977 41.4294 96.6978 41.4295C96.739 41.4704 96.7948 41.4936 96.8529 41.4936C96.911 41.4936 96.9667 41.4706 97.0078 41.4297C97.0079 41.4296 97.0077 41.4298 97.0078 41.4297L98.0487 40.3891C98.069 40.3689 98.0851 40.3449 98.0961 40.3184C98.1072 40.2919 98.1128 40.2636 98.1128 40.235C98.1128 40.2065 98.1072 40.1782 98.0961 40.1517C98.0851 40.1252 98.069 40.1012 98.0487 40.081L98.0473 40.0797L97.008 39.0406C97.008 39.0406 97.0081 39.0407 97.008 39.0406C96.9669 38.9997 96.911 38.9765 96.8529 38.9765C96.7948 38.9765 96.739 38.9997 96.6978 39.0406ZM94.7813 39.2011L95.8211 38.1616C96.095 37.8885 96.466 37.735 96.8529 37.735C97.2397 37.735 97.6108 37.8885 97.8847 38.1616L97.8852 38.1621L98.9237 39.2004C98.924 39.2006 98.9242 39.2008 98.9244 39.2011C99.0606 39.3365 99.1686 39.4975 99.2423 39.6747C99.3162 39.8522 99.3543 40.0426 99.3543 40.235C99.3543 40.4274 99.3162 40.6179 99.2423 40.7954C99.1686 40.9726 99.0606 41.1335 98.9245 41.269C98.9242 41.2692 98.924 41.2695 98.9237 41.2697L97.8847 42.3085C97.6108 42.5816 97.2397 42.735 96.8529 42.735C96.466 42.735 96.095 42.5816 95.8211 42.3085L94.7821 41.2697C94.7818 41.2695 94.7816 41.2692 94.7813 41.2689C94.6452 41.1335 94.5372 40.9726 94.4635 40.7954C94.3896 40.6178 94.3516 40.4273 94.3516 40.235C94.3516 40.0427 94.3896 39.8523 94.4635 39.6747C94.5372 39.4975 94.6452 39.3366 94.7813 39.2011Z" fill="#919EAB"/>
<path opacity="0.48" fill-rule="evenodd" clip-rule="evenodd" d="M104.552 66.3174C104.701 66.2789 104.858 66.278 105.008 66.3153C105.173 66.3561 105.322 66.4409 105.442 66.5601C105.561 66.6797 105.646 66.8295 105.687 66.9935C105.724 67.1437 105.723 67.3005 105.685 67.4497L105.109 70.5411C105.062 70.7839 104.909 71.1334 104.522 71.2523C104.135 71.3714 103.812 71.1678 103.638 70.9932L101.009 68.3653C100.831 68.1888 100.628 67.8651 100.748 67.4773C100.868 67.0899 101.219 66.9375 101.464 66.8922C101.465 66.8921 101.465 66.8921 101.465 66.892L104.552 66.3174ZM104.448 67.5539L102.291 67.9554L104.046 69.7099L104.448 67.5539Z" fill="#919EAB"/>
<path opacity="0.8" fill-rule="evenodd" clip-rule="evenodd" d="M102.46 94.266C102.609 94.2275 102.766 94.2266 102.916 94.2639C103.08 94.3047 103.23 94.3895 103.349 94.5088C103.469 94.6283 103.554 94.7781 103.594 94.9421C103.632 95.0923 103.631 95.2491 103.592 95.3983L103.016 98.4897C102.97 98.7325 102.817 99.082 102.43 99.201C102.042 99.32 101.72 99.1164 101.545 98.9419L98.9167 96.3139C98.7386 96.1374 98.5356 95.8137 98.6558 95.426C98.776 95.0385 99.1263 94.8861 99.3721 94.8408C99.3724 94.8408 99.3727 94.8407 99.373 94.8407L102.46 94.266ZM102.356 95.5026L100.199 95.904L101.954 97.6586L102.356 95.5026Z" fill="#637381"/>
<path opacity="0.8" fill-rule="evenodd" clip-rule="evenodd" d="M12.5004 72.4729C12.3186 72.4729 12.1408 72.5269 11.9896 72.6279C11.8383 72.729 11.7205 72.8724 11.651 73.0402C11.5814 73.2081 11.5632 73.393 11.5987 73.5712C11.6341 73.7494 11.7217 73.9132 11.8502 74.0417C11.9787 74.1702 12.1425 74.2577 12.321 74.2932C12.4996 74.3287 12.6845 74.3105 12.8523 74.241C13.0203 74.1715 13.1639 74.0536 13.265 73.9024C13.366 73.7513 13.4199 73.5736 13.4199 73.3919C13.4199 73.1482 13.323 72.9145 13.1506 72.7421C12.9783 72.5698 12.7444 72.4729 12.5004 72.4729ZM11.1113 71.3132C11.5225 71.0386 12.0059 70.8919 12.5004 70.8919C13.1635 70.8919 13.7995 71.1552 14.2684 71.624C14.7374 72.0929 15.0009 72.7288 15.0009 73.3919C15.0009 73.8864 14.8542 74.3698 14.5794 74.7809C14.3047 75.1919 13.9142 75.5125 13.4572 75.7017C13.0002 75.891 12.4975 75.9403 12.0127 75.8438C11.5278 75.7474 11.0822 75.5095 10.7324 75.1598C10.3827 74.8102 10.1446 74.3647 10.0481 73.8797C9.95156 73.3947 10.0011 72.8919 10.1904 72.4351C10.3797 71.9782 10.7002 71.5878 11.1113 71.3132Z" fill="#637381"/>
<path opacity="0.8" fill-rule="evenodd" clip-rule="evenodd" d="M54.5424 18.4018C54.3606 18.4018 54.1828 18.4557 54.0316 18.5567C53.8803 18.6578 53.7625 18.8013 53.693 18.9691C53.6234 19.137 53.6052 19.3218 53.6407 19.5C53.6761 19.6783 53.7637 19.842 53.8922 19.9705C54.0207 20.099 54.1845 20.1865 54.363 20.222C54.5416 20.2575 54.7265 20.2393 54.8943 20.1698C55.0623 20.1003 55.2059 19.9824 55.307 19.8312C55.408 19.6801 55.4619 19.5025 55.4619 19.3207C55.4619 19.0771 55.365 18.8433 55.1926 18.671C55.0203 18.4986 54.7864 18.4018 54.5424 18.4018ZM53.1533 17.2421C53.5645 16.9674 54.0479 16.8207 54.5424 16.8207C55.2055 16.8207 55.8415 17.084 56.3104 17.5529C56.7794 18.0217 57.0429 18.6577 57.0429 19.3207C57.0429 19.8152 56.8962 20.2986 56.6214 20.7097C56.3467 21.1208 55.9562 21.4413 55.4992 21.6306C55.0422 21.8198 54.5395 21.8691 54.0547 21.7727C53.5698 21.6763 53.1242 21.4383 52.7744 21.0886C52.4247 20.739 52.1865 20.2935 52.09 19.8086C51.9936 19.3236 52.0431 18.8208 52.2324 18.3639C52.4217 17.907 52.7422 17.5167 53.1533 17.2421Z" fill="#637381"/>
</g>
<g opacity="0.32">
<path d="M39.6537 83.7993C37.8412 83.7533 36.4683 82.6631 36.3201 80.8561C36.2314 79.7738 36.1665 78.2862 36.1665 76.25C36.1665 74.2138 36.2314 72.7262 36.3201 71.6439C36.4683 69.8369 37.8412 68.7467 39.6537 68.7007C40.4466 68.6805 41.4381 68.6667 42.6665 68.6667C43.8949 68.6667 44.8864 68.6805 45.6794 68.7007C47.4919 68.7467 48.8647 69.8369 49.0129 71.6439C49.1016 72.7262 49.1665 74.2138 49.1665 76.25C49.1665 78.2862 49.1016 79.7738 49.0129 80.8561C48.8647 82.6631 47.4919 83.7533 45.6794 83.7993C44.8864 83.8195 43.8949 83.8333 42.6665 83.8333C41.4381 83.8333 40.4466 83.8195 39.6537 83.7993Z" fill="#C4CDD5"/>
<path d="M74.8318 83.7884C72.7201 83.7051 71.2394 82.2206 71.1025 80.1117C70.9606 77.9249 70.8332 74.373 70.8332 68.6667C70.8332 62.9603 70.9606 59.4084 71.1025 57.2217C71.2394 55.1128 72.7201 53.6283 74.8318 53.545C75.5286 53.5174 76.3559 53.5 77.3332 53.5C78.3104 53.5 79.1378 53.5174 79.8346 53.545C81.9462 53.6283 83.4269 55.1128 83.5639 57.2217C83.7058 59.4084 83.8332 62.9603 83.8332 68.6667C83.8332 74.373 83.7058 77.9249 83.5639 80.1117C83.4269 82.2206 81.9462 83.7051 79.8346 83.7884C79.1378 83.8159 78.3104 83.8333 77.3332 83.8333C76.3559 83.8333 75.5286 83.8159 74.8318 83.7884Z" fill="#C4CDD5"/>
<path d="M57.3491 83.7968C55.3257 83.7353 53.8508 82.4073 53.7055 80.3882C53.5913 78.8012 53.4998 76.4528 53.4998 73C53.4998 69.5472 53.5913 67.1987 53.7055 65.6118C53.8508 63.5927 55.3257 62.2647 57.3491 62.2032C58.0762 62.1811 58.9518 62.1667 59.9998 62.1667C61.0479 62.1667 61.9235 62.1811 62.6505 62.2032C64.674 62.2647 66.1488 63.5927 66.2942 65.6118C66.4084 67.1987 66.4998 69.5472 66.4998 73C66.4998 76.4528 66.4084 78.8012 66.2942 80.3882C66.1488 82.4073 64.674 83.7353 62.6505 83.7968C61.9235 83.8189 61.0479 83.8333 59.9998 83.8333C58.9518 83.8333 58.0762 83.8189 57.3491 83.7968Z" fill="#C4CDD5"/>
</g>
<path d="M79.4138 47.1096C79.3061 49.2502 77.27 50.0545 75.6908 48.6055C74.9727 47.9466 74.1131 47.1355 73.0903 46.1395C70.7803 48.2417 67.1975 51.5194 62.926 55.4857C61.8043 56.5273 59.9825 56.4108 59.0025 55.2349L59.0018 55.234C57.0786 52.9331 55.1412 50.6415 53.1363 48.4114C50.7935 50.1315 46.5882 53.4096 42.4149 57.5828C41.3573 58.6404 39.6424 58.6404 38.5848 57.5828C37.5271 56.5251 37.5271 54.8103 38.5848 53.7526C42.6789 49.6585 47.171 45.8181 51.9887 42.5868L51.9962 42.5818C51.998 42.5806 51.9975 42.5809 51.9975 42.5809C53.0717 41.8648 54.502 42.0064 55.415 42.9193C57.5122 45.0165 59.4073 47.3234 61.3254 49.5841C64.5865 46.5681 67.3336 44.0552 69.2601 42.3014C68.3858 41.3993 67.6616 40.6301 67.0631 39.9778C65.6137 38.3983 66.4184 36.3616 68.5594 36.2539C71.2913 36.1164 74.0951 36.0355 76.7938 36.54C78.009 36.7672 78.9003 37.6587 79.1274 38.8739C79.6319 41.573 79.5513 44.3772 79.4138 47.1096Z" fill="#C4CDD5"/>
</svg>
