<svg width="120" height="120" viewBox="0 0 120 120" fill="none" xmlns="http://www.w3.org/2000/svg">
<path opacity="0.36" d="M92.9121 40.579C92.4241 40.124 92.0345 39.5818 91.766 38.9832C91.4976 38.3846 91.3559 37.7414 91.3481 37.0903H90.6907C90.7028 37.7457 90.5788 38.3969 90.3259 39.0062C90.0731 39.6156 89.6962 40.171 89.2167 40.6406C88.7378 41.11 88.1655 41.4842 87.5343 41.7414C86.9025 41.9987 86.2238 42.1339 85.5371 42.1393V42.7613C86.2236 42.7503 86.906 42.8694 87.5435 43.1114C88.1817 43.3536 88.7633 43.714 89.2549 44.1718C89.7458 44.6297 90.1375 45.1761 90.406 45.7793C90.6752 46.3824 90.8161 47.0304 90.8211 47.6858H91.4784C91.4657 47.0304 91.5896 46.3793 91.8425 45.7699C92.0961 45.1606 92.473 44.6051 92.9518 44.1356C93.4314 43.6661 94.003 43.292 94.6348 43.0347C95.266 42.7775 95.9453 42.6422 96.6317 42.6369V42.0148C95.244 42.0113 93.9116 41.497 92.9121 40.579Z" fill="#637381"/>
<path opacity="0.36" d="M84.7756 27.7944C84.5602 27.6054 84.3904 27.3741 84.2778 27.1163C84.1653 26.8585 84.1128 26.5806 84.1239 26.3015H83.8632C83.8705 26.8712 83.6407 27.4203 83.2243 27.8285C82.8079 28.2366 82.2389 28.4704 81.6421 28.4786V28.7275C82.2394 28.7205 82.8153 28.9397 83.2437 29.337C83.6722 29.7344 83.9184 30.2775 83.9284 30.8476H84.189C84.1818 30.2774 84.4114 29.7277 84.8276 29.3188C85.2439 28.9098 85.8129 28.6748 86.4102 28.6653V28.4164C86.1066 28.4331 85.803 28.386 85.5205 28.2785C85.2381 28.1711 84.9838 28.0058 84.7756 27.7944Z" fill="#637381"/>
<path opacity="0.36" d="M30.6546 81.0743C29.9839 80.464 29.452 79.7284 29.0922 78.9132C28.7325 78.098 28.5527 77.2208 28.5638 76.3364H27.6515C27.6676 78.1113 26.9494 79.8205 25.653 81.0929C24.3566 82.3654 22.5866 83.0982 20.7275 83.1323V84.003C22.586 83.9881 24.3758 84.6723 25.7087 85.909C27.0416 87.145 27.8099 88.8334 27.847 90.607H28.6942C28.6795 88.8341 29.3975 87.1268 30.6926 85.8556C31.9877 84.5844 33.7555 83.8522 35.6127 83.8163V83.0079C34.6931 83.0166 33.7808 82.85 32.9295 82.518C32.0782 82.186 31.3047 81.6952 30.6546 81.0743Z" fill="#637381"/>
<path d="M69.0398 89.4902L67.3788 91.8283C67.3181 91.9109 67.2748 92.0034 67.2516 92.1016C67.2284 92.1998 67.2257 92.3017 67.2436 92.4011C67.2616 92.4999 67.2998 92.595 67.3561 92.68C67.4124 92.7651 67.4858 92.8388 67.5719 92.897C67.658 92.9545 67.7554 92.9958 67.8582 93.0183C67.9611 93.0402 68.0675 93.0427 68.1715 93.0258C68.2753 93.0089 68.3747 92.972 68.4639 92.9183C68.553 92.8645 68.6302 92.7944 68.6909 92.7125L70.3519 90.3701L69.0398 89.4902Z" fill="#637381"/>
<path opacity="0.36" d="M69.7359 83.9673L67.4688 90.8558L69.6861 92.2666L75.4993 87.7205L69.7359 83.9673Z" fill="#637381"/>
<path d="M95.9598 60.3059L76.9965 87.4998C76.8459 87.7061 76.6174 87.8493 76.359 87.8987C76.1005 87.9481 75.832 87.9006 75.6096 87.7655L69.5971 83.968C69.3824 83.8229 69.2339 83.6053 69.1822 83.3589C69.1305 83.1131 69.1794 82.8574 69.3189 82.6441L88.282 55.4545C88.9574 54.4827 90.0095 53.8067 91.2064 53.5751C92.4039 53.3436 93.6486 53.5756 94.6666 54.2199C95.6847 54.8643 96.3928 55.8684 96.6352 57.0111C96.8783 58.154 96.6352 59.342 95.9598 60.3138V60.3059Z" fill="#637381"/>
<path opacity="0.36" d="M72.9952 77.5642L70.7725 80.7504L78.3507 85.5556L80.5734 82.3657L72.9952 77.5642Z" fill="#637381"/>
<path opacity="0.36" d="M74.699 75.1108L73.8857 76.2789L81.4639 81.0841L82.2733 79.9198L74.699 75.1108Z" fill="#637381"/>
<path opacity="0.36" fill-rule="evenodd" clip-rule="evenodd" d="M67.5564 21.3613L26.1177 40.8043C26.1177 40.8043 29.9231 73.4367 50.8713 91.7992C70.7405 82.3757 92.8579 71.8675 92.8579 71.8675C92.8579 71.8675 74.8785 57.9532 67.5564 21.3613ZM49.923 78.7684C51.5759 78.8858 53.0155 77.702 53.1385 76.1242C53.2615 74.5465 52.0213 73.1723 50.3684 73.0549C48.7155 72.9375 47.2759 74.1213 47.1529 75.6991C47.0299 77.2768 48.2701 78.651 49.923 78.7684ZM55.3437 71.008C54.5959 71.3576 54.3237 72.2445 54.7556 72.924L55.492 74.0824C55.8723 74.6806 56.6679 74.9031 57.3262 74.5953L77.55 65.1409C78.2978 64.7914 78.57 63.9045 78.1381 63.225L77.4018 62.0666C77.0215 61.4683 76.2259 61.2459 75.5675 61.5537L55.3437 71.008ZM37.213 53.0614C38.8659 53.1788 40.3055 51.9949 40.4285 50.4172C40.5515 48.8394 39.3113 47.4652 37.6584 47.3478C36.0056 47.2304 34.5659 48.4143 34.4429 49.992C34.3199 51.5698 35.5601 52.944 37.213 53.0614ZM42.8915 45.5658C42.2581 45.8619 41.9493 46.5577 42.1672 47.198L42.6174 48.5212C42.8837 49.3036 43.814 49.6797 44.588 49.3179L64.7965 39.8707C65.4299 39.5746 65.7387 38.8788 65.5208 38.2384L65.0706 36.9153C64.8043 36.1329 63.874 35.7567 63.1 36.1186L42.8915 45.5658ZM42.824 66.3785C44.4768 66.4959 45.9165 65.3121 46.0395 63.7344C46.1625 62.1566 44.9223 60.7824 43.2694 60.665C41.6165 60.5476 40.1769 61.7314 40.0539 63.3092C39.9309 64.8869 41.1711 66.2611 42.824 66.3785ZM48.5582 58.896C47.8962 59.2055 47.5935 59.9477 47.8618 60.603L48.3461 61.7851C48.6478 62.5216 49.5445 62.8549 50.2887 62.5071L70.514 53.0519C71.176 52.7425 71.4788 52.0002 71.2103 51.3449L70.7262 50.163C70.4244 49.4263 69.5277 49.0931 68.7836 49.441L48.5582 58.896Z" fill="#637381"/>
</svg>
