<svg width="120" height="120" viewBox="0 0 120 120" fill="none" xmlns="http://www.w3.org/2000/svg">
<path d="M107.842 21.1665L74.237 14.811C74.237 14.811 61.4806 36.713 65.4934 57.376C81.6566 60.3491 99.6594 63.6493 99.6594 63.6493C99.6594 63.6493 95.3297 47.0239 107.842 21.1665Z" fill="url(#paint0_linear_5292_4136)"/>
<path d="M91.1035 30.3878L93.9441 26.7356C93.5315 26.2341 93.0747 25.7647 92.577 25.3336C90.8326 23.8215 88.6788 22.8607 86.3882 22.5727C84.4211 22.3253 82.4288 22.5837 80.5977 23.316L81.5401 27.7587C82.4254 27.2915 83.4021 27.0106 84.4097 26.9392C85.8394 26.838 87.267 27.163 88.5119 27.8732C89.577 28.4809 90.4675 29.3472 91.1035 30.3878Z" fill="white"/>
<path d="M92.5783 25.3342L89.6626 28.6978C90.5807 29.4974 91.2834 30.5147 91.7063 31.6563C92.1293 32.798 92.2596 34.0275 92.0841 35.2322C91.9087 36.437 91.434 37.5786 90.7032 38.5523C89.9724 39.526 89.0088 40.3008 87.901 40.8056C87.1275 41.1948 86.2846 41.4274 85.421 41.49C84.5574 41.5526 83.6898 41.444 82.8682 41.1705C81.7018 40.8245 80.6405 40.1921 79.781 39.3309C78.9215 38.4699 78.2912 37.4073 77.9475 36.2402C77.6037 35.0732 77.5573 33.8386 77.8127 32.649C78.0682 31.4595 78.6173 30.3528 79.4098 29.4297C80.4992 28.1668 81.997 27.3259 83.6425 27.0533L82.9307 22.6467C80.8968 23.0012 78.9916 23.8832 77.4054 25.2046C75.8192 26.526 74.6075 28.2405 73.8914 30.1768C73.2769 31.735 73.025 33.4125 73.1548 35.0826C73.2844 36.7526 73.7924 38.3713 74.6401 39.8159C75.4636 41.3185 76.6069 42.622 77.9891 43.6346C79.3713 44.6473 80.9588 45.3444 82.6397 45.6765C84.3206 46.0087 86.054 45.9681 87.7175 45.5574C89.381 45.1468 90.9341 44.376 92.2674 43.2997C93.6006 42.2234 94.6811 40.8676 95.4332 39.3281C96.1854 37.7886 96.591 36.1027 96.6205 34.3896C96.6501 32.6764 96.3035 30.9776 95.6052 29.4129C94.906 27.8483 93.8733 26.4561 92.5783 25.3342Z" fill="url(#paint1_linear_5292_4136)"/>
<path d="M85.4424 41.4888C84.5849 41.5471 83.7234 41.4144 82.9054 41.1509C81.7366 40.8057 80.6727 40.1733 79.8107 39.3115C78.9488 38.4497 78.3163 37.386 77.9709 36.2171C77.6255 35.0483 77.5782 33.8116 77.8332 32.6197C78.0882 31.4279 78.6374 30.3188 79.4308 29.3937L76.0858 26.4944C75.145 27.5766 74.3977 28.813 73.8771 30.1492C73.2589 31.7092 73.0052 33.3897 73.1351 35.0627C73.2651 36.7356 73.7753 38.3569 74.627 39.8027C75.7176 41.766 77.3318 43.4057 79.3055 44.4771C81.2794 45.5487 83.5666 46.0633 85.7707 45.8668L85.4424 41.4888Z" fill="#95B6FC"/>
<path d="M91.2993 55.0315L74.0681 51.861C73.963 51.8441 73.8624 51.8059 73.7726 51.7486C73.6828 51.6913 73.6057 51.616 73.5461 51.5278C73.4865 51.4395 73.4458 51.3398 73.4262 51.2351C73.4068 51.1303 73.4089 51.0227 73.4327 50.9189L73.7476 49.2249C73.7631 49.1188 73.8005 49.017 73.8571 48.926C73.9138 48.835 73.9887 48.7567 74.0771 48.696C74.1654 48.6353 74.2655 48.5935 74.3708 48.5733C74.476 48.553 74.5843 48.5549 74.6889 48.5784L91.9202 51.749C92.0262 51.7645 92.1278 51.8018 92.219 51.8585C92.3102 51.9152 92.3883 51.99 92.4491 52.0784C92.5091 52.1669 92.5516 52.2667 92.5716 52.372C92.5916 52.4774 92.5898 52.5857 92.5664 52.6903L92.2468 54.3902C92.2303 54.4965 92.1929 54.5983 92.1347 54.6891C92.0774 54.78 92.0018 54.858 91.9132 54.9183C91.8247 54.9786 91.7239 55.0198 91.6179 55.0392C91.512 55.0587 91.4038 55.0561 91.2993 55.0315Z" fill="#4977EB"/>
<path d="M73.42 102.775L66.8393 66.3952C66.6823 65.7087 66.3291 65.0827 65.8228 64.5932C65.3165 64.1037 64.6789 63.7719 63.9876 63.6379L31.3366 58.9953L31.0949 58.1287L30.4175 55.6604C30.2413 55.1486 29.9344 54.6918 29.5272 54.3353C29.1201 53.9787 28.6266 53.7349 28.0961 53.6279L23.7423 52.9976L14.1786 51.6426C12.8236 51.4483 12.0043 52.3674 12.2932 53.6751L13.8687 60.3503L20.1763 95.1649C20.3453 95.9552 20.7927 96.6579 21.4367 97.1451C21.8877 97.5334 22.4298 97.8009 23.0123 97.9225L71.0934 104.787C71.6887 104.862 72.2931 104.762 72.8318 104.497C73.0814 104.295 73.2689 104.026 73.3729 103.721C73.4769 103.416 73.4932 103.089 73.42 102.775Z" fill="url(#paint2_linear_5292_4136)"/>
<path d="M66.0313 22.6919L32.584 39.1326C32.584 39.1326 35.6556 66.7262 52.5639 82.2535C68.6014 74.285 86.4534 65.3994 86.4534 65.3994C86.4534 65.3994 71.9414 53.6336 66.0313 22.6919Z" fill="url(#paint3_linear_5292_4136)"/>
<path d="M45.2531 45.0544C45.1421 44.5781 45.3744 44.0881 45.8135 43.8728L62.0244 35.9213C62.6001 35.6388 63.2924 35.9338 63.4874 36.5447L63.9482 37.9869C64.1074 38.4855 63.8754 39.0251 63.4041 39.2526L47.0549 47.1432C46.449 47.4357 45.7283 47.091 45.5755 46.4359L45.2531 45.0544Z" fill="#5884F5"/>
<path d="M41.9341 49.4962C43.2682 49.5954 44.4302 48.5944 44.5295 47.2603C44.6288 45.9262 43.6277 44.7641 42.2936 44.6649C40.9595 44.5656 39.7974 45.5666 39.6982 46.9008C39.5989 48.2349 40.5999 49.3969 41.9341 49.4962Z" fill="#5884F5"/>
<path d="M49.3454 55.3422C49.2343 54.8659 49.4667 54.3759 49.9058 54.1605L66.1166 46.2091C66.6923 45.9267 67.3846 46.2216 67.5797 46.8326L68.0405 48.2748C68.1997 48.7732 67.9677 49.3129 67.4964 49.5404L51.1472 57.4311C50.5413 57.7234 49.8205 57.3789 49.6677 56.7237L49.3454 55.3422Z" fill="#5884F5"/>
<path d="M60.969 61.8498C60.8581 61.3748 61.0891 60.8859 61.5264 60.6697L70.3918 56.2862C70.9678 56.0014 71.6624 56.2961 71.8579 56.9082L72.3171 58.3457C72.4765 58.8446 72.244 59.3848 71.772 59.6118L62.7707 63.9434C62.1649 64.2349 61.4449 63.8902 61.2922 63.2355L60.969 61.8498Z" fill="#5884F5"/>
<path d="M46.0259 59.784C47.36 59.8833 48.522 58.8822 48.6213 57.5481C48.7205 56.214 47.7195 55.052 46.3854 54.9527C45.0513 54.8534 43.8892 55.8545 43.79 57.1886C43.6907 58.5227 44.6917 59.6847 46.0259 59.784Z" fill="#5884F5"/>
<path d="M86.9809 69.9569L66.9554 67.105L38.5584 63.0401C37.8611 62.9597 37.156 63.0981 36.5408 63.4358C35.9255 63.7736 35.4302 64.2942 35.1237 64.9255L21.2902 95.2552C21.1301 95.5505 21.0588 95.8849 21.0848 96.2193C21.111 96.5546 21.2334 96.8742 21.4372 97.1408C21.8882 97.5291 22.4303 97.7966 23.0127 97.9182L71.0939 104.782C71.6892 104.858 72.2936 104.758 72.8323 104.493C73.5648 104.183 74.1651 103.625 74.5287 102.917L88.3832 72.5828C88.5304 72.3245 88.6097 72.0332 88.6138 71.7359C88.6179 71.4387 88.5465 71.1452 88.4065 70.883C88.2665 70.6208 88.0623 70.3983 87.813 70.2363C87.5637 70.0744 87.2774 69.9782 86.9809 69.9569Z" fill="url(#paint4_linear_5292_4136)"/>
<defs>
<linearGradient id="paint0_linear_5292_4136" x1="101.456" y1="14.0894" x2="65.8147" y2="46.6466" gradientUnits="userSpaceOnUse">
<stop stop-color="#E5EEFF"/>
<stop offset="1" stop-color="#B2CBFF"/>
</linearGradient>
<linearGradient id="paint1_linear_5292_4136" x1="82.639" y1="7.18846" x2="63.8774" y2="41.8734" gradientUnits="userSpaceOnUse">
<stop stop-color="#7DA4FA"/>
<stop offset="0.364583" stop-color="#6893F7"/>
<stop offset="0.760417" stop-color="#4977EB"/>
<stop offset="1" stop-color="#3E69DE"/>
</linearGradient>
<linearGradient id="paint2_linear_5292_4136" x1="49.1686" y1="104.524" x2="22.3245" y2="25.3473" gradientUnits="userSpaceOnUse">
<stop offset="0.26" stop-color="#FFC01C"/>
<stop offset="0.52" stop-color="#FFC630"/>
<stop offset="0.8" stop-color="#FFD566"/>
</linearGradient>
<linearGradient id="paint3_linear_5292_4136" x1="41.848" y1="-10.1115" x2="53.407" y2="64.9714" gradientUnits="userSpaceOnUse">
<stop stop-color="#C8C8C8"/>
<stop offset="1" stop-color="#ECECED"/>
</linearGradient>
<linearGradient id="paint4_linear_5292_4136" x1="32.9002" y1="71.4429" x2="106.925" y2="83.3736" gradientUnits="userSpaceOnUse">
<stop offset="0.0199" stop-color="#FDD88E"/>
<stop offset="0.02" stop-color="#FDD689"/>
<stop offset="0.23" stop-color="#FCC962"/>
<stop offset="0.43" stop-color="#FBBE43"/>
<stop offset="0.63" stop-color="#FAB62E"/>
<stop offset="0.83" stop-color="#FAB220"/>
<stop offset="1" stop-color="#FAB01C"/>
</linearGradient>
</defs>
</svg>
