<svg width="24" height="24" viewBox="0 0 24 24" fill="none" xmlns="http://www.w3.org/2000/svg">
<path opacity="0.26" fill-rule="evenodd" clip-rule="evenodd" d="M10.2594 2.86781C6.03292 2.80324 2.58332 6.12971 2.50146 10.3559C2.48947 10.9763 2.55148 11.5803 2.67929 12.1596C2.89563 13.1405 3.02425 14.1386 3.02425 15.1431V17.0847C3.02425 17.3822 3.26538 17.6234 3.56288 17.6234H5.50449C6.50895 17.6234 7.50714 17.752 8.48804 17.9683C9.06731 18.0961 9.67129 18.1582 10.2917 18.1461C14.5178 18.0643 17.8443 14.6148 17.7799 10.3884C17.7169 6.26315 14.3846 2.93078 10.2594 2.86781Z" fill="#637381"/>
<path opacity="0.92" fill-rule="evenodd" clip-rule="evenodd" d="M15.1308 8.59085C18.6001 8.53785 21.4316 11.2684 21.4988 14.7373C21.5087 15.2466 21.4577 15.7424 21.3529 16.2179C21.1753 17.023 21.0697 17.8424 21.0697 18.6669V20.2606C21.0697 20.5048 20.8718 20.7028 20.6276 20.7028H19.0338C18.2093 20.7028 17.39 20.8083 16.5848 20.9859C16.1094 21.0908 15.6136 21.1417 15.1043 21.1318C11.6354 21.0647 8.90487 18.2332 8.95779 14.7641C9.00941 11.3779 11.7447 8.64258 15.1308 8.59085Z" fill="#637381"/>
</svg>
