<svg width="24" height="24" viewBox="0 0 24 24" fill="none" xmlns="http://www.w3.org/2000/svg">
<path opacity="0.28" fill-rule="evenodd" clip-rule="evenodd" d="M13.7984 2.04837C13.4245 1.89478 12.9496 1.89478 12.0007 1.89478C11.0518 1.89478 10.5779 1.89478 10.203 2.04837C9.95628 2.14917 9.73196 2.29775 9.54293 2.48557C9.35389 2.6734 9.20387 2.89675 9.10149 3.14277C9.0065 3.36812 8.97012 3.63186 8.95496 4.01485C8.94775 4.29224 8.87015 4.56325 8.72944 4.80241C8.58874 5.04157 8.38955 5.24105 8.15058 5.38209C7.90679 5.51761 7.63274 5.58939 7.35381 5.59081C7.07489 5.59222 6.80012 5.52321 6.55497 5.39017C6.21341 5.2103 5.96583 5.11127 5.72129 5.07893C5.1863 5.00913 4.64535 5.1529 4.21561 5.4791C3.89426 5.72365 3.65679 6.1319 3.18285 6.94739C2.70791 7.76288 2.47145 8.17012 2.41789 8.56928C2.34715 9.10082 2.49267 9.63841 2.8221 10.0638C2.97166 10.2579 3.18285 10.4206 3.50925 10.6247C3.99127 10.9248 4.30049 11.4361 4.30049 12C4.30049 12.5639 3.99127 13.0752 3.51026 13.3743C3.18285 13.5795 2.97165 13.7421 2.82109 13.9362C2.65897 14.1466 2.53991 14.3869 2.47072 14.6433C2.40154 14.8998 2.38359 15.1673 2.41789 15.4307C2.47145 15.8289 2.70791 16.2371 3.18285 17.0526C3.6578 17.8681 3.89426 18.2754 4.21561 18.5209C4.64407 18.8473 5.18571 18.9908 5.72129 18.9211C5.96583 18.8887 6.21341 18.7897 6.55497 18.6098C6.80025 18.4766 7.0752 18.4075 7.35432 18.4089C7.63344 18.4103 7.90768 18.4822 8.1516 18.6179C8.64271 18.9009 8.93374 19.4213 8.95496 19.9852C8.97012 20.3692 9.0065 20.6319 9.10149 20.8572C9.30763 21.3524 9.70376 21.7465 10.203 21.9516C10.5769 22.1052 11.0518 22.1052 12.0007 22.1052C12.9496 22.1052 13.4245 22.1052 13.7984 21.9516C14.0451 21.8508 14.2694 21.7023 14.4584 21.5144C14.6475 21.3266 14.7975 21.1033 14.8999 20.8572C14.9949 20.6319 15.0312 20.3692 15.0464 19.9852C15.0666 19.4213 15.3586 18.8999 15.8508 18.6179C16.0946 18.4824 16.3686 18.4106 16.6475 18.4092C16.9265 18.4078 17.2012 18.4768 17.4464 18.6098C17.7879 18.7897 18.0355 18.8887 18.2801 18.9211C18.8156 18.9918 19.3573 18.8473 19.7857 18.5209C20.1071 18.2764 20.3446 17.8681 20.8185 17.0526C21.2934 16.2371 21.5299 15.8299 21.5835 15.4307C21.6176 15.1673 21.5995 14.8997 21.5302 14.6432C21.4608 14.3868 21.3416 14.1465 21.1793 13.9362C21.0297 13.7421 20.8185 13.5795 20.4921 13.3753C20.0101 13.0752 19.7009 12.5639 19.7009 12C19.7009 11.4361 20.0101 10.9248 20.4911 10.6257C20.8185 10.4206 21.0297 10.2579 21.1803 10.0638C21.3424 9.85344 21.4614 9.61314 21.5306 9.3567C21.5998 9.10025 21.6178 8.83267 21.5835 8.56928C21.5299 8.17113 21.2934 7.76288 20.8185 6.94739C20.3436 6.1319 20.1071 5.72466 19.7857 5.4791C19.356 5.1529 18.8151 5.00913 18.2801 5.07893C18.0355 5.11127 17.7879 5.2103 17.4464 5.39017C17.2011 5.52339 16.9262 5.5925 16.647 5.59109C16.3679 5.58967 16.0937 5.51778 15.8498 5.38209C15.611 5.24092 15.412 5.04139 15.2715 4.80224C15.131 4.56309 15.0535 4.29215 15.0464 4.01485C15.0312 3.63085 14.9949 3.36812 14.8999 3.14277C14.7975 2.89675 14.6475 2.6734 14.4584 2.48557C14.2694 2.29775 14.0451 2.14917 13.7984 2.04837Z" fill="#637381"/>
<path fill-rule="evenodd" clip-rule="evenodd" d="M9.79447 13.6271C9.77384 13.4767 9.6967 13.341 9.58 13.2498L7.96644 11.9894L9.58 10.729C9.6967 10.6378 9.77384 10.5021 9.79447 10.3516C9.8151 10.2012 9.77752 10.0484 9.69 9.92688C9.60248 9.80532 9.47218 9.72496 9.32778 9.70347C9.18338 9.68198 9.0367 9.72112 8.92 9.81229L6.72 11.531C6.65169 11.5844 6.59625 11.6536 6.55807 11.7332C6.51988 11.8127 6.5 11.9004 6.5 11.9894C6.5 12.0783 6.51988 12.166 6.55807 12.2456C6.59625 12.3251 6.65169 12.3943 6.72 12.4477L8.92 14.1665C9.0367 14.2576 9.18338 14.2968 9.32778 14.2753C9.47218 14.2538 9.60248 14.1734 9.69 14.0519C9.77752 13.9303 9.8151 13.7775 9.79447 13.6271ZM11.4287 16.1573L13.6287 8.13651C13.6656 7.9915 13.6465 7.83718 13.5754 7.70672C13.5042 7.57625 13.3868 7.48005 13.2484 7.43879C13.1099 7.39752 12.9614 7.41448 12.8348 7.48603C12.7082 7.55757 12.6136 7.67799 12.5713 7.82141L10.3713 15.8422C10.3498 15.915 10.3425 15.9916 10.3498 16.0674C10.3571 16.1432 10.3788 16.2167 10.4136 16.2836C10.4485 16.3506 10.4958 16.4096 10.5529 16.4573C10.6099 16.505 10.6755 16.5403 10.7458 16.5613C10.8161 16.5822 10.8897 16.5883 10.9623 16.5793C11.0349 16.5703 11.1051 16.5462 11.1686 16.5086C11.2322 16.471 11.288 16.4206 11.3326 16.3603C11.3773 16.2999 11.4099 16.231 11.4287 16.1573ZM15.08 14.1665L17.28 12.4477C17.3483 12.3943 17.4037 12.3251 17.4419 12.2456C17.4801 12.166 17.5 12.0783 17.5 11.9894C17.5 11.9004 17.4801 11.8127 17.4419 11.7332C17.4037 11.6536 17.3483 11.5844 17.28 11.531L15.08 9.81229C15.0222 9.76715 14.9565 9.73431 14.8865 9.71563C14.8165 9.69696 14.7437 9.69283 14.6722 9.70347C14.6007 9.71411 14.5319 9.73931 14.4698 9.77765C14.4076 9.81598 14.3533 9.86669 14.31 9.92688C14.2667 9.98706 14.2351 10.0556 14.2172 10.1284C14.1993 10.2013 14.1953 10.2772 14.2055 10.3516C14.2157 10.4261 14.2399 10.4978 14.2767 10.5625C14.3135 10.6273 14.3622 10.6838 14.42 10.729L16.0336 11.9894L14.42 13.2498C14.3033 13.341 14.2262 13.4767 14.2055 13.6271C14.1849 13.7775 14.2225 13.9303 14.31 14.0519C14.3975 14.1734 14.5278 14.2538 14.6722 14.2753C14.8166 14.2968 14.9633 14.2576 15.08 14.1665Z" fill="#637381"/>
</svg>
