<svg width="24" height="24" viewBox="0 0 24 24" fill="none" xmlns="http://www.w3.org/2000/svg">
<path opacity="0.44" d="M9.18294 20.3408L9.07247 20.5228C9.07247 20.5228 4.15967 20.7757 4.15967 17.5246C4.15967 14.2012 8.4626 12.7456 9.79494 12.2867C10.086 12.1864 10.6049 12.0403 11.2382 11.8384C11.3327 12.0389 11.4247 12.2405 11.5147 12.443C9.86015 13.0354 6.32708 14.5131 6.32708 17.5246C6.32708 19.3271 7.83716 20.0522 9.18294 20.3408Z" fill="#637381"/>
<path d="M20.4936 12.2599C20.0089 11.7752 19.3645 11.5083 18.6792 11.5083C17.9937 11.5083 17.3494 11.7752 16.8647 12.2599L13.3106 15.814C12.5983 16.5263 12.1175 17.4248 11.9201 18.4125L11.522 20.4043C11.4759 20.6348 11.548 20.873 11.7142 21.0393C11.8474 21.1724 12.0268 21.2451 12.2114 21.2451C12.2572 21.2451 12.3033 21.2407 12.3492 21.2315L14.341 20.8334C15.3287 20.636 16.2273 20.1551 16.9396 19.4429L20.4936 15.8888C20.9783 15.4041 21.2452 14.7597 21.2452 14.0743C21.2452 13.3889 20.9783 12.7445 20.4936 12.2599Z" fill="#637381"/>
<g opacity="0.36">
<path d="M10.5474 12.8031C10.3365 12.8694 10.1227 12.9376 9.99783 12.9806C8.73239 13.4163 4.88147 14.7423 4.88147 17.5245C4.88147 18.0624 5.0554 18.4895 5.41324 18.8303C6.35329 19.7257 8.34731 19.8348 9.03564 19.8012C9.43452 19.7813 9.77292 20.0885 9.79286 20.4866C9.81281 20.8847 9.50706 21.2237 9.10894 21.2443C9.08788 21.2453 8.98709 21.25 8.82645 21.25C8.02631 21.25 5.74041 21.134 4.4201 19.8798C3.76749 19.26 3.43653 18.4675 3.43653 17.5245C3.43653 16.6128 3.7093 15.7544 4.24717 14.9731C4.67668 14.3494 5.28049 13.7708 6.04197 13.2534C7.35167 12.3636 8.85275 11.8467 9.55897 11.6035C9.7023 11.5541 9.89304 11.4942 10.1139 11.4247C11.1005 11.1145 12.7517 10.5952 14.1681 9.80649C15.7242 8.94 16.5132 8.01979 16.5132 7.07141C16.5132 5.98908 16.0004 5.30552 15.5702 4.92268C15.0735 4.48057 14.3944 4.19494 13.8401 4.19494C13.4411 4.19494 13.1176 3.87149 13.1176 3.47247C13.1176 3.07345 13.4411 2.75 13.8401 2.75C14.7557 2.75 15.7616 3.15866 16.5308 3.8432C17.4512 4.66234 17.9582 5.80879 17.9582 7.07137C17.9582 10.4725 12.765 12.1057 10.5474 12.8031Z" fill="#637381"/>
<path d="M6.72359 7.2293C5.2021 7.2293 4.27225 6.58324 3.76012 6.04124C3.11821 5.36183 2.75 4.42555 2.75 3.47247C2.75 3.07345 3.07345 2.75 3.47247 2.75C3.87149 2.75 4.19494 3.07345 4.19494 3.47247C4.19494 4.58594 4.98623 5.78437 6.72359 5.78437C7.97184 5.78437 8.75988 5.16463 9.67236 4.44704C9.95517 4.22463 10.2476 3.99467 10.5614 3.77858C10.89 3.5523 11.3398 3.63517 11.5662 3.96378C11.7925 4.2924 11.7096 4.74224 11.381 4.96856C11.1048 5.15875 10.8429 5.36472 10.5655 5.58284C9.58425 6.35458 8.47197 7.2293 6.72359 7.2293Z" fill="#637381"/>
</g>
</svg>
