<svg width="24" height="24" viewBox="0 0 24 24" fill="none" xmlns="http://www.w3.org/2000/svg">
<path opacity="0.36" d="M21.0342 6.78372C20.8987 6.65746 20.7906 6.50698 20.7161 6.34084C20.6416 6.17471 20.6022 5.99619 20.6001 5.81549H20.4176C20.421 5.99737 20.3866 6.17811 20.3164 6.34722C20.2462 6.51636 20.1416 6.67051 20.0085 6.80082C19.8756 6.93111 19.7168 7.03496 19.5416 7.10635C19.3662 7.17775 19.1779 7.21528 18.9873 7.21676V7.38939C19.1778 7.38635 19.3672 7.4194 19.5442 7.48658C19.7213 7.55378 19.8827 7.65381 20.0191 7.78089C20.1554 7.90797 20.2641 8.05962 20.3386 8.22701C20.4133 8.3944 20.4524 8.57424 20.4538 8.75616H20.6363C20.6327 8.57426 20.6671 8.39354 20.7373 8.22442C20.8077 8.0553 20.9123 7.90112 21.0452 7.77083C21.1783 7.64054 21.3369 7.53669 21.5123 7.46528C21.6875 7.3939 21.876 7.35636 22.0665 7.35488V7.18224C21.6814 7.18126 21.3116 7.03851 21.0342 6.78372Z" fill="#637381"/>
<path opacity="0.36" d="M18.7759 3.23532C18.7161 3.18287 18.669 3.11867 18.6378 3.04713C18.6065 2.97558 18.592 2.89843 18.595 2.82098H18.5227C18.5247 2.97909 18.4609 3.13149 18.3454 3.24478C18.2298 3.35805 18.0719 3.42294 17.9062 3.42521V3.49429C18.072 3.49236 18.2319 3.55319 18.3508 3.66346C18.4697 3.77373 18.538 3.92448 18.5408 4.08271H18.6131C18.6111 3.92446 18.6748 3.77189 18.7904 3.6584C18.9059 3.54488 19.0638 3.47967 19.2296 3.47702V3.40795C19.1453 3.41258 19.0611 3.39952 18.9827 3.36968C18.9043 3.33986 18.8337 3.294 18.7759 3.23532Z" fill="#637381"/>
<path opacity="0.36" d="M3.75515 18.0228C3.56899 17.8534 3.42139 17.6492 3.32153 17.423C3.2217 17.1967 3.17179 16.9533 3.17487 16.7078H2.92168C2.92614 17.2004 2.72681 17.6748 2.36702 18.0279C2.00721 18.3811 1.51598 18.5845 1 18.5939V18.8356C1.5158 18.8315 2.01254 19.0214 2.38247 19.3646C2.75239 19.7076 2.96564 20.1762 2.97594 20.6685H3.21105C3.20698 20.1764 3.40627 19.7026 3.7657 19.3498C4.12514 18.997 4.61576 18.7937 5.13122 18.7838V18.5594C4.87598 18.5618 4.6228 18.5156 4.38653 18.4234C4.15025 18.3313 3.93558 18.1951 3.75515 18.0228Z" fill="#637381"/>
<path d="M13.6129 21.3563L13.0498 22.149C13.0292 22.177 13.0145 22.2084 13.0067 22.2417C12.9988 22.275 12.9979 22.3095 13.004 22.3432C13.0101 22.3767 13.023 22.4089 13.0421 22.4378C13.0612 22.4666 13.0861 22.4916 13.1153 22.5113C13.1445 22.5308 13.1775 22.5448 13.2123 22.5525C13.2472 22.5599 13.2833 22.5607 13.3185 22.555C13.3538 22.5493 13.3874 22.5368 13.4177 22.5186C13.4479 22.5003 13.474 22.4766 13.4947 22.4488L14.0578 21.6546L13.6129 21.3563Z" fill="#637381"/>
<path opacity="0.36" d="M13.8487 19.4839L13.0801 21.8194L13.8318 22.2977L15.8027 20.7564L13.8487 19.4839Z" fill="#637381"/>
<path d="M22.7397 11.4618L16.3104 20.6815C16.2594 20.7515 16.1819 20.8 16.0943 20.8168C16.0067 20.8335 15.9156 20.8174 15.8402 20.7716L13.8018 19.4841C13.729 19.4349 13.6786 19.3611 13.6611 19.2776C13.6436 19.1943 13.6602 19.1076 13.7075 19.0353L20.1367 9.81696C20.3657 9.48748 20.7224 9.25828 21.1281 9.17977C21.5341 9.10127 21.9561 9.17992 22.3013 9.39838C22.6464 9.61685 22.8865 9.95727 22.9687 10.3447C23.0511 10.7322 22.9687 11.135 22.7397 11.4645V11.4618Z" fill="#637381"/>
<path opacity="0.36" d="M14.9538 17.3129L14.2002 18.3932L16.7695 20.0223L17.5231 18.9408L14.9538 17.3129Z" fill="#637381"/>
<path opacity="0.36" d="M15.5316 16.4812L15.2559 16.8772L17.8252 18.5064L18.0996 18.1116L15.5316 16.4812Z" fill="#637381"/>
<path opacity="0.36" fill-rule="evenodd" clip-rule="evenodd" d="M13.997 1.45001L2.49609 6.8462C2.49609 6.8462 3.55225 15.903 9.3662 20.9993C14.8807 18.3839 21.0191 15.4675 21.0191 15.4675C21.0191 15.4675 16.0291 11.6057 13.997 1.45001ZM9.10323 17.3827C9.56197 17.4153 9.96152 17.0868 9.99566 16.6489C10.0298 16.211 9.68559 15.8296 9.22685 15.797C8.76811 15.7644 8.36856 16.093 8.33442 16.5309C8.30028 16.9688 8.64449 17.3502 9.10323 17.3827ZM10.6076 15.2289C10.4001 15.326 10.3245 15.5721 10.4444 15.7607L10.6488 16.0822C10.7543 16.2482 10.9752 16.31 11.1579 16.2246L16.7708 13.6006C16.9783 13.5036 17.0539 13.2574 16.934 13.0688L16.7296 12.7474C16.6241 12.5813 16.4033 12.5196 16.2205 12.605L10.6076 15.2289ZM5.57547 10.248C6.03421 10.2806 6.43376 9.95202 6.4679 9.51413C6.50203 9.07625 6.15783 8.69485 5.69909 8.66227C5.24035 8.62968 4.84079 8.95824 4.80665 9.39613C4.77252 9.83402 5.11673 10.2154 5.57547 10.248ZM7.15156 8.16772C6.97577 8.24989 6.89007 8.44301 6.95054 8.62073L7.0755 8.98796C7.1494 9.2051 7.40759 9.30949 7.62241 9.20908L13.2311 6.58711C13.4069 6.50492 13.4925 6.3118 13.4321 6.13409L13.3071 5.76685C13.2332 5.54971 12.975 5.44532 12.7602 5.54573L7.15156 8.16772ZM7.13298 13.944C7.59172 13.9766 7.99128 13.6481 8.02542 13.2102C8.05955 12.7723 7.71534 12.3909 7.25661 12.3583C6.79787 12.3257 6.39831 12.6543 6.36417 13.0922C6.33004 13.5301 6.67424 13.9114 7.13298 13.944ZM8.72424 11.8675C8.54052 11.9534 8.45649 12.1594 8.53098 12.3412L8.66538 12.6693C8.74913 12.8737 8.998 12.9662 9.20452 12.8697L14.8178 10.2455C15.0016 10.1596 15.0856 9.9536 15.0111 9.77174L14.8767 9.4437C14.793 9.23926 14.5441 9.14676 14.3376 9.24331L8.72424 11.8675Z" fill="#637381"/>
</svg>
