<svg width="24" height="24" viewBox="0 0 24 24" fill="none" xmlns="http://www.w3.org/2000/svg">
<g opacity="0.32">
<path d="M20.55 8.19999H12.95C12.698 8.19999 12.4564 8.0999 12.2782 7.92174C12.1001 7.74358 12 7.50194 12 7.24999C12 6.99803 12.1001 6.7564 12.2782 6.57824C12.4564 6.40008 12.698 6.29999 12.95 6.29999H20.55C20.802 6.29999 21.0436 6.40008 21.2218 6.57824C21.3999 6.7564 21.5 6.99803 21.5 7.24999C21.5 7.50194 21.3999 7.74358 21.2218 7.92174C21.0436 8.0999 20.802 8.19999 20.55 8.19999ZM20.55 12H12.95C12.698 12 12.4564 11.8999 12.2782 11.7217C12.1001 11.5436 12 11.3019 12 11.05C12 10.798 12.1001 10.5564 12.2782 10.3782C12.4564 10.2001 12.698 10.1 12.95 10.1H20.55C20.802 10.1 21.0436 10.2001 21.2218 10.3782C21.3999 10.5564 21.5 10.798 21.5 11.05C21.5 11.3019 21.3999 11.5436 21.2218 11.7217C21.0436 11.8999 20.802 12 20.55 12Z" fill="#637381"/>
<path d="M20.55 15.8H3.45C3.19804 15.8 2.95641 15.6999 2.77825 15.5217C2.60009 15.3436 2.5 15.1019 2.5 14.85C2.5 14.598 2.60009 14.3564 2.77825 14.1782C2.95641 14.0001 3.19804 13.9 3.45 13.9H20.55C20.802 13.9 21.0436 14.0001 21.2218 14.1782C21.3999 14.3564 21.5 14.598 21.5 14.85C21.5 15.1019 21.3999 15.3436 21.2218 15.5217C21.0436 15.6999 20.802 15.8 20.55 15.8ZM12.95 19.6H3.45C3.19804 19.6 2.95641 19.4999 2.77825 19.3217C2.60009 19.1436 2.5 18.9019 2.5 18.65C2.5 18.398 2.60009 18.1564 2.77825 17.9782C2.95641 17.8001 3.19804 17.7 3.45 17.7H12.95C13.202 17.7 13.4436 17.8001 13.6218 17.9782C13.7999 18.1564 13.9 18.398 13.9 18.65C13.9 18.9019 13.7999 19.1436 13.6218 19.3217C13.4436 19.4999 13.202 19.6 12.95 19.6Z" fill="#637381"/>
</g>
<rect x="2.5" y="4.39999" width="7.6" height="7.6" rx="1.9" fill="#637381"/>
</svg>
