<svg width="24" height="24" viewBox="0 0 24 24" fill="none" xmlns="http://www.w3.org/2000/svg">
<circle cx="12" cy="12" r="12" fill="#D5DADE"/>
<path fill-rule="evenodd" clip-rule="evenodd" d="M9.22404 14.0242C9.19807 13.8383 9.10096 13.6705 8.95407 13.5579L6.92301 12.0002L8.95407 10.4425C9.10096 10.3298 9.19807 10.1621 9.22404 9.97619C9.25 9.79029 9.2027 9.60146 9.09253 9.45123C8.98237 9.301 8.81836 9.20169 8.63659 9.17513C8.45483 9.14857 8.27019 9.19695 8.1233 9.30962L5.35407 11.4337C5.26809 11.4997 5.1983 11.5852 5.15024 11.6835C5.10217 11.7819 5.07715 11.8903 5.07715 12.0002C5.07715 12.1101 5.10217 12.2185 5.15024 12.3168C5.1983 12.4151 5.26809 12.5007 5.35407 12.5666L8.1233 14.6907C8.27019 14.8034 8.45483 14.8518 8.63659 14.8252C8.81836 14.7987 8.98237 14.6994 9.09253 14.5491C9.2027 14.3989 9.25 14.2101 9.22404 14.0242ZM11.2811 17.1512L14.0503 7.2386C14.0968 7.05938 14.0727 6.86867 13.9832 6.70743C13.8937 6.5462 13.7459 6.42731 13.5716 6.37631C13.3973 6.32531 13.2104 6.34627 13.051 6.43469C12.8917 6.52311 12.7726 6.67193 12.7194 6.84918L9.95013 16.7618C9.92311 16.8517 9.9139 16.9463 9.92305 17.04C9.9322 17.1337 9.95952 17.2245 10.0034 17.3073C10.0473 17.39 10.1069 17.463 10.1787 17.5219C10.2505 17.5808 10.333 17.6245 10.4215 17.6504C10.51 17.6763 10.6027 17.6838 10.694 17.6727C10.7854 17.6615 10.8737 17.6318 10.9538 17.5853C11.0338 17.5389 11.104 17.4765 11.1602 17.402C11.2164 17.3274 11.2575 17.2422 11.2811 17.1512ZM15.8771 14.6907L18.6464 12.5666C18.7324 12.5007 18.8021 12.4151 18.8502 12.3168C18.8983 12.2185 18.9233 12.1101 18.9233 12.0002C18.9233 11.8903 18.8983 11.7819 18.8502 11.6835C18.8021 11.5852 18.7324 11.4997 18.6464 11.4337L15.8771 9.30962C15.8044 9.25383 15.7217 9.21324 15.6336 9.19017C15.5455 9.16709 15.4539 9.16198 15.3639 9.17513C15.2739 9.18828 15.1873 9.21943 15.109 9.2668C15.0308 9.31418 14.9625 9.37684 14.9079 9.45123C14.8534 9.52562 14.8137 9.61026 14.7911 9.70033C14.7686 9.79041 14.7636 9.88414 14.7764 9.97619C14.7893 10.0682 14.8197 10.1568 14.8661 10.2368C14.9124 10.3168 14.9736 10.3867 15.0464 10.4425L17.0774 12.0002L15.0464 13.5579C14.8995 13.6705 14.8024 13.8383 14.7764 14.0242C14.7504 14.2101 14.7978 14.3989 14.9079 14.5491C15.0181 14.6994 15.1821 14.7987 15.3639 14.8252C15.5456 14.8518 15.7303 14.8034 15.8771 14.6907Z" fill="#637381"/>
</svg>
