<svg width="24" height="24" viewBox="0 0 24 24" fill="none" xmlns="http://www.w3.org/2000/svg">
<rect opacity="0.24" x="2" y="2" width="20" height="20" rx="4" fill="#637381"/>
<g opacity="0.32">
<path d="M12.6846 9.64991C12.853 9.31145 12.9477 8.92987 12.9477 8.52617C12.9477 8.12247 12.853 7.74089 12.6846 7.40243C13.0296 6.93483 13.5845 6.63153 14.2103 6.63153C15.2568 6.63153 16.1051 7.47979 16.1051 8.52617C16.1051 9.57255 15.2568 10.4208 14.2103 10.4208C13.5845 10.4208 13.0296 10.1175 12.6846 9.64991Z" fill="#637381"/>
<path d="M13.6164 17.2199C13.9932 17.3151 14.4073 17.3678 14.8419 17.3678C16.586 17.3678 17.9999 16.5196 17.9999 15.4732C17.9999 14.4268 16.586 13.5785 14.8419 13.5785C14.4067 13.5785 13.9921 13.6313 13.6149 13.7268C14.3753 14.1806 14.8425 14.796 14.8425 15.4738C14.8425 16.1512 14.3759 16.7662 13.6164 17.2199Z" fill="#637381"/>
</g>
<path d="M10.4213 11.0524C11.8166 11.0524 12.9477 9.92136 12.9477 8.52618C12.9477 7.13101 11.8166 6 10.4213 6C9.02595 6 7.89483 7.13101 7.89483 8.52618C7.89483 9.92136 9.02595 11.0524 10.4213 11.0524Z" fill="#637381"/>
<path d="M10.4213 18C12.8631 18 14.8425 16.869 14.8425 15.4738C14.8425 14.0786 12.8631 12.9476 10.4213 12.9476C7.97947 12.9476 6 14.0786 6 15.4738C6 16.869 7.97947 18 10.4213 18Z" fill="#637381"/>
</svg>
