<svg width="24" height="24" viewBox="0 0 24 24" fill="none" xmlns="http://www.w3.org/2000/svg">
<path opacity="0.38" d="M16.5129 18.1008C16.2994 18.7547 15.9243 19.3441 15.4222 19.8144C14.6757 20.5139 13.5238 20.8223 11.2209 21.4391C8.91807 22.056 7.76613 22.3654 6.77043 22.1326C5.9837 21.9491 5.26902 21.5365 4.71675 20.9469C4.01722 20.2004 3.70779 19.0485 3.09097 16.7456L2.56299 14.7726C1.94515 12.4697 1.63675 11.3178 1.86856 10.3221C2.05229 9.53525 2.46526 8.82056 3.05522 8.26843C3.80174 7.56889 4.95368 7.26049 7.25654 6.64265C7.69158 6.52623 8.08679 6.42002 8.44626 6.32709L8.19708 7.25232L7.66911 9.22532C7.05127 11.5282 6.74286 12.6791 6.97468 13.6758C7.15841 14.4627 7.57138 15.1774 8.16134 15.7295C8.90786 16.429 10.0598 16.7374 12.3627 17.3553C14.4378 17.9108 15.5785 18.2162 16.5129 18.1008Z" fill="#637381"/>
<path opacity="0.92" fill-rule="evenodd" clip-rule="evenodd" d="M21.0213 10.6878L20.4923 12.6608C19.8745 14.9637 19.5661 16.1156 18.8666 16.8621C18.3146 17.4515 17.6003 17.8641 16.8139 18.0478C16.7149 18.0712 16.6148 18.0886 16.5127 18.1009C15.5783 18.2163 14.4376 17.9109 12.3625 17.3554C10.0596 16.7375 8.90769 16.4291 8.16118 15.7296C7.5716 15.1773 7.159 14.4626 6.97555 13.6759C6.74272 12.6792 7.05112 11.5283 7.66896 9.2254L8.19693 7.2524L8.4461 6.32819C8.91076 4.62684 9.22325 3.69037 9.8227 3.05007C10.3748 2.46102 11.0891 2.0488 11.8753 1.86545C12.872 1.63261 14.024 1.94102 16.3278 2.55886C18.6296 3.17568 19.7816 3.48409 20.5281 4.1826C21.1178 4.73514 21.5305 5.4502 21.7137 6.2373C21.9466 7.23402 21.6381 8.38494 21.0213 10.6878ZM11.0359 9.75848C11.062 9.66131 11.1069 9.57022 11.1682 9.49043C11.2295 9.41063 11.3059 9.34369 11.393 9.29343C11.4802 9.24317 11.5764 9.21057 11.6761 9.19749C11.7759 9.18442 11.8772 9.19113 11.9744 9.21723L16.9069 10.5397C17.0066 10.5634 17.1006 10.6068 17.1832 10.6674C17.2658 10.728 17.3355 10.8046 17.388 10.8927C17.4405 10.9807 17.4748 11.0783 17.4888 11.1799C17.5029 11.2814 17.4964 11.3847 17.4698 11.4837C17.4432 11.5827 17.3971 11.6753 17.334 11.7561C17.271 11.8369 17.1923 11.9043 17.1028 11.9541C17.0133 12.004 16.9146 12.0354 16.8127 12.0464C16.7108 12.0575 16.6078 12.048 16.5096 12.0184L11.5771 10.697C11.3811 10.6443 11.214 10.516 11.1125 10.3402C11.0111 10.1645 10.9835 9.95457 11.0359 9.75848ZM10.2434 12.718C10.2961 12.522 10.4244 12.3549 10.6002 12.2534C10.776 12.1519 10.9848 12.1243 11.1809 12.1767L14.1404 12.9702C14.2406 12.9934 14.3351 13.0364 14.4183 13.0969C14.5015 13.1573 14.5717 13.2339 14.6247 13.322C14.6776 13.4102 14.7123 13.5081 14.7266 13.6099C14.7409 13.7118 14.7346 13.8154 14.708 13.9148C14.6813 14.0141 14.635 14.1071 14.5717 14.1881C14.5084 14.2691 14.4294 14.3366 14.3394 14.3864C14.2495 14.4363 14.1504 14.4675 14.0482 14.4783C13.9459 14.489 13.8425 14.479 13.7442 14.449L10.7847 13.6565C10.6875 13.6304 10.5964 13.5855 10.5166 13.5242C10.4368 13.4629 10.3699 13.3865 10.3196 13.2994C10.2694 13.2122 10.2368 13.116 10.2237 13.0163C10.2106 12.9165 10.2173 12.8151 10.2434 12.718Z" fill="#637381"/>
</svg>
