<svg width="24" height="24" viewBox="0 0 24 24" fill="none" xmlns="http://www.w3.org/2000/svg">
<path opacity="0.92" d="M11.9999 5.91917C13.0473 5.91917 13.8963 5.07012 13.8963 4.02276C13.8963 2.9754 13.0473 2.12634 11.9999 2.12634C10.9526 2.12634 10.1035 2.9754 10.1035 4.02276C10.1035 5.07012 10.9526 5.91917 11.9999 5.91917Z" fill="#637381"/>
<path opacity="0.92" d="M8.29736 11.1723C8.29736 11.1206 8.29736 11.0948 8.29763 11.0729C8.32135 9.09296 9.92066 7.49365 11.9006 7.46993C11.9225 7.46967 11.9483 7.46967 12 7.46967C12.0516 7.46967 12.0775 7.46967 12.0993 7.46993C14.0793 7.49365 15.6786 9.09296 15.7023 11.0729C15.7026 11.0948 15.7026 11.1206 15.7026 11.1723V12.1785C15.7026 12.4492 15.7026 12.5845 15.6766 12.6964C15.5902 13.0675 15.3004 13.3573 14.9293 13.4436C14.8174 13.4697 14.6821 13.4697 14.4114 13.4697H9.58853C9.31786 13.4697 9.18252 13.4697 9.07067 13.4436C8.69955 13.3573 8.40977 13.0675 8.3234 12.6964C8.29736 12.5845 8.29736 12.4492 8.29736 12.1785V11.1723Z" fill="#637381"/>
<path opacity="0.4" d="M18.0831 14.2838V11.4424C18.0831 10.395 18.9322 9.54596 19.9796 9.54596C21.0269 9.54596 21.876 10.395 21.876 11.4424V15.4659C21.876 17.0042 20.629 18.2512 19.0907 18.2512H17.4819C17.0867 18.2512 16.7593 18.5578 16.7335 18.9522L16.6003 20.9865C16.5677 21.485 16.1538 21.8727 15.6541 21.8727H15.4166C14.8929 21.8727 14.4683 21.4482 14.4683 20.9245V16.8466C14.4683 16.4306 14.7394 16.0632 15.1369 15.9405L17.369 15.2516C17.7936 15.1205 18.0831 14.7281 18.0831 14.2838Z" fill="#637381"/>
<path opacity="0.4" d="M19.9799 7.76768C21.0273 7.76768 21.8763 6.91863 21.8763 5.87127C21.8763 4.82391 21.0273 3.97485 19.9799 3.97485C18.9326 3.97485 18.0835 4.82391 18.0835 5.87127C18.0835 6.91863 18.9326 7.76768 19.9799 7.76768Z" fill="#637381"/>
<path opacity="0.4" d="M5.9193 14.284V11.4424C5.9193 10.395 5.07024 9.54596 4.02288 9.54596C2.97552 9.54596 2.12646 10.395 2.12646 11.4424V15.4659C2.12646 17.0042 3.37347 18.2512 4.91172 18.2512H6.51586C6.91105 18.2512 7.23844 18.5578 7.26426 18.9522L7.39741 20.9865C7.43005 21.485 7.84396 21.8727 8.34359 21.8727H8.58348C9.10716 21.8727 9.53169 21.4482 9.53169 20.9245V16.8464C9.53169 16.4305 9.26067 16.0632 8.8633 15.9405L6.63323 15.2517C6.20878 15.1206 5.9193 14.7282 5.9193 14.284Z" fill="#637381"/>
<path opacity="0.4" d="M4.02288 7.76768C5.07024 7.76768 5.9193 6.91863 5.9193 5.87127C5.9193 4.82391 5.07024 3.97485 4.02288 3.97485C2.97552 3.97485 2.12646 4.82391 2.12646 5.87127C2.12646 6.91863 2.97552 7.76768 4.02288 7.76768Z" fill="#637381"/>
</svg>
