<svg width="40" height="40" viewBox="0 0 40 40" fill="none" xmlns="http://www.w3.org/2000/svg">
<path d="M36.9348 34.5217H3.06522C1.92439 34.5217 1 33.5973 1 32.4565V6.84781C1 5.70698 1.92439 4.78259 3.06522 4.78259H12.6453C13.9002 4.78259 15.0864 5.35259 15.8704 6.33316L16.7939 7.48722C17.515 8.38843 18.6067 8.91303 19.7609 8.91303H36.9348C38.0756 8.91303 39 9.83742 39 10.9782V32.4565C39 33.5973 38.0756 34.5217 36.9348 34.5217Z" fill="url(#paint0_linear_2977_59306)"/>
<path d="M1.82617 21.3044H18.3479V9.73914H3.47835C2.56552 9.73914 1.82617 10.4785 1.82617 11.3913V21.3044Z" fill="url(#paint1_linear_2977_59306)"/>
<path d="M1.82617 22.1304H18.3479V10.5652H3.47835C2.56552 10.5652 1.82617 11.3045 1.82617 12.2174V22.1304Z" fill="url(#paint2_linear_2977_59306)"/>
<path d="M1 31.9402V32.4565C1 33.5973 1.92439 34.5217 3.06522 34.5217H36.9348C38.0756 34.5217 39 33.5973 39 32.4565V31.9402H1Z" fill="url(#paint3_linear_2977_59306)"/>
<path d="M36.9348 9.73914H17.9348L16.9129 10.4198C15.9637 11.0534 14.8477 11.3913 13.706 11.3913H3.06522C1.92439 11.3913 1 12.3157 1 13.4565V31.6304C1 32.7713 1.92439 33.6957 3.06522 33.6957H36.9348C38.0756 33.6957 39 32.7713 39 31.6304V11.8044C39 10.6635 38.0756 9.73914 36.9348 9.73914Z" fill="url(#paint4_linear_2977_59306)"/>
<path d="M36.9348 33.6956H3.06522C1.92439 33.6956 1 32.7712 1 31.6304V14.2826C1 13.1418 1.92439 12.2174 3.06522 12.2174H14.0158C15.1575 12.2174 16.2735 11.8795 17.2235 11.2459L18.2446 10.5652H36.9348C38.0756 10.5652 39 11.4896 39 12.6304V31.6304C39 32.7712 38.0756 33.6956 36.9348 33.6956Z" fill="url(#paint5_radial_2977_59306)"/>
<defs>
<linearGradient id="paint0_linear_2977_59306" x1="-5.62357" y1="8.34138" x2="32.711" y2="28.3533" gradientUnits="userSpaceOnUse">
<stop stop-color="#FAC017"/>
<stop offset="0.909" stop-color="#E1AB2D"/>
</linearGradient>
<linearGradient id="paint1_linear_2977_59306" x1="5.00743" y1="8.29679" x2="15.54" y2="23.2787" gradientUnits="userSpaceOnUse">
<stop stop-color="#FBFEF3"/>
<stop offset="0.909" stop-color="#E2E4E3"/>
</linearGradient>
<linearGradient id="paint2_linear_2977_59306" x1="1.82617" y1="16.3478" x2="18.3479" y2="16.3478" gradientUnits="userSpaceOnUse">
<stop stop-color="#FBFEF3"/>
<stop offset="0.909" stop-color="#E2E4E3"/>
</linearGradient>
<linearGradient id="paint3_linear_2977_59306" x1="14.1059" y1="33.1066" x2="37.3189" y2="33.5238" gradientUnits="userSpaceOnUse">
<stop stop-color="#E3A917"/>
<stop offset="0.464" stop-color="#D79C1E"/>
</linearGradient>
<linearGradient id="paint4_linear_2977_59306" x1="-3.85657" y1="11.1964" x2="29.8866" y2="26.0775" gradientUnits="userSpaceOnUse">
<stop offset="0.34" stop-color="#FFEFB2"/>
<stop offset="0.485" stop-color="#FFEDAD"/>
<stop offset="0.652" stop-color="#FFE99F"/>
<stop offset="0.828" stop-color="#FEE289"/>
<stop offset="1" stop-color="#FED86B"/>
</linearGradient>
<radialGradient id="paint5_radial_2977_59306" cx="0" cy="0" r="1" gradientUnits="userSpaceOnUse" gradientTransform="translate(31.4297 41.3923) scale(44.5054)">
<stop offset="0.199" stop-color="#FEC832"/>
<stop offset="0.601" stop-color="#FCD667"/>
<stop offset="0.68" stop-color="#FDDA75"/>
<stop offset="0.886" stop-color="#FEE496"/>
<stop offset="1" stop-color="#FFE8A2"/>
</radialGradient>
</defs>
</svg>
