<svg width="40" height="40" viewBox="0 0 40 40" fill="none" xmlns="http://www.w3.org/2000/svg">
<g clip-path="url(#clip0_2518_137683)">
<path d="M23.172 0C23.7022 0 24.2107 0.210507 24.5857 0.585255L36.4137 12.4044C36.7891 12.7795 37 13.2884 37 13.8191V35.3333C37 37.9107 34.8689 40 32.24 40H7.76C5.13112 40 3 37.9107 3 35.3333V4.66667C3 2.08934 5.13112 0 7.76 0H23.172Z" fill="#256CA6"/>
<g filter="url(#filter0_d_2518_137683)">
<path d="M35.1548 12.1381C35.4678 12.4537 35.2443 12.9902 34.7998 12.9902H29C26.4227 12.9902 24.0976 10.7233 24.0976 8.21031V2.20435C24.0976 1.75791 24.6382 1.53528 24.9526 1.85224L35.1548 12.1381Z" fill="white" fill-opacity="0.24" shape-rendering="crispEdges"/>
</g>
<mask id="path-3-inside-1_2518_137683" fill="white">
<path fill-rule="evenodd" clip-rule="evenodd" d="M13.4617 15.0404C13.2361 15.037 13.0111 15.0618 12.7917 15.1144V15.1524H12.8287C12.9587 15.4194 13.1887 15.5924 13.3497 15.8224L13.7217 16.6034L13.7597 16.5664C13.9897 16.4044 14.0957 16.1444 14.0947 15.7474C14.0017 15.6504 13.9877 15.5284 13.9077 15.4124C13.8017 15.2584 13.5957 15.1704 13.4617 15.0404ZM31.4787 34.1374C31.6537 34.2664 31.7717 34.4664 31.9997 34.5474V34.5094C31.8797 34.3574 31.8497 34.1474 31.7397 33.9884C31.5777 33.8284 31.4164 33.667 31.2557 33.5044C30.7692 32.8763 30.1919 32.3243 29.5427 31.8664C29.0347 31.5014 27.8937 31.0074 27.6817 30.4154L27.6437 30.3774C28.0047 30.3374 28.4277 30.2064 28.7607 30.1174C29.3207 29.9674 29.8207 30.0054 30.3987 29.8574L31.1807 29.6334V29.4834C30.8887 29.1834 30.6807 28.7874 30.3617 28.5164C29.5277 27.8064 28.6187 27.0964 27.6817 26.5064C27.1617 26.1774 26.5197 25.9654 25.9687 25.6864C25.7837 25.5934 25.4587 25.5444 25.3367 25.3894C25.0467 25.0194 24.8897 24.5524 24.6667 24.1234C24.1997 23.2234 23.7397 22.2404 23.3267 21.2934C23.0437 20.6484 22.8597 20.0124 22.5067 19.4334C20.8167 16.6534 18.9967 14.9764 16.1787 13.3274C15.5787 12.9774 14.8567 12.8384 14.0947 12.6574L12.8657 12.5834C12.6157 12.4784 12.3557 12.1734 12.1217 12.0244C11.1877 11.4344 8.7917 10.1514 8.1017 11.8384C7.6647 12.9034 8.7537 13.9424 9.1437 14.4814C9.4167 14.8604 9.7667 15.2844 9.9627 15.7104C10.0907 15.9904 10.1127 16.2704 10.2227 16.5664C10.4937 17.2964 10.7287 18.0884 11.0787 18.7624C11.2567 19.1034 11.4517 19.4624 11.6747 19.7674C11.8127 19.9544 12.0467 20.0374 12.0837 20.3264C11.8537 20.6474 11.8417 21.1464 11.7127 21.5544C11.1307 23.3894 11.3497 25.6694 12.1967 27.0274C12.4557 27.4434 13.0667 28.3374 13.9077 27.9944C14.6437 27.6944 14.4797 26.7664 14.6897 25.9474C14.7367 25.7614 14.7087 25.6244 14.8017 25.5004V25.5374L15.4717 26.8774C15.9677 27.6764 16.8477 28.5114 17.5937 29.0744C17.9797 29.3664 18.2837 29.8714 18.7847 30.0424V30.0044H18.7477C18.6497 29.8544 18.4977 29.7914 18.3757 29.6694C18.0661 29.3687 17.7797 29.0451 17.5187 28.7014C16.8407 27.7814 16.2417 26.7734 15.6957 25.7244C15.4347 25.2224 15.2077 24.6704 14.9877 24.1604C14.9027 23.9634 14.9037 23.6664 14.7277 23.5644C14.4867 23.9384 14.1317 24.2404 13.9457 24.6814C13.6477 25.3864 13.6087 26.2464 13.4987 27.1384C13.4337 27.1614 13.4627 27.1454 13.4237 27.1754C12.9057 27.0504 12.7237 26.5164 12.5307 26.0584C12.0437 24.9014 11.9527 23.0364 12.3817 21.7034C12.4927 21.3584 12.9947 20.2724 12.7917 19.9534C12.6937 19.6354 12.3747 19.4524 12.1957 19.2094C11.9626 18.8825 11.763 18.5331 11.5997 18.1664C11.2017 17.2644 11.0147 16.2504 10.5947 15.3374C10.3947 14.9014 10.0547 14.4604 9.7757 14.0724C9.4677 13.6424 9.1217 13.3264 8.8827 12.8064C8.7977 12.6214 8.6817 12.3264 8.8077 12.1364C8.8477 12.0084 8.9047 11.9544 9.0317 11.9134C9.2477 11.7464 9.8487 11.9684 10.0737 12.0614C10.6707 12.3094 11.1687 12.5454 11.6737 12.8814C11.9167 13.0414 12.1627 13.3534 12.4557 13.4394H12.7907C13.3157 13.5594 13.9027 13.4764 14.3917 13.6254C15.2567 13.8884 16.0317 14.2974 16.7367 14.7424C18.8827 16.0974 20.6367 18.0254 21.8367 20.3264C22.0297 20.6964 22.1137 21.0504 22.2837 21.4434C22.6267 22.2354 23.0587 23.0504 23.3997 23.8254C23.7397 24.5984 24.0727 25.3784 24.5537 26.0214C24.8067 26.3594 25.7847 26.5414 26.2297 26.7294C26.5407 26.8604 27.0507 26.9984 27.3457 27.1754C27.9097 27.5154 28.4557 27.9204 28.9837 28.2924C29.2477 28.4794 30.0607 28.8874 30.1007 29.2224C28.7907 29.1884 27.7907 29.3094 26.9367 29.6704C26.6937 29.7724 26.3067 29.7754 26.2667 30.0794C26.3997 30.2194 26.4207 30.4294 26.5267 30.6004C26.7307 30.9304 27.0757 31.3734 27.3827 31.6054C27.7197 31.8594 28.0657 32.1304 28.4257 32.3504C29.0657 32.7404 29.7817 32.9644 30.3977 33.3554C30.7627 33.5864 31.1247 33.8764 31.4787 34.1374Z"/>
</mask>
<path fill-rule="evenodd" clip-rule="evenodd" d="M13.4617 15.0404C13.2361 15.037 13.0111 15.0618 12.7917 15.1144V15.1524H12.8287C12.9587 15.4194 13.1887 15.5924 13.3497 15.8224L13.7217 16.6034L13.7597 16.5664C13.9897 16.4044 14.0957 16.1444 14.0947 15.7474C14.0017 15.6504 13.9877 15.5284 13.9077 15.4124C13.8017 15.2584 13.5957 15.1704 13.4617 15.0404ZM31.4787 34.1374C31.6537 34.2664 31.7717 34.4664 31.9997 34.5474V34.5094C31.8797 34.3574 31.8497 34.1474 31.7397 33.9884C31.5777 33.8284 31.4164 33.667 31.2557 33.5044C30.7692 32.8763 30.1919 32.3243 29.5427 31.8664C29.0347 31.5014 27.8937 31.0074 27.6817 30.4154L27.6437 30.3774C28.0047 30.3374 28.4277 30.2064 28.7607 30.1174C29.3207 29.9674 29.8207 30.0054 30.3987 29.8574L31.1807 29.6334V29.4834C30.8887 29.1834 30.6807 28.7874 30.3617 28.5164C29.5277 27.8064 28.6187 27.0964 27.6817 26.5064C27.1617 26.1774 26.5197 25.9654 25.9687 25.6864C25.7837 25.5934 25.4587 25.5444 25.3367 25.3894C25.0467 25.0194 24.8897 24.5524 24.6667 24.1234C24.1997 23.2234 23.7397 22.2404 23.3267 21.2934C23.0437 20.6484 22.8597 20.0124 22.5067 19.4334C20.8167 16.6534 18.9967 14.9764 16.1787 13.3274C15.5787 12.9774 14.8567 12.8384 14.0947 12.6574L12.8657 12.5834C12.6157 12.4784 12.3557 12.1734 12.1217 12.0244C11.1877 11.4344 8.7917 10.1514 8.1017 11.8384C7.6647 12.9034 8.7537 13.9424 9.1437 14.4814C9.4167 14.8604 9.7667 15.2844 9.9627 15.7104C10.0907 15.9904 10.1127 16.2704 10.2227 16.5664C10.4937 17.2964 10.7287 18.0884 11.0787 18.7624C11.2567 19.1034 11.4517 19.4624 11.6747 19.7674C11.8127 19.9544 12.0467 20.0374 12.0837 20.3264C11.8537 20.6474 11.8417 21.1464 11.7127 21.5544C11.1307 23.3894 11.3497 25.6694 12.1967 27.0274C12.4557 27.4434 13.0667 28.3374 13.9077 27.9944C14.6437 27.6944 14.4797 26.7664 14.6897 25.9474C14.7367 25.7614 14.7087 25.6244 14.8017 25.5004V25.5374L15.4717 26.8774C15.9677 27.6764 16.8477 28.5114 17.5937 29.0744C17.9797 29.3664 18.2837 29.8714 18.7847 30.0424V30.0044H18.7477C18.6497 29.8544 18.4977 29.7914 18.3757 29.6694C18.0661 29.3687 17.7797 29.0451 17.5187 28.7014C16.8407 27.7814 16.2417 26.7734 15.6957 25.7244C15.4347 25.2224 15.2077 24.6704 14.9877 24.1604C14.9027 23.9634 14.9037 23.6664 14.7277 23.5644C14.4867 23.9384 14.1317 24.2404 13.9457 24.6814C13.6477 25.3864 13.6087 26.2464 13.4987 27.1384C13.4337 27.1614 13.4627 27.1454 13.4237 27.1754C12.9057 27.0504 12.7237 26.5164 12.5307 26.0584C12.0437 24.9014 11.9527 23.0364 12.3817 21.7034C12.4927 21.3584 12.9947 20.2724 12.7917 19.9534C12.6937 19.6354 12.3747 19.4524 12.1957 19.2094C11.9626 18.8825 11.763 18.5331 11.5997 18.1664C11.2017 17.2644 11.0147 16.2504 10.5947 15.3374C10.3947 14.9014 10.0547 14.4604 9.7757 14.0724C9.4677 13.6424 9.1217 13.3264 8.8827 12.8064C8.7977 12.6214 8.6817 12.3264 8.8077 12.1364C8.8477 12.0084 8.9047 11.9544 9.0317 11.9134C9.2477 11.7464 9.8487 11.9684 10.0737 12.0614C10.6707 12.3094 11.1687 12.5454 11.6737 12.8814C11.9167 13.0414 12.1627 13.3534 12.4557 13.4394H12.7907C13.3157 13.5594 13.9027 13.4764 14.3917 13.6254C15.2567 13.8884 16.0317 14.2974 16.7367 14.7424C18.8827 16.0974 20.6367 18.0254 21.8367 20.3264C22.0297 20.6964 22.1137 21.0504 22.2837 21.4434C22.6267 22.2354 23.0587 23.0504 23.3997 23.8254C23.7397 24.5984 24.0727 25.3784 24.5537 26.0214C24.8067 26.3594 25.7847 26.5414 26.2297 26.7294C26.5407 26.8604 27.0507 26.9984 27.3457 27.1754C27.9097 27.5154 28.4557 27.9204 28.9837 28.2924C29.2477 28.4794 30.0607 28.8874 30.1007 29.2224C28.7907 29.1884 27.7907 29.3094 26.9367 29.6704C26.6937 29.7724 26.3067 29.7754 26.2667 30.0794C26.3997 30.2194 26.4207 30.4294 26.5267 30.6004C26.7307 30.9304 27.0757 31.3734 27.3827 31.6054C27.7197 31.8594 28.0657 32.1304 28.4257 32.3504C29.0657 32.7404 29.7817 32.9644 30.3977 33.3554C30.7627 33.5864 31.1247 33.8764 31.4787 34.1374Z" fill="white"/>
<path d="M13.4617 15.0404L20.4248 7.86299L17.5785 5.10161L13.6132 5.04152L13.4617 15.0404ZM12.7917 15.1144L10.4617 5.3896L2.7917 7.22726V15.1144H12.7917ZM12.7917 15.1524H2.7917V25.1524H12.7917V15.1524ZM12.8287 15.1524L21.8196 10.7748L19.0821 5.15237H12.8287V15.1524ZM13.3497 15.8224L22.3779 11.5221L22.0197 10.7701L21.542 10.0878L13.3497 15.8224ZM13.7217 16.6034L4.69352 20.9036L10.6964 33.5064L20.6979 23.7681L13.7217 16.6034ZM13.7597 16.5664L8.00124 8.39079L7.35226 8.8479L6.78352 9.40167L13.7597 16.5664ZM14.0947 15.7474L24.0947 15.7222L24.0846 11.7175L21.313 8.8267L14.0947 15.7474ZM13.9077 15.4124L5.6704 21.0822L5.67557 21.0897L13.9077 15.4124ZM31.4787 34.1374L25.5444 42.1862L25.5451 42.1868L31.4787 34.1374ZM31.9997 34.5474L28.652 43.9704L41.9997 48.7123V34.5474H31.9997ZM31.9997 34.5094H41.9997V31.0378L39.8485 28.3129L31.9997 34.5094ZM31.7397 33.9884L39.9635 28.299L39.4317 27.5303L38.7667 26.8735L31.7397 33.9884ZM31.2557 33.5044L23.3502 39.6284L23.7185 40.1038L24.141 40.5316L31.2557 33.5044ZM29.5427 31.8664L23.7077 39.9875L23.743 40.0128L23.7785 40.0379L29.5427 31.8664ZM27.6817 30.4154L37.0962 27.044L36.3396 24.9312L34.7528 23.3443L27.6817 30.4154ZM27.6437 30.3774L26.5424 20.4382L5.85466 22.7305L20.5726 37.4484L27.6437 30.3774ZM28.7607 30.1174L31.3427 39.7783L31.3481 39.7769L28.7607 30.1174ZM30.3987 29.8574L32.8792 39.5448L33.0163 39.5097L33.1524 39.4708L30.3987 29.8574ZM31.1807 29.6334L33.9344 39.2468L41.1807 37.1711V29.6334H31.1807ZM31.1807 29.4834H41.1807V25.4202L38.3467 22.5085L31.1807 29.4834ZM30.3617 28.5164L23.8794 36.1308L23.8873 36.1375L30.3617 28.5164ZM27.6817 26.5064L22.335 34.957L22.3442 34.9628L22.3533 34.9686L27.6817 26.5064ZM25.9687 25.6864L30.4861 16.7649L30.4731 16.7583L30.4601 16.7518L25.9687 25.6864ZM25.3367 25.3894L17.4661 31.5582L17.4725 31.5663L17.4788 31.5743L25.3367 25.3894ZM24.6667 24.1234L15.7905 28.7291L15.7939 28.7356L24.6667 24.1234ZM23.3267 21.2934L32.4929 17.2959L32.4885 17.2857L32.484 17.2755L23.3267 21.2934ZM22.5067 19.4334L13.9617 24.628L13.9684 24.6389L22.5067 19.4334ZM16.1787 13.3274L21.2292 4.69647L21.2174 4.68958L16.1787 13.3274ZM14.0947 12.6574L16.4057 2.92808L15.5617 2.72759L14.6957 2.67545L14.0947 12.6574ZM12.8657 12.5834L8.99337 21.8032L10.5641 22.4629L12.2647 22.5653L12.8657 12.5834ZM12.1217 12.0244L17.4928 3.58924L17.4776 3.57955L17.4623 3.56991L12.1217 12.0244ZM8.1017 11.8384L17.3532 15.6345L17.3574 15.6241L8.1017 11.8384ZM9.1437 14.4814L17.2578 8.63663L17.2516 8.62798L17.2453 8.61934L9.1437 14.4814ZM9.9627 15.7104L19.0574 11.5528L19.0524 11.5417L19.0473 11.5306L9.9627 15.7104ZM10.2227 16.5664L19.5975 13.0861L19.5964 13.0829L10.2227 16.5664ZM11.0787 18.7624L2.20394 23.3709L2.20885 23.3804L2.21378 23.3898L11.0787 18.7624ZM11.6747 19.7674L3.60224 25.6695L3.61531 25.6874L3.62847 25.7052L11.6747 19.7674ZM12.0837 20.3264L20.2125 26.1507L22.5019 22.9555L22.0027 19.0565L12.0837 20.3264ZM11.7127 21.5544L21.2448 24.5776L21.2475 24.569L11.7127 21.5544ZM12.1967 27.0274L20.6858 21.7421L20.6816 21.7352L12.1967 27.0274ZM13.9077 27.9944L10.1331 18.7341L10.1312 18.7349L13.9077 27.9944ZM14.6897 25.9474L24.3763 28.4311L24.3807 28.4142L24.385 28.3973L14.6897 25.9474ZM14.8017 25.5004H24.8017V-4.49963L6.8017 19.5004L14.8017 25.5004ZM14.8017 25.5374H4.8017V27.8981L5.85743 30.0095L14.8017 25.5374ZM15.4717 26.8774L6.52743 31.3495L6.73308 31.7608L6.97562 32.1515L15.4717 26.8774ZM17.5937 29.0744L23.6267 21.0992L23.6176 21.0924L17.5937 29.0744ZM18.7847 30.0424L15.5545 39.5063L28.7847 44.022V30.0424H18.7847ZM18.7847 30.0044H28.7847V20.0044H18.7847V30.0044ZM18.7477 30.0044L10.376 35.4739L13.336 40.0044H18.7477V30.0044ZM18.3757 29.6694L25.4468 22.5983L25.3955 22.5471L25.3436 22.4966L18.3757 29.6694ZM17.5187 28.7014L9.46858 34.634L9.51104 34.6916L9.55432 34.7486L17.5187 28.7014ZM15.6957 25.7244L6.82324 30.3373L6.82533 30.3414L15.6957 25.7244ZM14.9877 24.1604L24.1698 20.1995L24.1695 20.1987L14.9877 24.1604ZM14.7277 23.5644L19.7419 14.9124L11.4887 10.1293L6.32176 18.1477L14.7277 23.5644ZM13.9457 24.6814L23.1566 28.5748L23.1597 28.5675L13.9457 24.6814ZM13.4987 27.1384L16.8345 36.5656L22.6664 34.502L23.4235 28.3623L13.4987 27.1384ZM13.4237 27.1754L11.0779 36.8963L15.7287 38.0186L19.5208 35.1016L13.4237 27.1754ZM12.5307 26.0584L3.31389 29.9379L3.31548 29.9416L12.5307 26.0584ZM12.3817 21.7034L21.9009 24.7669L21.9011 24.7661L12.3817 21.7034ZM12.7917 19.9534L3.23521 22.8985L3.63191 24.1857L4.35508 25.3221L12.7917 19.9534ZM12.1957 19.2094L4.05355 25.015L4.09844 25.078L4.14431 25.1402L12.1957 19.2094ZM11.5997 18.1664L2.45074 22.2033L2.45745 22.2185L2.46421 22.2337L11.5997 18.1664ZM10.5947 15.3374L1.50536 19.5068L1.50987 19.5166L10.5947 15.3374ZM9.7757 14.0724L1.64603 19.8955L1.6514 19.903L1.65678 19.9105L9.7757 14.0724ZM8.8827 12.8064L-0.204071 16.9814L-0.203534 16.9825L8.8827 12.8064ZM8.8077 12.1364L17.1417 17.6631L17.9281 16.4773L18.3525 15.1191L8.8077 12.1364ZM9.0317 11.9134L12.1039 21.4298L13.7663 20.8931L15.1483 19.8246L9.0317 11.9134ZM10.0737 12.0614L13.91 2.82649L13.9018 2.82309L13.8936 2.8197L10.0737 12.0614ZM11.6737 12.8814L6.13431 21.2069L6.15431 21.2203L6.17438 21.2335L11.6737 12.8814ZM12.4557 13.4394L9.63935 23.0346L11.0184 23.4394H12.4557V13.4394ZM12.7907 13.4394L15.0189 3.69079L13.919 3.43937H12.7907V13.4394ZM14.3917 13.6254L11.477 23.1912L11.4827 23.1929L14.3917 13.6254ZM16.7367 14.7424L22.0756 6.28683L22.0744 6.28606L16.7367 14.7424ZM21.8367 20.3264L12.97 24.9505L12.9704 24.9512L21.8367 20.3264ZM22.2837 21.4434L13.1056 25.4135L13.1073 25.4175L22.2837 21.4434ZM23.3997 23.8254L32.5534 19.7992L32.5528 19.798L23.3997 23.8254ZM24.5537 26.0214L16.5462 32.0114L16.548 32.0138L24.5537 26.0214ZM26.2297 26.7294L22.338 35.941L22.3478 35.9452L26.2297 26.7294ZM27.3457 27.1754L32.5085 18.6112L32.4996 18.6058L32.4907 18.6004L27.3457 27.1754ZM28.9837 28.2924L34.7639 20.1321L34.7536 20.1248L34.7432 20.1175L28.9837 28.2924ZM30.1007 29.2224L29.8412 39.219L41.4012 39.519L40.0302 28.0368L30.1007 29.2224ZM26.9367 29.6704L30.8071 38.891L30.8187 38.8861L30.8303 38.8812L26.9367 29.6704ZM26.2667 30.0794L16.3522 28.7748L15.7295 33.5067L19.0167 36.9669L26.2667 30.0794ZM26.5267 30.6004L35.0326 25.3421L35.0262 25.3317L26.5267 30.6004ZM27.3827 31.6054L21.3536 39.5835L21.3638 39.5911L27.3827 31.6054ZM28.4257 32.3504L23.2112 40.8832L23.222 40.8898L28.4257 32.3504ZM30.3977 33.3554L25.0387 41.7982L25.0499 41.8053L30.3977 33.3554ZM13.6132 5.04152C12.5523 5.02544 11.4936 5.14238 10.4617 5.3896L15.1217 24.8392C14.5286 24.9813 13.92 25.0485 13.3102 25.0392L13.6132 5.04152ZM2.7917 15.1144V15.1524H22.7917V15.1144H2.7917ZM12.7917 25.1524H12.8287V5.15237H12.7917V25.1524ZM3.83778 19.53C4.52871 20.949 5.38333 21.8978 5.61081 22.1531C5.67112 22.2208 5.73463 22.2906 5.73931 22.2958C5.7596 22.3182 5.73515 22.2915 5.69937 22.2507C5.62953 22.171 5.41105 21.9194 5.15738 21.557L21.542 10.0878C21.2078 9.61036 20.9002 9.25088 20.7379 9.06575C20.6559 8.97221 20.5844 8.89337 20.5574 8.86363C20.5149 8.81667 20.531 8.83436 20.5443 8.84937C20.5774 8.88649 20.7632 9.09441 20.9865 9.39678C21.2213 9.7147 21.5286 10.177 21.8196 10.7748L3.83778 19.53ZM4.32152 20.1226L4.69352 20.9036L22.7499 12.3031L22.3779 11.5221L4.32152 20.1226ZM20.6979 23.7681L20.7359 23.7311L6.78352 9.40167L6.74552 9.43867L20.6979 23.7681ZM19.5182 24.742C23.4169 21.9959 24.1002 17.9249 24.0947 15.7222L4.09473 15.7726C4.09313 15.1396 4.16579 13.9085 4.75712 12.4617C5.41054 10.863 6.52436 9.43102 8.00124 8.39079L19.5182 24.742ZM21.313 8.8267C22.5581 10.1253 23.1053 11.4592 23.1501 11.561C23.1587 11.5806 23.1651 11.5955 23.1615 11.5872C23.161 11.5859 23.1493 11.559 23.1368 11.5304C23.1108 11.471 23.0533 11.3408 22.9766 11.1807C22.8187 10.8509 22.5489 10.3282 22.1398 9.73504L5.67557 21.0897C5.30649 20.5545 5.06844 20.0906 4.93853 19.8193C4.87584 19.6884 4.83149 19.5875 4.81822 19.5572C4.81204 19.5431 4.80666 19.5307 4.81235 19.5438C4.815 19.5499 4.82766 19.5791 4.84258 19.613C4.93757 19.829 5.53833 21.2725 6.87636 22.668L21.313 8.8267ZM22.145 9.74255C21.5206 8.83538 20.8685 8.19624 20.4164 7.79863C19.976 7.41133 19.5919 7.13935 19.4601 7.04631C19.4206 7.01847 19.3873 6.99532 19.3678 6.98173C19.3579 6.97489 19.3489 6.96863 19.344 6.96527C19.3379 6.96103 19.3364 6.95999 19.3353 6.95923C19.3262 6.95294 19.3799 6.98996 19.4525 7.04268C19.5813 7.13631 19.9713 7.42299 20.4248 7.86299L6.49857 22.2178C7.0191 22.7228 7.48512 23.0692 7.69356 23.2207C7.80589 23.3023 7.9003 23.3678 7.9322 23.39C7.99055 23.4305 7.95199 23.4037 7.93033 23.3884C7.87996 23.3529 7.57562 23.1399 7.20789 22.8165C6.82844 22.4828 6.24181 21.9124 5.6704 21.0822L22.145 9.74255ZM25.5451 42.1868C25.052 41.8232 24.7164 41.4974 24.63 41.4133C24.5894 41.3739 24.5487 41.333 24.5939 41.3781C24.6162 41.4004 24.7054 41.4897 24.8143 41.5937C25.2412 42.0012 26.5514 43.2241 28.652 43.9704L35.3473 25.1244C37.22 25.7896 38.3572 26.8721 38.6244 27.1271C38.6933 27.1929 38.7434 27.2433 38.7268 27.2268C38.7121 27.2121 38.7326 27.2325 38.7126 27.2126C38.7056 27.2056 38.6949 27.1949 38.6826 27.1826C38.6583 27.1585 38.62 27.1205 38.5738 27.0756C38.4088 26.9152 37.9929 26.516 37.4123 26.088L25.5451 42.1868ZM41.9997 34.5474V34.5094H21.9997V34.5474H41.9997ZM39.8485 28.3129C40.1177 28.6539 40.3334 28.9753 40.5041 29.2563C40.6739 29.5357 40.8037 29.7824 40.8982 29.9747C40.9921 30.1655 41.0601 30.3211 41.1001 30.4155C41.1206 30.4639 41.1364 30.5025 41.1461 30.5264C41.1511 30.5386 41.1549 30.5482 41.1574 30.5543C41.1586 30.5574 41.1596 30.5598 41.1602 30.5614C41.1608 30.563 41.1612 30.5639 41.1612 30.5639C41.1612 30.5639 41.161 30.5634 41.1604 30.5618C41.1597 30.5601 41.159 30.5584 41.1577 30.5552C41.1557 30.5499 41.1515 30.5395 41.147 30.5281C41.138 30.5055 41.1224 30.4662 41.1033 30.4192C41.084 30.3716 41.0584 30.3094 41.0278 30.2375C40.9972 30.1654 40.9598 30.0795 40.9163 29.9835C40.83 29.7934 40.7116 29.5464 40.5586 29.2655C40.4048 28.9832 40.209 28.6539 39.9635 28.299L23.5159 39.6778C23.088 39.0592 22.8295 38.5253 22.7034 38.2475C22.6383 38.1039 22.5927 37.9929 22.574 37.9468C22.5627 37.9189 22.543 37.8693 22.5707 37.9391C22.5903 37.9884 22.7359 38.3629 22.9496 38.7977C23.1771 39.2605 23.5575 39.9542 24.1509 40.7058L39.8485 28.3129ZM38.7667 26.8735C38.6343 26.7427 38.5021 26.6106 38.3704 26.4772L24.141 40.5316C24.3306 40.7235 24.5211 40.914 24.7127 41.1032L38.7667 26.8735ZM39.1612 27.3803C38.0665 25.9673 36.7675 24.7252 35.3069 23.6948L23.7785 40.0379C23.6162 39.9234 23.4719 39.7854 23.3502 39.6284L39.1612 27.3803ZM35.3777 23.7453C34.8132 23.3396 34.2382 23.0088 34.1375 22.9495C33.8793 22.7976 33.9023 22.81 33.9387 22.8335C33.9643 22.8501 34.3426 23.0896 34.8189 23.5349C35.0731 23.7724 35.4462 24.1522 35.8384 24.682C36.2295 25.2101 36.7216 25.9978 37.0962 27.044L18.2672 33.7868C19.0852 36.0711 20.4784 37.5072 21.162 38.1462C21.9278 38.8619 22.6628 39.3588 23.0637 39.6185C23.4753 39.8852 23.8921 40.1264 23.9973 40.1883C24.26 40.3429 24.0182 40.2106 23.7077 39.9875L35.3777 23.7453ZM34.7528 23.3443L34.7148 23.3063L20.5726 37.4484L20.6106 37.4864L34.7528 23.3443ZM28.745 40.3165C29.6076 40.221 30.3244 40.0469 30.6736 39.9582C30.8729 39.9076 31.0486 39.8594 31.1565 39.8296C31.2991 39.7903 31.3116 39.7866 31.3427 39.7783L26.1787 20.4565C26.099 20.4778 26.0264 20.4977 25.9724 20.5126C25.945 20.5201 25.9181 20.5276 25.8963 20.5336C25.873 20.5401 25.8544 20.5452 25.8364 20.5502C25.76 20.5713 25.745 20.575 25.7518 20.5733C25.7597 20.5713 25.8313 20.553 25.9456 20.53C26.0558 20.5077 26.2639 20.4691 26.5424 20.4382L28.745 40.3165ZM31.3481 39.7769C31.0242 39.8636 30.7678 39.9071 30.6295 39.9274C30.5207 39.9435 30.4479 39.9495 30.6057 39.9331C30.7022 39.9231 31.0324 39.8903 31.3944 39.8385C31.7874 39.7822 32.2968 39.694 32.8792 39.5448L27.9182 20.1699C28.4498 20.0338 28.8932 20.0034 28.5401 20.0401C28.3408 20.0608 27.3245 20.1495 26.1733 20.4579L31.3481 39.7769ZM33.1524 39.4708L33.9344 39.2468L28.427 20.02L27.645 20.244L33.1524 39.4708ZM41.1807 29.6334V29.4834H21.1807V29.6334H41.1807ZM38.3467 22.5085C38.6151 22.7843 38.7903 23.0053 38.842 23.0713C38.8565 23.0897 38.9245 23.179 38.7679 22.9712C38.6731 22.8453 38.4476 22.5468 38.1562 22.2089C37.8556 21.8603 37.4164 21.3882 36.8361 20.8952L23.8873 36.1375C23.4665 35.7801 23.173 35.459 23.0102 35.2703C22.9268 35.1736 22.8656 35.0974 22.8323 35.0551C22.8002 35.0144 22.7829 34.9911 22.7947 35.0068C22.8004 35.0144 22.808 35.0245 22.8243 35.0463C22.8379 35.0644 22.8614 35.0958 22.8856 35.128C22.9342 35.1926 23.0129 35.2968 23.1068 35.4164C23.202 35.5377 23.3261 35.6922 23.4739 35.865C23.6222 36.0385 23.8029 36.2406 24.0147 36.4582L38.3467 22.5085ZM36.844 20.9019C35.8137 20.0248 34.5027 18.984 33.0101 18.0442L22.3533 34.9686C22.7347 35.2087 23.2417 35.5879 23.8794 36.1308L36.844 20.9019ZM33.0284 18.0557C32.0881 17.4609 31.2082 17.0752 30.8505 16.9185C30.748 16.8735 30.6471 16.83 30.5821 16.8019C30.5073 16.7696 30.4642 16.7509 30.4283 16.7351C30.3524 16.7016 30.3936 16.718 30.4861 16.7649L21.4513 34.6079C21.8193 34.7942 22.1474 34.9417 22.3631 35.0368C22.4729 35.0852 22.5768 35.1301 22.6493 35.1614C22.7317 35.197 22.7785 35.2172 22.8231 35.2368C22.9129 35.2761 22.8914 35.2684 22.8233 35.2346C22.752 35.1992 22.5727 35.1074 22.335 34.957L33.0284 18.0557ZM30.4601 16.7518C29.7766 16.4081 29.1843 16.2085 29.063 16.1668C29.0124 16.1493 28.9693 16.1348 28.9441 16.1264C28.9314 16.1221 28.9194 16.1181 28.9128 16.1159C28.9047 16.1132 28.9018 16.1122 28.8997 16.1115C28.8855 16.1068 28.9453 16.1266 29.0291 16.1569C29.1545 16.2022 29.6635 16.3861 30.2881 16.7303C30.8806 17.0569 32.0912 17.8026 33.1946 19.2044L17.4788 31.5743C18.6432 33.0536 19.9401 33.8636 20.6337 34.2458C21.3593 34.6458 21.984 34.8768 22.229 34.9654C22.3727 35.0173 22.4932 35.0578 22.5395 35.0733C22.6208 35.1006 22.5751 35.0852 22.5551 35.0783C22.5506 35.0768 22.0683 34.9181 21.4773 34.621L30.4601 16.7518ZM33.2073 19.2206C33.4921 19.5839 33.6883 19.8995 33.8087 20.1087C33.9258 20.3122 33.9945 20.4567 34.0016 20.4717C34.0063 20.4816 34.0042 20.4773 33.987 20.4398C33.9782 20.4208 33.9694 20.4016 33.9554 20.3709C33.9427 20.3432 33.9258 20.3062 33.9077 20.267C33.8403 20.1207 33.7085 19.8361 33.5395 19.5111L15.7939 28.7356C15.7364 28.6251 15.7078 28.5598 15.7417 28.6333C15.744 28.6383 15.861 28.8955 15.9515 29.0853C16.152 29.5054 16.6377 30.5012 17.4661 31.5582L33.2073 19.2206ZM33.5429 19.5176C33.2019 18.8605 32.8381 18.0872 32.4929 17.2959L14.1605 25.2909C14.6413 26.3935 15.1975 27.5863 15.7905 28.7291L33.5429 19.5176ZM32.484 17.2755C32.4922 17.2942 32.4838 17.2764 32.4373 17.158C32.417 17.1062 32.3017 16.8086 32.2205 16.6068C32.0272 16.1263 31.6513 15.2223 31.045 14.2278L13.9684 24.6389C13.8345 24.4193 13.7468 24.2437 13.7003 24.1451C13.6565 24.0524 13.6408 24.0093 13.6654 24.0705C13.6772 24.0999 13.6932 24.1404 13.7202 24.2095C13.7404 24.2612 13.7848 24.3757 13.8203 24.4661C13.899 24.6665 14.0197 24.9701 14.1694 25.3112L32.484 17.2755ZM31.0516 14.2388C28.3992 9.87551 25.3017 7.07959 21.2292 4.69648L11.1282 21.9583C12.6917 22.8732 13.2342 23.4312 13.9617 24.628L31.0516 14.2388ZM21.2174 4.68958C19.9289 3.93798 18.7323 3.54081 17.9677 3.32038C17.313 3.13161 16.5044 2.95151 16.4057 2.92808L11.7837 22.3867C11.9072 22.416 12.0269 22.4438 12.1149 22.4642C12.2118 22.4867 12.2773 22.502 12.3366 22.5162C12.4581 22.5452 12.4677 22.5493 12.4272 22.5376C12.3821 22.5246 12.2317 22.4799 12.0181 22.3952C11.8005 22.3088 11.4945 22.172 11.14 21.9652L21.2174 4.68958ZM14.6957 2.67545L13.4667 2.60145L12.2647 22.5653L13.4937 22.6393L14.6957 2.67545ZM16.738 3.36355C17.2103 3.5619 17.592 3.76777 17.8731 3.93452C18.1558 4.10221 18.3799 4.25609 18.5362 4.36906C18.6935 4.48285 18.8135 4.57798 18.8849 4.63598C18.9562 4.69384 19.0041 4.73512 19.0105 4.74061C19.0147 4.74421 19.0145 4.74405 19.0041 4.735C18.9987 4.73035 18.9935 4.72579 18.9846 4.718C18.9766 4.71107 18.9658 4.70163 18.9542 4.69155C18.9122 4.65507 18.8235 4.57807 18.718 4.48981C18.6113 4.40056 18.4544 4.27199 18.2632 4.1266C18.0735 3.98236 17.8123 3.79268 17.4928 3.58924L6.75061 20.4595C6.26755 20.1519 5.94183 19.8773 5.88504 19.8298C5.84072 19.7927 5.81374 19.769 5.83388 19.7865C5.85351 19.8036 5.84309 19.7946 5.8774 19.8244C5.89822 19.8425 5.92932 19.8695 5.96488 19.9001C6.08155 20.0005 6.40246 20.2761 6.81759 20.5763C7.21611 20.8645 7.96679 21.372 8.99337 21.8032L16.738 3.36355ZM17.4623 3.56991C16.772 3.13385 14.7655 1.90521 12.252 1.32973C10.9844 1.03951 8.57792 0.671875 5.83836 1.54963C2.58278 2.59271 0.094836 4.99929 -1.15403 8.05269L17.3574 15.6241C16.4536 17.834 14.5239 19.7683 11.9408 20.5959C9.87372 21.2582 8.25395 20.9319 7.78836 20.8253C7.2035 20.6914 6.8726 20.526 6.85229 20.5162C6.81276 20.4972 6.79313 20.486 6.7912 20.4849C6.78823 20.4832 6.78639 20.4822 6.78109 20.4788L17.4623 3.56991ZM-1.14975 8.04224C-3.10917 12.8175 -1.2244 16.8423 -0.342388 18.3663C0.149107 19.2155 0.654515 19.8691 0.910752 20.1931C1.42324 20.8413 1.09286 20.4136 1.04206 20.3434L17.2453 8.61934C17.0269 8.31746 16.8194 8.0613 16.7504 7.97581C16.6281 7.82424 16.6331 7.83143 16.599 7.78841C16.5551 7.73279 16.7424 7.959 16.9675 8.34797C17.3168 8.95143 18.8756 11.9243 17.3531 15.6345L-1.14975 8.04224ZM1.02957 20.3261C1.0999 20.4238 1.16429 20.5112 1.21429 20.5787C1.2605 20.641 1.31274 20.711 1.33956 20.747C1.4115 20.8436 1.42211 20.8588 1.41746 20.8523C1.41013 20.8419 1.34829 20.7545 1.26195 20.6135C1.17676 20.4744 1.03318 20.2272 0.878117 19.8901L19.0473 11.5306C18.5672 10.4873 18.0185 9.68865 17.7467 9.30424C17.5959 9.09104 17.4556 8.90259 17.379 8.79976C17.3315 8.73607 17.3101 8.70742 17.2842 8.67239C17.262 8.64249 17.2557 8.63374 17.2578 8.63663L1.02957 20.3261ZM0.867953 19.868C0.682094 19.4614 0.562841 19.1156 0.490425 18.8821C0.454701 18.7669 0.429262 18.6752 0.414257 18.6193C0.399909 18.5658 0.391505 18.5315 0.394015 18.5416C0.395351 18.547 0.396905 18.5533 0.402171 18.5747C0.406441 18.5921 0.413914 18.6225 0.422178 18.6557C0.43873 18.7221 0.465844 18.8297 0.500174 18.9567C0.569464 19.2131 0.681163 19.5981 0.849035 20.0498L19.5964 13.0829C19.7092 13.3866 19.7769 13.6257 19.8072 13.7375C19.8235 13.7981 19.8511 13.9094 19.8049 13.7231C19.7565 13.5281 19.5382 12.6044 19.0574 11.5528L0.867953 19.868ZM0.847846 20.0466C1.12543 20.7944 0.804264 19.9556 1.22764 21.1152C1.41562 21.63 1.73418 22.4663 2.20394 23.3709L19.9535 14.1538C20.0216 14.285 20.0566 14.3685 20.0607 14.3783C20.0645 14.3873 20.0513 14.3563 20.0145 14.2556C19.9744 14.1457 19.9336 14.0291 19.86 13.8189C19.7959 13.6357 19.702 13.3674 19.5975 13.0861L0.847846 20.0466ZM2.21378 23.3898C2.39506 23.7371 2.89075 24.6964 3.60224 25.6695L19.7472 13.8652C19.8317 13.9809 19.894 14.0746 19.9342 14.1375C19.9747 14.2007 20.0005 14.2445 20.0105 14.2618C20.0205 14.2791 20.0206 14.2799 20.008 14.2567C19.9952 14.233 19.9757 14.1964 19.9436 14.1349L2.21378 23.3898ZM3.62847 25.7052C4.23199 26.523 4.82578 27.0725 5.01862 27.25C5.07566 27.3025 5.23608 27.4471 5.14894 27.3684C5.13092 27.3521 5.00752 27.241 4.85151 27.0852C4.53138 26.7656 3.90846 26.099 3.33807 25.0994C2.73345 24.0398 2.32518 22.8501 2.16466 21.5963L22.0027 19.0565C21.8237 17.6582 21.3723 16.3497 20.7091 15.1874C20.0801 14.0851 19.3831 13.3319 18.9826 12.9321C18.7864 12.7362 18.6213 12.5865 18.5611 12.5321C18.4317 12.4152 18.5495 12.522 18.5646 12.5359C18.6736 12.6362 19.1864 13.1052 19.7209 13.8295L3.62847 25.7052ZM3.95493 14.502C3.21505 15.5346 2.78924 16.513 2.54094 17.2008C2.29628 17.8786 2.16142 18.4545 2.09752 18.7426C2.06345 18.8962 2.03644 19.03 2.02324 19.0955C2.01149 19.1538 2.0149 19.1371 2.00753 19.1736C2.0042 19.1901 2.00384 19.1916 2.00501 19.1861C2.00678 19.1776 2.0212 19.1086 2.04603 19.0077C2.07114 18.9057 2.1138 18.7425 2.17793 18.5397L21.2475 24.569C21.4313 23.9875 21.5366 23.4946 21.5805 23.285C21.6021 23.1815 21.6257 23.0632 21.629 23.0468C21.6379 23.0028 21.6333 23.0272 21.6231 23.0729C21.6071 23.1451 21.5264 23.5106 21.3527 23.9917C21.1754 24.483 20.8373 25.2786 20.2125 26.1507L3.95493 14.502ZM2.18065 18.5311C0.873805 22.6515 1.05452 28.0591 3.7118 32.3195L20.6816 21.7352C21.0186 22.2755 21.1801 22.7182 21.2569 22.9731C21.3374 23.2404 21.3664 23.4392 21.378 23.5667C21.3961 23.7666 21.4003 24.0873 21.2447 24.5776L2.18065 18.5311ZM3.70756 32.3127C3.89647 32.6161 4.86256 34.2221 6.58004 35.5986C8.58997 37.2095 12.7641 39.2605 17.6842 37.2539L10.1312 18.7349C11.8579 18.0306 13.7799 17.883 15.6032 18.3101C17.277 18.7023 18.4411 19.474 19.0879 19.9924C19.7391 20.5143 20.1469 21.0043 20.3395 21.2512C20.5468 21.5169 20.673 21.7214 20.6858 21.7421L3.70756 32.3127ZM17.6823 37.2546C19.8363 36.3766 21.5549 34.8846 22.7191 33.0762C23.7537 31.4691 24.1309 29.9506 24.2869 29.1994C24.3722 28.7889 24.4234 28.4393 24.4524 28.2265C24.4768 28.0474 24.5052 27.8106 24.5064 27.8014C24.5293 27.6165 24.4967 27.9618 24.3763 28.4311L5.00306 23.4636C4.77771 24.3425 4.68683 25.1109 4.65845 25.3397C4.60267 25.7895 4.638 25.454 4.70497 25.1316C4.78377 24.7522 5.05078 23.5732 5.90259 22.2501C6.88398 20.7257 8.34708 19.4621 10.1331 18.7341L17.6823 37.2546ZM24.385 28.3973C24.5263 27.8379 24.5941 27.3797 24.6269 27.1332C24.6349 27.0727 24.6411 27.0224 24.6451 26.9899C24.647 26.9736 24.6487 26.9598 24.6497 26.951C24.6502 26.9466 24.6507 26.9426 24.651 26.9402C24.6514 26.9373 24.6515 26.9363 24.6516 26.9353C24.6541 26.9142 24.6435 27.0066 24.6266 27.1243C24.5933 27.3558 24.4949 27.998 24.2276 28.7908C23.9382 29.6495 23.486 30.588 22.8017 31.5004L6.8017 19.5004C5.26196 21.5534 4.92871 23.5929 4.83031 24.2769C4.80813 24.4312 4.79301 24.561 4.79095 24.5784C4.78497 24.6288 4.79231 24.5653 4.80101 24.4998C4.82288 24.3352 4.87658 23.9639 4.99444 23.4975L24.385 28.3973ZM4.8017 25.5004V25.5374H24.8017V25.5004H4.8017ZM5.85743 30.0095L6.52743 31.3495L24.416 22.4052L23.746 21.0652L5.85743 30.0095ZM6.97562 32.1515C8.37991 34.4137 10.3258 36.1176 11.5698 37.0564L23.6176 21.0924C23.6215 21.0953 23.6075 21.0847 23.5842 21.0644C23.5737 21.0553 23.5643 21.0468 23.5565 21.0395C23.5487 21.0322 23.5448 21.0283 23.5451 21.0285C23.5452 21.0287 23.5522 21.0357 23.5656 21.0504C23.5787 21.0649 23.6019 21.091 23.6333 21.1293C23.6883 21.1962 23.8131 21.354 23.9678 21.6032L6.97562 32.1515ZM11.5607 37.0495C11.0958 36.6978 10.7985 36.3932 10.7829 36.3776C10.7721 36.3667 10.7591 36.3533 10.8316 36.428C10.8813 36.4792 10.9945 36.5959 11.1276 36.727C11.563 37.156 13.0896 38.665 15.5545 39.5063L22.0149 20.5785C23.0334 20.9261 23.7989 21.3933 24.3031 21.7581C24.7827 22.105 25.0935 22.4105 25.1645 22.4805C25.2042 22.5196 25.2258 22.5423 25.1845 22.4998C25.1661 22.4808 25.0629 22.3739 24.9615 22.272C24.7646 22.0741 24.2846 21.5969 23.6267 21.0992L11.5607 37.0495ZM28.7847 30.0424V30.0044H8.7847V30.0424H28.7847ZM18.7847 20.0044H18.7477V40.0044H18.7847V20.0044ZM27.1194 24.5349C26.1126 22.994 24.9384 22.1054 24.6192 21.863C24.5749 21.8294 24.5379 21.8017 24.5145 21.7843C24.5027 21.7755 24.4925 21.768 24.4859 21.7631C24.4826 21.7607 24.4795 21.7584 24.4776 21.7569C24.4753 21.7552 24.4742 21.7544 24.4732 21.7537C24.4587 21.7429 24.5112 21.7815 24.5791 21.834C24.7192 21.942 25.0557 22.2073 25.4468 22.5983L11.3046 36.7404C11.7567 37.1925 12.158 37.5114 12.3639 37.6702C12.4648 37.7481 12.5505 37.8114 12.5691 37.8252C12.6101 37.8555 12.5661 37.8231 12.5222 37.7898C12.334 37.6468 11.2848 36.8648 10.376 35.4739L27.1194 24.5349ZM25.3436 22.4966C25.394 22.5455 25.4406 22.5982 25.4831 22.6542L9.55432 34.7486C10.1187 35.492 10.7383 36.1918 11.4078 36.8422L25.3436 22.4966ZM25.5688 22.7688C25.2816 22.379 24.9486 21.8422 24.5661 21.1074L6.82533 30.3414C7.53484 31.7045 8.39981 33.1837 9.46858 34.634L25.5688 22.7688ZM24.5682 21.1114C24.5749 21.1244 24.5485 21.0743 24.4732 20.9036C24.4371 20.8221 24.397 20.7294 24.3454 20.6089C24.302 20.5077 24.2299 20.3387 24.1698 20.1995L5.80559 28.1213C5.92231 28.3919 6.34673 29.4208 6.82324 30.3373L24.5682 21.1114ZM24.1695 20.1987C24.4753 20.9074 24.6153 21.4863 24.6243 21.5214C24.7053 21.838 24.5675 21.2877 24.496 21.0412C24.3913 20.6801 24.1092 19.7499 23.5033 18.6944C22.8533 17.5621 21.6914 16.0421 19.7419 14.9124L9.71346 32.2164C7.85201 31.1376 6.75595 29.693 6.15797 28.6513C5.60402 27.6863 5.35996 26.8617 5.28762 26.6123C5.24849 26.4774 5.13744 26.0446 5.24761 26.4755C5.2858 26.6249 5.45764 27.3149 5.80592 28.1221L24.1695 20.1987ZM6.32176 18.1477C6.52409 17.8337 6.69196 17.6245 6.71439 17.5964C6.72627 17.5815 6.7306 17.5764 6.69042 17.6254C6.66323 17.6586 6.58965 17.7481 6.51222 17.8448C6.22293 18.2058 5.37733 19.2644 4.7317 20.7952L23.1597 28.5675C22.9212 29.1331 22.6633 29.5703 22.4693 29.8654C22.3731 30.0119 22.2897 30.1277 22.2309 30.2066C22.173 30.2843 22.131 30.337 22.1199 30.3507C22.1136 30.3587 22.1119 30.3606 22.1564 30.3063C22.1879 30.2679 22.2636 30.1756 22.3456 30.073C22.4314 29.9655 22.5484 29.8162 22.6795 29.6385C22.8116 29.4595 22.9677 29.2385 23.1336 28.981L6.32176 18.1477ZM4.73476 20.788C4.10359 22.2812 3.8679 23.6354 3.75734 24.39C3.69891 24.7888 3.65812 25.1546 3.63251 25.3883C3.60131 25.6732 3.59039 25.7806 3.57388 25.9145L23.4235 28.3623C23.4446 28.1917 23.4624 28.0341 23.4768 27.9032C23.4841 27.8377 23.491 27.7744 23.497 27.7191C23.5032 27.6611 23.5084 27.6137 23.5136 27.5663C23.5239 27.4719 23.5311 27.4085 23.5372 27.3586C23.54 27.335 23.5422 27.318 23.5438 27.3061C23.5454 27.2943 23.5461 27.2891 23.5461 27.2894C23.546 27.2898 23.5449 27.297 23.5428 27.3101C23.5406 27.3232 23.5372 27.3432 23.5323 27.3694C23.5227 27.4207 23.5062 27.5027 23.4804 27.6086C23.4299 27.8156 23.3335 28.1564 23.1566 28.5748L4.73476 20.788ZM10.1629 17.7112C10.2866 17.6674 10.3951 17.6322 10.4752 17.6071C10.5572 17.5814 10.4207 17.6237 10.3231 17.6559C10.2015 17.6961 9.79569 17.8304 9.29898 18.0572C8.71803 18.3223 8.20608 18.623 7.76126 18.9305C7.40918 19.1739 7.14396 19.3932 7.12974 19.4048C7.05076 19.4691 7.19546 19.35 7.32659 19.2491L19.5208 35.1016C19.6714 34.9857 19.8271 34.8574 19.7557 34.9156C19.7453 34.9241 19.483 35.1411 19.1336 35.3826C18.6915 35.6882 18.182 35.9875 17.6039 36.2513C17.1101 36.4768 16.7075 36.6099 16.5903 36.6486C16.497 36.6794 16.3659 36.7201 16.4549 36.6922C16.5491 36.6627 16.6783 36.6209 16.8345 36.5656L10.1629 17.7112ZM15.7695 17.4544C18.7958 18.1847 20.5044 20.1625 21.2355 21.2853C21.5665 21.7937 21.7515 22.2013 21.8007 22.311C21.8088 22.3289 21.8982 22.5365 21.7459 22.1751L3.31548 29.9416C3.17537 29.6092 3.71272 31.0272 4.47518 32.1982C5.47499 33.7338 7.53363 36.0411 11.0779 36.8963L15.7695 17.4544ZM21.7475 22.1789C21.9422 22.6413 22.0217 22.9845 22.0546 23.152C22.0905 23.3354 22.1017 23.4688 22.1053 23.5613C22.1089 23.655 22.1074 23.7765 22.0887 23.9374C22.0711 24.089 22.0267 24.3761 21.9009 24.7669L2.86253 18.6398C1.72275 22.1814 1.87213 26.5126 3.31389 29.9379L21.7475 22.1789ZM21.9011 24.7661C21.8188 25.022 21.7089 25.2993 21.8593 24.9067C21.9284 24.7264 22.0784 24.3337 22.2243 23.88C22.3487 23.4934 22.6048 22.6586 22.7414 21.6329C22.8109 21.111 22.8905 20.2512 22.7966 19.2091C22.708 18.2253 22.4106 16.4425 21.2283 14.5846L4.35508 25.3221C3.22356 23.544 2.95485 21.8649 2.87722 21.003C2.79434 20.0826 2.86714 19.3627 2.91639 18.9928C3.01248 18.2713 3.17424 17.7894 3.18458 17.7572C3.21649 17.658 3.23287 17.6215 3.18294 17.7518C3.1764 17.7689 3.11856 17.9189 3.08607 18.0048C3.05598 18.0844 2.95892 18.3402 2.86227 18.6406L21.9011 24.7661ZM22.3482 17.0083C21.5636 14.4624 20.0256 12.9179 19.6411 12.5284C19.5222 12.4079 19.4184 12.3079 19.3867 12.2773C19.3302 12.2226 19.3665 12.2575 19.402 12.2928C19.4659 12.3564 19.8376 12.7226 20.2471 13.2785L4.14431 25.1402C4.64332 25.8177 5.12197 26.2979 5.29908 26.474C5.39123 26.5657 5.48573 26.6565 5.48748 26.6582C5.5141 26.6839 5.4688 26.6406 5.40708 26.5781C5.29189 26.4614 4.92248 26.0829 4.52021 25.5146C4.09599 24.9152 3.58717 24.0405 3.23521 22.8985L22.3482 17.0083ZM20.3378 13.4037C20.4932 13.6216 20.6263 13.8546 20.7352 14.0991L2.46421 22.2337C2.89962 23.2116 3.43206 24.1434 4.05355 25.015L20.3378 13.4037ZM20.7487 14.1295C20.8269 14.3069 20.8498 14.4165 20.6565 13.7935C20.5278 13.3783 20.2018 12.2935 19.6795 11.1582L1.50987 19.5166C1.40759 19.2943 1.38513 19.1729 1.55434 19.7185C1.61545 19.9155 1.73208 20.2959 1.86321 20.6827C2.00086 21.0888 2.19265 21.6183 2.45074 22.2033L20.7487 14.1295ZM19.684 11.168C19.2495 10.2206 18.7652 9.47753 18.4865 9.06735C18.3345 8.84361 18.1949 8.64878 18.0982 8.51498C17.9412 8.29767 17.9829 8.35707 17.8946 8.23429L1.65678 19.9105C1.70867 19.9826 1.75836 20.051 1.79495 20.1013C1.83594 20.1577 1.86195 20.1934 1.88827 20.2298C1.94005 20.3015 1.95025 20.3169 1.94312 20.3064C1.93544 20.2951 1.88628 20.2226 1.81636 20.1045C1.74755 19.9882 1.63268 19.7843 1.50537 19.5068L19.684 11.168ZM17.9054 8.24927C17.6567 7.90216 17.4324 7.62276 17.3133 7.47554C17.2824 7.43732 17.2537 7.4021 17.2329 7.37656C17.2091 7.34741 17.1966 7.33208 17.1832 7.31559C17.1578 7.28429 17.1613 7.28825 17.1762 7.30722C17.2076 7.34731 17.327 7.50117 17.4745 7.72914C17.6286 7.96711 17.8031 8.26946 17.9689 8.6302L-0.203534 16.9825C0.374847 18.2409 1.04277 19.144 1.43048 19.639C1.52278 19.7569 1.60479 19.8583 1.6584 19.9243C1.74288 20.0283 1.72248 20.0028 1.76638 20.057C1.80622 20.1062 1.74066 20.0276 1.64603 19.8955L17.9054 8.24927ZM17.9695 8.63137C17.9941 8.68495 18.3609 9.44606 18.5758 10.5316C18.7536 11.4303 19.2292 14.5153 17.1417 17.6631L0.473723 6.60963C-1.7398 9.94748 -1.26924 13.2749 -1.04362 14.4149C-0.781009 15.7417 -0.313686 16.7428 -0.204071 16.9814L17.9695 8.63137ZM18.3525 15.1191C18.0968 15.9374 17.4617 17.5815 15.9073 19.1138C14.3843 20.6151 12.7828 21.2106 12.1039 21.4298L5.95948 2.39699C5.15357 2.65717 3.46013 3.3001 1.86687 4.87068C0.242183 6.47224 -0.441397 8.20736 -0.737103 9.15362L18.3525 15.1191ZM15.1483 19.8246C12.6864 21.728 10.1693 21.8415 9.38905 21.8521C8.3869 21.8656 7.6404 21.7104 7.35236 21.6456C6.74178 21.5081 6.34145 21.3393 6.25381 21.303L13.8936 2.8197C13.5809 2.69048 12.7676 2.36419 11.7463 2.13419C11.2529 2.02307 10.3016 1.83791 9.11894 1.85388C8.15819 1.86686 5.48501 2.01524 2.91514 4.00213L15.1483 19.8246ZM6.23743 21.2963C6.32451 21.3324 6.37646 21.3551 6.40577 21.3683C6.43378 21.3809 6.43305 21.3812 6.41223 21.3707C6.39031 21.3597 6.35087 21.3391 6.29929 21.3093C6.24717 21.2793 6.19122 21.2448 6.13431 21.2069L17.2131 4.5558C15.9357 3.70593 14.7677 3.18279 13.91 2.82649L6.23743 21.2963ZM6.17438 21.2335C5.69155 20.9156 5.36619 20.6311 5.34139 20.6098C5.31923 20.5907 5.29688 20.571 5.35148 20.6189C5.38536 20.6487 5.47736 20.7296 5.58586 20.8214C5.7883 20.9928 6.23197 21.3608 6.8287 21.7452C7.43002 22.1325 8.38162 22.6654 9.63935 23.0346L15.272 3.84416C16.3833 4.17032 17.1942 4.63197 17.6594 4.93164C18.12 5.22834 18.4321 5.49225 18.506 5.55482C18.5503 5.59227 18.5788 5.61764 18.5498 5.59219C18.5416 5.58493 18.457 5.5103 18.373 5.43817C18.2246 5.31068 17.7773 4.92719 17.173 4.52928L6.17438 21.2335ZM12.4557 23.4394H12.7907V3.43937H12.4557V23.4394ZM10.5624 23.188C11.3138 23.3597 11.9537 23.4293 12.3597 23.4633C12.5685 23.4807 12.7485 23.4913 12.873 23.4978C12.9785 23.5034 13.1128 23.5094 13.1345 23.5104C13.1869 23.5129 13.1749 23.5126 13.1403 23.5103C13.1024 23.5078 13.0075 23.5009 12.8765 23.486C12.6287 23.4577 12.1184 23.3866 11.477 23.1912L17.3064 4.05958C16.4205 3.78965 15.6535 3.67301 15.1417 3.61467C14.6478 3.55838 14.2187 3.53933 14.0749 3.53256C13.833 3.52117 13.9332 3.52505 14.0274 3.53293C14.1605 3.54407 14.5301 3.57905 15.0189 3.69079L10.5624 23.188ZM11.4827 23.1929C11.3301 23.1465 11.2426 23.1046 11.2305 23.0987C11.2244 23.0957 11.2348 23.1006 11.2636 23.1169C11.2926 23.1333 11.3368 23.1594 11.399 23.1987L22.0744 6.28606C20.9345 5.56658 19.3214 4.67222 17.3007 4.05783L11.4827 23.1929ZM11.3978 23.1979C11.9977 23.5767 12.5577 24.1599 12.97 24.9505L30.7034 15.7023C28.7157 11.8909 25.7677 8.61807 22.0756 6.28683L11.3978 23.1979ZM12.9704 24.9512C12.8528 24.7257 12.7702 24.5376 12.7192 24.4138C12.6724 24.3003 12.6474 24.2288 12.6629 24.2716C12.6732 24.3003 12.6778 24.3133 12.703 24.3838C12.7229 24.4392 12.7532 24.5237 12.7884 24.6191C12.8598 24.8125 12.966 25.0908 13.1056 25.4135L31.4618 17.4732C31.5164 17.5994 31.5483 17.6861 31.5502 17.6911C31.5506 17.6922 31.5473 17.6833 31.5339 17.6458C31.5259 17.6235 31.4976 17.5442 31.4748 17.4809C31.3754 17.2057 31.1225 16.5058 30.703 15.7015L12.9704 24.9512ZM13.1073 25.4175C13.3752 26.0362 13.6592 26.6211 13.842 26.9988C14.0586 27.446 14.1644 27.6661 14.2465 27.8528L32.5528 19.798C32.294 19.2097 32.0133 18.6348 31.8429 18.2827C31.6387 17.8611 31.5352 17.6426 31.4601 17.4692L13.1073 25.4175ZM14.246 27.8516C14.442 28.2972 15.2361 30.2601 16.5462 32.0114L32.5612 20.0313C32.6888 20.2019 32.7733 20.3369 32.8191 20.4141C32.8643 20.4904 32.8815 20.5269 32.8693 20.5024C32.8563 20.4764 32.827 20.4158 32.7714 20.2925C32.7442 20.2322 32.7138 20.1639 32.6769 20.0802C32.6586 20.0386 32.6396 19.9955 32.6189 19.9482C32.5989 19.9028 32.5758 19.8502 32.5534 19.7992L14.246 27.8516ZM16.548 32.0138C17.3497 33.0848 18.2061 33.7978 18.7983 34.2284C19.4087 34.6724 19.9669 34.9808 20.3651 35.1812C21.1308 35.5664 21.8148 35.8036 22.1403 35.9127C22.4608 36.0202 22.8543 36.1384 22.8694 36.1431C23.0689 36.2046 22.7548 36.1171 22.338 35.941L30.1214 17.5177C29.7532 17.3622 29.4362 17.251 29.2458 17.1865C29.0456 17.1188 28.8671 17.0633 28.762 17.0309C28.7066 17.0138 28.6518 16.9971 28.6149 16.9858C28.573 16.973 28.546 16.9647 28.5217 16.9573C28.4718 16.9418 28.4732 16.9418 28.4991 16.9505C28.5242 16.9589 28.6115 16.9885 28.7379 17.0382C28.8592 17.086 29.0782 17.1762 29.3543 17.3151C29.6183 17.448 30.0551 17.6852 30.5619 18.0538C31.0504 18.4091 31.8209 19.0424 32.5594 20.029L16.548 32.0138ZM22.3478 35.9452C22.5413 36.0267 22.7105 36.0921 22.8345 36.1387C22.96 36.186 23.071 36.2258 23.1493 36.2536C23.2233 36.2798 23.3017 36.3072 23.3374 36.3197C23.3847 36.3363 23.4033 36.3428 23.4135 36.3465C23.4222 36.3497 23.4053 36.3437 23.3723 36.3311C23.3397 36.3186 23.2761 36.2938 23.1909 36.2577C23.107 36.2222 22.9805 36.1666 22.825 36.0903C22.6721 36.0154 22.4558 35.9033 22.2007 35.7503L32.4907 18.6004C31.8652 18.2252 31.3121 17.9775 30.9903 17.8412C30.6463 17.6955 30.3458 17.5855 30.1739 17.5237C30.0825 17.4909 29.9992 17.4617 29.946 17.4431C29.8812 17.4204 29.8604 17.4132 29.8383 17.4053C29.7741 17.3825 29.9099 17.4286 30.1116 17.5136L22.3478 35.9452ZM22.1829 35.7396C22.1966 35.7478 22.2718 35.7945 22.4607 35.9262C22.5529 35.9904 22.6533 36.0616 22.784 36.1546C22.9026 36.2391 23.0656 36.3555 23.2242 36.4672L34.7432 20.1175C34.4959 19.9433 33.4753 19.194 32.5085 18.6112L22.1829 35.7396ZM23.2035 36.4526C23.4813 36.6494 23.7229 36.8004 23.8093 36.8544C23.9062 36.915 24.0239 36.9866 24.0422 36.9978C24.1524 37.0653 24.0644 37.0141 23.9288 36.9201C23.844 36.8613 23.3531 36.525 22.7821 35.9386C22.4837 35.6322 21.993 35.0854 21.5141 34.2999C21.0445 33.5299 20.3854 32.2017 20.1712 30.408L40.0302 28.0368C39.806 26.1593 39.1127 24.7451 38.59 23.8879C38.0579 23.0152 37.4951 22.3801 37.1107 21.9854C36.3678 21.2225 35.6497 20.7097 35.3236 20.4836C34.9467 20.2224 34.6035 20.0132 34.4858 19.9411C34.1781 19.7527 34.4784 19.9299 34.7639 20.1321L23.2035 36.4526ZM30.3602 19.2257C28.406 19.175 25.7764 19.3041 23.0431 20.4595L30.8303 38.8812C30.3159 39.0987 29.9038 39.1785 29.7016 39.2062C29.5284 39.2298 29.5368 39.2111 29.8412 39.219L30.3602 19.2257ZM23.0663 20.4497C23.7151 20.1774 24.2903 20.0361 24.1052 20.0866C24.1014 20.0876 24.0526 20.1009 24.005 20.1141C23.9521 20.1288 23.8704 20.1518 23.7733 20.1807C23.5878 20.236 23.2717 20.3346 22.8939 20.4819C22.2196 20.7447 20.7698 21.3778 19.3679 22.7466C17.7678 24.309 16.6637 26.4071 16.3522 28.7748L36.1812 31.3839C35.8897 33.5996 34.849 35.5834 33.3403 37.0565C32.0297 38.3361 30.6994 38.905 30.1573 39.1164C29.6318 39.3212 29.1505 39.441 29.365 39.3825C29.3898 39.3758 29.5718 39.3268 29.7811 39.2624C29.9963 39.1962 30.3665 39.076 30.8071 38.891L23.0663 20.4497ZM19.0167 36.9669C18.2739 36.185 17.8022 35.4237 17.5166 34.8858C17.249 34.3819 17.0947 33.9737 17.0727 33.9163C17.0715 33.9132 17.039 33.8278 17.0798 33.9355C17.1001 33.9891 17.1501 34.121 17.2164 34.2816C17.3468 34.5976 17.6054 35.1885 18.0272 35.8691L35.0262 25.3317C35.395 25.9267 35.6112 26.4272 35.7037 26.6514C35.751 26.7661 35.7833 26.8517 35.7861 26.8591C35.8093 26.9206 35.7597 26.789 35.7409 26.7402C35.6838 26.5915 35.4927 26.0937 35.1805 25.5058C34.8502 24.8838 34.326 24.0438 33.5167 23.1919L19.0167 36.9669ZM18.0208 35.8586C18.5046 36.6413 19.6214 38.2745 21.3536 39.5835L33.4118 23.6273C33.8117 23.9295 34.0914 24.1969 34.2464 24.3531C34.4128 24.5208 34.534 24.6602 34.6131 24.7556C34.756 24.9279 34.8895 25.1105 35.0326 25.3422L18.0208 35.8586ZM21.3638 39.5911C21.4652 39.6676 22.3212 40.3393 23.2112 40.8832L33.6402 23.8176C33.7197 23.8662 33.7738 23.9024 33.7973 23.9185C33.8205 23.9343 33.8239 23.9373 33.7994 23.9194C33.7736 23.9005 33.7347 23.8716 33.6654 23.8192C33.6304 23.7928 33.5957 23.7664 33.5499 23.7317C33.5071 23.6993 33.4555 23.6602 33.4016 23.6196L21.3638 39.5911ZM23.222 40.8898C23.7199 41.1932 24.169 41.4258 24.5064 41.5916C24.8246 41.748 25.1325 41.8875 25.2625 41.947C25.4419 42.029 25.4561 42.0368 25.4387 42.0281C25.4069 42.0121 25.2534 41.9345 25.0387 41.7982L35.7567 24.9126C35.234 24.5808 34.76 24.3285 34.4007 24.1484C34.0558 23.9755 33.7355 23.8296 33.5788 23.758C33.4815 23.7135 33.4314 23.6906 33.3819 23.6677C33.3381 23.6473 33.3245 23.6406 33.328 23.6423C33.3319 23.6442 33.4515 23.7025 33.6294 23.811L23.222 40.8898ZM25.0499 41.8053C24.9762 41.7587 24.9317 41.7275 24.9246 41.7225C24.9178 41.7177 24.9315 41.7272 24.9789 41.7624C25.0312 41.8013 25.0855 41.8423 25.187 41.9189C25.2751 41.9854 25.4052 42.0836 25.5444 42.1862L37.413 26.0885C37.0818 25.8443 37.4426 26.1067 36.9058 25.7078C36.6545 25.5212 36.2406 25.2188 35.7455 24.9054L25.0499 41.8053Z" fill="white" mask="url(#path-3-inside-1_2518_137683)"/>
</g>
<defs>
<filter id="filter0_d_2518_137683" x="22.0977" y="1.70337" width="15.2031" height="15.2869" filterUnits="userSpaceOnUse" color-interpolation-filters="sRGB">
<feFlood flood-opacity="0" result="BackgroundImageFix"/>
<feColorMatrix in="SourceAlpha" type="matrix" values="0 0 0 0 0 0 0 0 0 0 0 0 0 0 0 0 0 0 127 0" result="hardAlpha"/>
<feOffset dy="2"/>
<feGaussianBlur stdDeviation="1"/>
<feComposite in2="hardAlpha" operator="out"/>
<feColorMatrix type="matrix" values="0 0 0 0 0 0 0 0 0 0 0 0 0 0 0 0 0 0 0.04 0"/>
<feBlend mode="normal" in2="BackgroundImageFix" result="effect1_dropShadow_2518_137683"/>
<feBlend mode="normal" in="SourceGraphic" in2="effect1_dropShadow_2518_137683" result="shape"/>
</filter>
<clipPath id="clip0_2518_137683">
<rect width="40" height="40" fill="white"/>
</clipPath>
</defs>
</svg>
