<svg width="40" height="40" viewBox="0 0 40 40" fill="none" xmlns="http://www.w3.org/2000/svg">
<g clip-path="url(#clip0_5814_41087)">
<path d="M20 40C31.0457 40 40 31.0457 40 20C40 8.9543 31.0457 0 20 0C8.9543 0 0 8.9543 0 20C0 31.0457 8.9543 40 20 40Z" fill="#65CB8D"/>
<path d="M23.0675 23.1088H16.8862V16.8913H23.0675V23.1088ZM32.3925 12.7038C32.131 11.2018 31.3327 9.84606 30.1463 8.88877C29.0408 7.98953 27.6588 7.49943 26.2337 7.50127C22.0375 7.50127 17.8375 7.49752 13.6413 7.50377C11.4513 7.52877 9.38125 8.79752 8.31625 10.705C7.72375 11.73 7.50125 12.88 7.5 14.0525C7.5025 17.88 7.49875 21.71 7.50125 25.5363C7.49375 26.4263 7.5325 27.2825 7.81 28.1363C8.42875 30.1138 10.0975 31.7163 12.0887 32.2738C11.4862 31.7925 11.22 31.1238 11.0238 30.4C10.6188 28.8125 10.5875 27.1625 10.6525 25.5375C10.6463 21.7088 10.655 17.88 10.6475 14.0525C10.6537 13.3938 10.7025 12.775 11.0388 12.1925C11.5575 11.2625 12.5688 10.64 13.6413 10.655C17.6288 10.6513 21.6225 10.655 25.61 10.6525C26.2125 10.6538 26.76 10.6088 27.335 10.8275C27.8137 10.994 28.2419 11.2801 28.579 11.6586C28.9161 12.037 29.151 12.4953 29.2613 12.99C29.38 13.5688 29.3487 14.2113 29.35 14.8025V26.0363C29.35 26.5875 29.2888 27.1275 29.0525 27.6313C28.5638 28.655 27.5063 29.365 26.3613 29.3438C23.2038 29.3488 20.0437 29.3438 16.8862 29.3463C16.8821 28.3163 16.8821 27.2859 16.8862 26.255C19.4625 26.255 22.0387 26.2513 24.615 26.2575C25.17 26.2875 25.8087 26.0063 26.065 25.495C26.2087 25.2325 26.2325 24.955 26.2387 24.6638C26.2371 21.5429 26.2367 18.4217 26.2375 15.3C26.2544 15.0227 26.1912 14.7465 26.0556 14.504C25.92 14.2616 25.7176 14.0632 25.4725 13.9325C25.0463 13.6825 24.5887 13.7475 24.115 13.7388C21.165 13.7463 18.2113 13.735 15.2625 13.745C14.4188 13.7238 13.7163 14.4588 13.7425 15.3C13.73 19.785 13.7425 24.295 13.7363 28.7825C13.76 29.6738 13.7312 30.5188 14.2475 31.29C14.6387 31.9275 15.3 32.2513 16.0125 32.3925C16.8538 32.5288 17.6587 32.4963 18.505 32.4975C21.08 32.4967 23.6562 32.4975 26.2337 32.5C27.515 32.5113 28.7637 32.095 29.815 31.37C30.9437 30.5375 31.8188 29.3888 32.2213 28.0363C32.5 27.1213 32.495 26.2325 32.5 25.2863V14.5525C32.495 13.9388 32.4875 13.3113 32.3938 12.7025" fill="white"/>
</g>
<defs>
<clipPath id="clip0_5814_41087">
<rect width="40" height="40" fill="white"/>
</clipPath>
</defs>
</svg>
