<svg width="40" height="40" viewBox="0 0 40 40" fill="none" xmlns="http://www.w3.org/2000/svg">
<path d="M38.3332 20C38.3332 30.1252 30.1251 38.3333 19.9998 38.3333C9.87462 38.3333 1.6665 30.1252 1.6665 20C1.6665 9.87477 9.87462 1.66666 19.9998 1.66666C30.1251 1.66666 38.3332 9.87477 38.3332 20Z" fill="#00A7D6" fill-opacity="0.2"/>
<path d="M31 20C31 22.9174 29.8411 25.7153 27.7782 27.7782C25.7153 29.8411 22.9174 31 20 31C17.0826 31 14.2847 29.8411 12.2218 27.7782C10.1589 25.7153 9 22.9174 9 20M31 20C31 17.0826 29.8411 14.2847 27.7782 12.2218C25.7153 10.1589 22.9174 9 20 9C17.0826 9 14.2847 10.1589 12.2218 12.2218C10.1589 14.2847 9 17.0826 9 20M31 20H9" stroke="#00A7D6" stroke-width="1.69231" stroke-linecap="round" stroke-linejoin="round"/>
<path d="M24.2306 20C24.0228 24.0226 22.5411 27.8749 19.9998 31C17.4585 27.8749 15.9769 24.0226 15.769 20C15.9769 15.9774 17.4585 12.1251 19.9998 9C22.5411 12.1251 24.0228 15.9774 24.2306 20Z" stroke="#00A7D6" stroke-width="1.69231" stroke-linecap="round" stroke-linejoin="round"/>
</svg>
