<svg width="24" height="24" viewBox="0 0 24 24" fill="none" xmlns="http://www.w3.org/2000/svg">
<path d="M19.8134 10.4662C20.0179 9.85207 20.0888 9.20137 20.0214 8.55763C19.9541 7.91389 19.75 7.29197 19.4228 6.73349C18.9378 5.88877 18.197 5.21997 17.3072 4.8236C16.4174 4.42723 15.4248 4.32379 14.4724 4.52819C14.0428 4.04408 13.5148 3.65731 12.9236 3.39378C12.3325 3.13024 11.6919 2.99602 11.0447 3.00009C10.071 2.99774 9.12165 3.30467 8.33361 3.87663C7.54557 4.44859 6.95953 5.25603 6.65997 6.18253C6.02565 6.31237 5.42637 6.57623 4.90228 6.95643C4.37818 7.33664 3.94135 7.82441 3.62103 8.38711C3.13216 9.2295 2.92348 10.2054 3.02509 11.174C3.1267 12.1427 3.53335 13.054 4.18638 13.7766C3.98191 14.3908 3.91097 15.0415 3.97833 15.6852C4.04569 16.3289 4.24978 16.9509 4.57695 17.5093C5.06199 18.354 5.80283 19.0228 6.69258 19.4191C7.58234 19.8155 8.575 19.919 9.52737 19.7146C9.95694 20.1987 10.485 20.5855 11.0761 20.849C11.6673 21.1126 12.3079 21.2468 12.9551 21.2427C13.9293 21.2453 14.8791 20.9382 15.6674 20.3659C16.4558 19.7936 17.0419 18.9856 17.3412 18.0585C17.9756 17.9287 18.5748 17.6648 19.0989 17.2846C19.623 16.9044 20.0598 16.4166 20.3802 15.8539C20.8684 15.0116 21.0766 14.036 20.9748 13.0677C20.8729 12.0994 20.4662 11.1885 19.8134 10.4662ZM12.9565 20.0502C12.1568 20.0513 11.3822 19.7712 10.7681 19.259C10.7958 19.2439 10.8444 19.2173 10.876 19.1978L14.5084 17.0997C14.5995 17.0478 14.6752 16.9726 14.7277 16.8818C14.7802 16.791 14.8075 16.6878 14.8069 16.5829V11.462L16.3421 12.3485C16.3502 12.3525 16.3571 12.3585 16.3624 12.3658C16.3676 12.3732 16.3709 12.3817 16.372 12.3906V16.6315C16.3709 17.5372 16.0108 18.4057 15.3706 19.0465C14.7304 19.6872 13.8623 20.0482 12.9565 20.0502ZM5.61127 16.9131C5.2107 16.2209 5.06633 15.41 5.20344 14.6222C5.23041 14.6383 5.27752 14.6671 5.31133 14.6865L8.94367 16.7847C9.03419 16.8376 9.13715 16.8654 9.242 16.8654C9.34684 16.8654 9.4498 16.8376 9.54031 16.7847L13.975 14.224V15.9971C13.9755 16.0061 13.9738 16.0151 13.97 16.0234C13.9661 16.0316 13.9603 16.0387 13.9531 16.0442L10.2812 18.1642C9.49575 18.6166 8.56297 18.7389 7.68749 18.5043C6.81201 18.2698 6.06532 17.6975 5.61127 16.9131ZM4.65571 8.98339C5.05454 8.29035 5.68448 7.75971 6.4352 7.48442C6.4352 7.51571 6.4334 7.57109 6.4334 7.60957V11.8058C6.43276 11.9106 6.46005 12.0137 6.51245 12.1045C6.56484 12.1952 6.64047 12.2704 6.73154 12.3223L11.1662 14.8825L9.63094 15.769C9.62337 15.774 9.61467 15.7771 9.60564 15.7779C9.5966 15.7787 9.5875 15.7773 9.57916 15.7737L5.90689 13.6519C5.12285 13.1978 4.55086 12.4514 4.31631 11.5762C4.08177 10.7011 4.20382 9.76867 4.65571 8.98339ZM17.2697 11.9188L12.835 9.35813L14.3703 8.47198C14.3778 8.467 14.3865 8.46396 14.3956 8.46314C14.4046 8.46233 14.4137 8.46376 14.422 8.46731L18.0943 10.5874C18.6569 10.9124 19.1153 11.3909 19.4157 11.9669C19.7162 12.543 19.8464 13.1927 19.7909 13.8401C19.7355 14.4874 19.4968 15.1056 19.1027 15.6222C18.7087 16.1387 18.1757 16.5324 17.566 16.757C17.566 16.7253 17.566 16.6699 17.566 16.6315V12.4352C17.5669 12.3306 17.5399 12.2276 17.4878 12.1368C17.4357 12.0461 17.3604 11.9708 17.2697 11.9188ZM18.7978 9.61887C18.7708 9.60233 18.7237 9.57392 18.6899 9.55449L15.0575 7.45637C14.967 7.40354 14.864 7.3757 14.7592 7.3757C14.6544 7.3757 14.5514 7.40354 14.4609 7.45637L10.0262 10.017V8.24397C10.0257 8.23492 10.0274 8.22588 10.0312 8.21766C10.0351 8.20945 10.0409 8.2023 10.0481 8.19686L13.72 6.07859C14.2826 5.75422 14.9258 5.59675 15.5746 5.6246C16.2233 5.65245 16.8508 5.86447 17.3834 6.23586C17.9161 6.60724 18.332 7.12263 18.5824 7.72173C18.8329 8.32083 18.9076 8.97887 18.7978 9.61887ZM9.19147 12.779L7.65581 11.8925C7.64776 11.8885 7.64082 11.8825 7.63561 11.8752C7.6304 11.8679 7.62709 11.8594 7.62596 11.8504V7.60957C7.62638 6.96004 7.81181 6.32406 8.16055 5.77608C8.50929 5.22811 9.0069 4.7908 9.59514 4.51536C10.1834 4.23992 10.8379 4.13773 11.4821 4.22076C12.1263 4.3038 12.7335 4.56861 13.2327 4.98421C13.205 4.99932 13.1568 5.02593 13.1248 5.04535L9.49248 7.14348C9.40134 7.19529 9.32565 7.27045 9.27318 7.36121C9.22072 7.45198 9.19338 7.55508 9.19398 7.65992L9.19147 12.779ZM10.0255 10.9808L12.0006 9.84005L13.9757 10.9801V13.2609L12.0006 14.401L10.0255 13.2609V10.9808Z" fill="#202123"/>
</svg>
