<svg width="24" height="24" viewBox="0 0 24 24" fill="none" xmlns="http://www.w3.org/2000/svg">
<path fill-rule="evenodd" clip-rule="evenodd" d="M20.8638 11.3371C21.5778 12.1508 21.9804 13.1911 22 14.2735C21.9886 15.4694 21.5107 16.6137 20.6681 17.4625C19.8255 18.3114 18.6848 18.7977 17.4889 18.8179C17.4078 18.8295 17.3255 18.8295 17.2444 18.8179H8.12222H7.63333C6.18051 18.8392 4.77717 18.2905 3.72413 17.2893C2.67109 16.2882 2.05215 14.9144 2 13.4624C2.01083 12.1572 2.49398 10.9002 3.36008 9.92378C4.22617 8.94738 5.41659 8.3177 6.71111 8.15124C7.1182 7.00697 7.87231 6.0183 8.86823 5.32315C9.86414 4.628 11.0522 4.26104 12.2667 4.27347C13.775 4.24354 15.2341 4.81046 16.3265 5.85088C17.419 6.89131 18.0564 8.32104 18.1 9.82902C19.1706 9.98912 20.1498 10.5234 20.8638 11.3371ZM14.2282 7.69114C14.8392 7.97802 15.3513 8.43974 15.6998 9.01783C16.0468 9.59589 16.2153 10.2636 16.1842 10.937C16.1531 11.6105 15.9237 12.2598 15.5249 12.8034C15.1261 13.347 14.5756 13.7607 13.9426 13.9926C13.3095 14.2244 12.622 14.2642 11.9665 14.1067C11.6508 14.0271 11.3479 13.9037 11.0665 13.7401L8.47758 16.3623C8.39691 16.4452 8.30005 16.5107 8.19302 16.5547C8.08598 16.5986 7.97105 16.6201 7.85536 16.6178C7.73985 16.6189 7.6253 16.5968 7.51845 16.5529C7.41159 16.509 7.31459 16.4442 7.23314 16.3623C7.15117 16.2807 7.08612 16.1838 7.04174 16.077C6.99735 15.9702 6.9745 15.8557 6.9745 15.7401C6.9745 15.6244 6.99735 15.5099 7.04174 15.4031C7.08612 15.2964 7.15117 15.1994 7.23314 15.1178L9.83314 12.4845C9.39931 11.7194 9.26846 10.8193 9.46647 9.96228C9.62805 9.3069 9.98045 8.71419 10.479 8.25919C10.9776 7.80418 11.6 7.50733 12.2674 7.40621C12.9348 7.30509 13.6172 7.40425 14.2282 7.69114ZM14.2548 12.6682C14.6757 12.3359 14.9732 11.8723 15.0998 11.3512C15.1762 11.046 15.191 10.7286 15.1433 10.4176C15.0956 10.1067 14.9864 9.80832 14.822 9.54005C14.4983 8.99118 13.9714 8.59198 13.3554 8.42894C13.1659 8.3849 12.9721 8.36253 12.7776 8.36228C12.2407 8.36365 11.7201 8.54668 11.3005 8.88157C10.8808 9.21647 10.5869 9.68352 10.4665 10.2067C10.3866 10.5334 10.3761 10.8732 10.4354 11.2043C10.4947 11.5353 10.6226 11.8503 10.8109 12.1289C10.9776 12.3734 11.1887 12.5845 11.4331 12.7512C11.6649 12.9223 11.9298 13.0434 12.2109 13.1067C12.3951 13.1598 12.5859 13.186 12.7776 13.1845C13.3138 13.1823 13.8339 13.0005 14.2548 12.6682Z" fill="url(#paint0_linear_1279_177697)"/>
<path d="M12.7668 13.1845C14.0862 13.1845 15.1557 12.11 15.1557 10.7845C15.1557 9.45904 14.0862 8.38452 12.7668 8.38452C11.4475 8.38452 10.3779 9.45904 10.3779 10.7845C10.3779 12.11 11.4475 13.1845 12.7668 13.1845Z" fill="#83B9F9"/>
<defs>
<linearGradient id="paint0_linear_1279_177697" x1="12" y1="2.09569" x2="12" y2="22.0401" gradientUnits="userSpaceOnUse">
<stop offset="0.18" stop-color="#5EA0EF"/>
<stop offset="1" stop-color="#0078D4"/>
</linearGradient>
</defs>
</svg>
