<svg width="24" height="24" viewBox="0 0 24 24" fill="none" xmlns="http://www.w3.org/2000/svg">
<g clip-path="url(#clip0_1279_177719)">
<path d="M5.28202 7.85116C5.2563 7.85131 5.23081 7.84635 5.20701 7.83658C5.18322 7.8268 5.16161 7.8124 5.14342 7.79421C5.12523 7.77603 5.11083 7.75441 5.10105 7.73062C5.09128 7.70682 5.08632 7.68133 5.08647 7.65561C5.08559 7.06386 4.85012 6.49659 4.43169 6.07816C4.01326 5.65973 3.446 5.42427 2.85425 5.42338C2.80257 5.42339 2.753 5.40293 2.71636 5.3665C2.67972 5.33007 2.65899 5.28061 2.65869 5.22894C2.65869 5.17708 2.67929 5.12734 2.71597 5.09066C2.75264 5.05399 2.80238 5.03338 2.85425 5.03338C3.44619 5.0325 4.01362 4.79689 4.43208 4.37821C4.85055 3.95954 5.08588 3.39199 5.08647 2.80005C5.08632 2.77433 5.09128 2.74883 5.10105 2.72504C5.11083 2.70125 5.12523 2.67963 5.14342 2.66144C5.16161 2.64326 5.18322 2.62886 5.20701 2.61908C5.23081 2.60931 5.2563 2.60435 5.28202 2.6045C5.30775 2.60435 5.33324 2.60931 5.35703 2.61908C5.38083 2.62886 5.40244 2.64326 5.42063 2.66144C5.43882 2.67963 5.45322 2.70125 5.46299 2.72504C5.47277 2.74883 5.47773 2.77433 5.47758 2.80005C5.47846 3.3918 5.71392 3.95906 6.13236 4.3775C6.55079 4.79593 7.11805 5.03139 7.7098 5.03227C7.73552 5.03213 7.76102 5.03708 7.78481 5.04686C7.8086 5.05663 7.83022 5.07103 7.84841 5.08922C7.8666 5.10741 7.881 5.12903 7.89077 5.15282C7.90055 5.17661 7.90551 5.20211 7.90536 5.22783C7.90551 5.25355 7.90055 5.27905 7.89077 5.30284C7.881 5.32663 7.8666 5.34825 7.84841 5.36644C7.83022 5.38462 7.8086 5.39902 7.78481 5.4088C7.76102 5.41857 7.73552 5.42353 7.7098 5.42338C7.11796 5.42397 6.55053 5.65934 6.13203 6.07784C5.71354 6.49633 5.47817 7.06377 5.47758 7.65561C5.47729 7.70738 5.45659 7.75695 5.41998 7.79356C5.38337 7.83017 5.3338 7.85087 5.28202 7.85116Z" fill="#50E6FF"/>
<path d="M19.3455 21.3955C19.3039 21.3955 19.2641 21.379 19.2347 21.3496C19.2053 21.3203 19.1888 21.2804 19.1888 21.2389C19.1882 20.7655 18.9999 20.3117 18.6652 19.9769C18.3304 19.6422 17.8766 19.4539 17.4032 19.4533C17.3619 19.4533 17.3222 19.4369 17.2929 19.4078C17.2635 19.3787 17.2469 19.3391 17.2466 19.2977C17.2466 19.2562 17.2631 19.2163 17.2925 19.187C17.3218 19.1576 17.3617 19.1411 17.4032 19.1411C17.8767 19.1408 18.3307 18.9526 18.6655 18.6178C19.0003 18.283 19.1885 17.829 19.1888 17.3555C19.1888 17.314 19.2053 17.2741 19.2347 17.2447C19.2641 17.2154 19.3039 17.1989 19.3455 17.1989C19.387 17.1989 19.4269 17.2154 19.4563 17.2447C19.4856 17.2741 19.5021 17.314 19.5021 17.3555C19.5024 17.829 19.6906 18.283 20.0254 18.6178C20.3602 18.9526 20.8142 19.1408 21.2877 19.1411C21.3292 19.1411 21.3691 19.1576 21.3985 19.187C21.4279 19.2163 21.4444 19.2562 21.4444 19.2977C21.4444 19.3393 21.4279 19.3791 21.3985 19.4085C21.3691 19.4379 21.3292 19.4544 21.2877 19.4544C20.8143 19.455 20.3605 19.6433 20.0258 19.978C19.691 20.3128 19.5027 20.7666 19.5021 21.24C19.5018 21.2813 19.4852 21.3209 19.4559 21.35C19.4265 21.3792 19.3868 21.3955 19.3455 21.3955Z" fill="#50E6FF"/>
<mask id="mask0_1279_177719" style="mask-type:luminance" maskUnits="userSpaceOnUse" x="5" y="5" width="14" height="14">
<path d="M18.6323 10.3666C18.9457 11.6784 18.863 13.0536 18.3948 14.3183C17.9266 15.5831 17.0939 16.6807 16.002 17.4722C14.91 18.2637 13.6078 18.7136 12.2602 18.765C10.9125 18.8165 9.57984 18.4671 8.43071 17.7612C7.28158 17.0552 6.3676 16.0244 5.80434 14.799C5.24108 13.5736 5.05384 12.2087 5.2663 10.8769C5.47877 9.54508 6.08138 8.30618 6.99796 7.31686C7.91453 6.32753 9.10388 5.63222 10.4156 5.31885C12.1746 4.89864 14.0285 5.19439 15.5694 6.14103C17.1103 7.08767 18.2121 8.60766 18.6323 10.3666Z" fill="white"/>
</mask>
<g mask="url(#mask0_1279_177719)">
<path fill-rule="evenodd" clip-rule="evenodd" d="M18.7029 10.6994C18.9289 11.9093 18.8234 13.1601 18.3947 14.3183C17.9265 15.5831 17.0938 16.6807 16.0018 17.4722C14.9098 18.2637 13.6077 18.7136 12.26 18.765C10.9124 18.8165 9.57969 18.4671 8.43056 17.7612C7.89367 17.4314 7.40811 17.0306 6.98566 16.5722H8.34303C8.58573 16.5786 8.82725 16.5363 9.05337 16.4479C9.27948 16.3595 9.48563 16.2268 9.65967 16.0575C9.8337 15.8882 9.97211 15.6858 10.0667 15.4622C10.1614 15.2387 10.2103 14.9984 10.2107 14.7556C10.2111 14.5128 10.1628 14.2724 10.0689 14.0486C9.97495 13.8247 9.83716 13.6219 9.66364 13.4521C9.49013 13.2823 9.28439 13.1489 9.05854 13.0598C8.83269 12.9707 8.59131 12.9277 8.34859 12.9333C8.35396 12.8817 8.35656 12.8297 8.35636 12.7778C8.35196 12.2922 8.15522 11.8282 7.80927 11.4875C7.46332 11.1467 6.99638 10.957 6.51081 10.96H5.25342C5.25749 10.9323 5.26174 10.9046 5.26615 10.8769C5.47862 9.54508 6.08123 8.30618 6.99781 7.31686C7.91438 6.32753 9.10373 5.63222 10.4155 5.31885C12.1744 4.89864 14.0283 5.19439 15.5692 6.14103C16.14 6.49169 16.6506 6.92103 17.0885 7.41205C17.0027 7.38027 16.9147 7.35435 16.8253 7.33445C16.5333 7.25115 16.2262 7.23519 15.9272 7.28776C15.6282 7.34034 15.345 7.46009 15.0989 7.63798C14.8529 7.81588 14.6504 8.04729 14.5068 8.31478C14.3632 8.58227 14.2821 8.87887 14.2697 9.18223C14.1959 9.1737 14.1217 9.16888 14.0475 9.16778C13.5924 9.16775 13.1519 9.32854 12.8038 9.62176C12.4558 9.91498 12.2225 10.3218 12.1453 10.7703C12.0681 11.2188 12.1518 11.6801 12.3818 12.0729C12.6117 12.4656 12.973 12.7645 13.4019 12.9167C13.5934 12.9917 13.7974 13.0294 14.003 13.0278H16.2586C17.1587 12.3464 17.9787 11.5653 18.7029 10.6994Z" fill="url(#paint0_radial_1279_177719)"/>
</g>
<path d="M21.1012 6.25776C20.4023 5.09442 18.7679 4.64109 16.4845 4.98109C15.7022 5.09196 14.9291 5.25982 14.1712 5.48331C14.7724 5.69086 15.3433 5.97745 15.869 6.33554C16.1367 6.27665 16.4056 6.20665 16.6634 6.16776C17.0689 6.10462 17.4786 6.07157 17.889 6.06887C18.2902 6.01103 18.6995 6.05443 19.0796 6.19512C19.4598 6.33582 19.7987 6.56933 20.0656 6.87442C20.4912 7.58331 20.1323 8.79554 19.0812 10.2078C17.6204 12.026 15.8303 13.553 13.8045 14.7089C11.8241 15.9449 9.62893 16.7975 7.33341 17.2222C5.59564 17.4822 4.35341 17.2222 3.92786 16.5155C3.5023 15.8089 3.86119 14.5933 4.9123 13.1878C5.0423 13.0133 5.07453 12.9278 5.2223 12.7522C5.15285 12.1498 5.16256 11.5409 5.25119 10.9411C4.7788 11.4146 4.34415 11.9243 3.95119 12.4655C2.57453 14.3066 2.20119 15.9622 2.89897 17.1255C3.26758 17.6187 3.7592 18.0064 4.32466 18.2499C4.89012 18.4935 5.50962 18.5843 6.12119 18.5133C6.58664 18.5108 7.05126 18.4737 7.51119 18.4022C9.9615 17.955 12.3057 17.0503 14.4212 15.7355C16.5817 14.4991 18.4895 12.8661 20.0445 10.9222C21.4256 9.07665 21.799 7.4222 21.1012 6.25776Z" fill="#50E6FF"/>
<path d="M18.145 10.4806C18.4354 11.6962 18.3588 12.9705 17.925 14.1426C17.4911 15.3146 16.7194 16.3317 15.7075 17.0651C14.6956 17.7986 13.489 18.2155 12.2401 18.2632C10.9913 18.3109 9.75633 17.9872 8.69146 17.333C7.62659 16.6788 6.77963 15.7235 6.25767 14.588C5.73571 13.4524 5.5622 12.1876 5.75908 10.9535C5.95597 9.7193 6.5144 8.57125 7.36376 7.65447C8.21312 6.73769 9.31527 6.09336 10.5308 5.80297C12.1608 5.41357 13.8787 5.68763 15.3067 6.56486C16.7346 7.44209 17.7556 8.85063 18.145 10.4806Z" stroke="black"/>
</g>
<defs>
<radialGradient id="paint0_radial_1279_177719" cx="0" cy="0" r="1" gradientUnits="userSpaceOnUse" gradientTransform="translate(11.9476 11.9488) scale(6.85372 6.79418)">
<stop offset="0.183" stop-color="#5EA0EF"/>
<stop offset="1" stop-color="#0078D4"/>
</radialGradient>
<clipPath id="clip0_1279_177719">
<rect width="20" height="20" fill="white" transform="translate(2 2)"/>
</clipPath>
</defs>
</svg>
