<svg width="24" height="24" viewBox="0 0 24 24" fill="none" xmlns="http://www.w3.org/2000/svg">
<path fill-rule="evenodd" clip-rule="evenodd" d="M14.361 12.139V4.159C14.3609 4.07233 14.3437 3.98653 14.3104 3.90651C14.2771 3.82648 14.2284 3.7538 14.167 3.6926C14.1056 3.63141 14.0328 3.5829 13.9526 3.54986C13.8725 3.51681 13.7867 3.49987 13.7 3.5H3.659C3.48422 3.5 3.3166 3.56943 3.19302 3.69302C3.06943 3.8166 3 3.98422 3 4.159V12.139C2.99987 12.2257 3.01681 12.3115 3.04986 12.3916C3.0829 12.4718 3.13141 12.5446 3.1926 12.606C3.2538 12.6674 3.32648 12.7161 3.40651 12.7494C3.48653 12.7827 3.57233 12.7999 3.659 12.8H7.769C7.79293 12.7991 7.81647 12.8062 7.836 12.82L9.938 14.439C9.97055 14.4637 10.0093 14.4789 10.05 14.4828C10.0907 14.4867 10.1316 14.4792 10.1683 14.4611C10.2049 14.443 10.2358 14.4151 10.2575 14.3805C10.2792 14.3458 10.2908 14.3059 10.291 14.265V12.91C10.291 12.881 10.3025 12.8532 10.3229 12.8326C10.3433 12.812 10.371 12.8003 10.4 12.8H13.7C13.7869 12.8003 13.873 12.7833 13.9533 12.7502C14.0336 12.7171 14.1066 12.6684 14.168 12.607C14.2294 12.5456 14.2781 12.4726 14.3112 12.3923C14.3443 12.312 14.3613 12.2259 14.361 12.139ZM11.3708 8.55692C11.4242 8.29489 11.4509 8.02813 11.4505 7.76072C11.4505 7.48953 11.4211 7.21914 11.3629 6.95428C11.3107 6.6949 11.2345 6.44092 11.1354 6.19562C11.0357 5.95055 10.9114 5.71618 10.7646 5.4961C10.6498 5.3243 10.522 5.16155 10.3824 5.00928C10.3658 4.99204 10.346 4.97833 10.324 4.96896C10.302 4.95959 10.2783 4.95476 10.2544 4.95476C10.2305 4.95476 10.2069 4.95959 10.1849 4.96896C10.1629 4.97833 10.143 4.99204 10.1265 5.00928L10.0901 5.04454C10.0581 5.07833 10.0403 5.12311 10.0403 5.16965C10.0403 5.2162 10.0581 5.26097 10.0901 5.29477C10.2149 5.42975 10.329 5.57426 10.4313 5.72699C10.5648 5.92535 10.679 6.13597 10.7725 6.35599C10.8638 6.57602 10.9328 6.80465 10.9784 7.03845C11.0724 7.51231 11.0724 8.00003 10.9784 8.47389C10.8864 8.94272 10.702 9.38854 10.4359 9.78535C10.3329 9.93689 10.2188 10.0806 10.0946 10.2153C10.0624 10.249 10.0444 10.2938 10.0444 10.3404C10.0444 10.387 10.0624 10.4319 10.0946 10.4655L10.1299 10.4997C10.1465 10.5171 10.1664 10.5309 10.1885 10.5404C10.2106 10.5499 10.2344 10.5548 10.2584 10.5548C10.2825 10.5548 10.3063 10.5499 10.3284 10.5404C10.3504 10.5309 10.3704 10.5171 10.387 10.4997C10.5251 10.3469 10.6528 10.185 10.7691 10.0151C10.9186 9.79604 11.0441 9.56151 11.1433 9.31559C11.2429 9.07044 11.3191 8.81642 11.3708 8.55692ZM9.6226 5.88055C9.82782 6.11486 9.99341 6.38111 10.1128 6.66879V6.67789C10.401 7.37575 10.401 8.15934 10.1128 8.8572C9.99287 9.1446 9.82734 9.41077 9.6226 9.64544C9.60612 9.663 9.58621 9.677 9.5641 9.68657C9.54199 9.69613 9.51816 9.70107 9.49407 9.70107C9.46999 9.70107 9.44615 9.69613 9.42405 9.68657C9.40194 9.677 9.38203 9.663 9.36554 9.64544L9.33028 9.61018C9.29807 9.57898 9.27897 9.53667 9.27685 9.49187C9.27474 9.44707 9.28978 9.40315 9.31891 9.36905C9.70875 8.92462 9.9237 8.35361 9.9237 7.76243C9.9237 7.17125 9.70875 6.60023 9.31891 6.15581C9.28985 6.12189 9.27485 6.07816 9.27696 6.03355C9.27908 5.98894 9.29815 5.94682 9.33028 5.91581L9.36554 5.88055C9.38203 5.86299 9.40194 5.84899 9.42405 5.83942C9.44615 5.82986 9.46999 5.82492 9.49407 5.82492C9.51816 5.82492 9.54199 5.82986 9.5641 5.83942C9.58621 5.84899 9.60612 5.86299 9.6226 5.88055ZM8.86735 7.2921C8.82527 7.19158 8.77061 7.09679 8.7047 7.01002C8.67953 6.97653 8.66728 6.93509 8.67021 6.8933C8.67313 6.85151 8.69103 6.81218 8.72062 6.78253L8.75929 6.74499C8.77718 6.72695 8.79868 6.7129 8.82239 6.70377C8.84609 6.69465 8.87147 6.69065 8.89683 6.69205C8.9222 6.69345 8.94698 6.7002 8.96954 6.71188C8.99211 6.72355 9.01194 6.73988 9.02773 6.75978C9.11841 6.87463 9.19232 7.00178 9.24725 7.13741C9.32748 7.33512 9.36955 7.54622 9.37123 7.75958C9.37181 7.97283 9.33086 8.18416 9.25066 8.38176C9.19262 8.51823 9.11608 8.64606 9.02318 8.76166C9.0072 8.78115 8.98733 8.79708 8.96483 8.80843C8.94234 8.81979 8.91772 8.82632 8.89255 8.82761C8.86738 8.82889 8.84222 8.8249 8.81869 8.8159C8.79515 8.80689 8.77376 8.79307 8.75588 8.77531L8.72176 8.74119C8.69131 8.71084 8.67291 8.67048 8.66998 8.62759C8.66706 8.5847 8.67979 8.54221 8.70583 8.50801C8.77248 8.42316 8.82685 8.32935 8.86735 8.22934C8.99023 7.92901 8.99023 7.59243 8.86735 7.2921ZM6.00671 6.54026H6.42984L6.43211 6.54139C6.52616 6.54246 6.61685 6.50651 6.68462 6.4413L7.74698 5.3687C7.78109 5.33545 7.82674 5.3167 7.87437 5.31638C7.9026 5.31638 7.93056 5.32194 7.95664 5.33275C7.98272 5.34355 8.00642 5.35938 8.02638 5.37935C8.04635 5.39931 8.06218 5.42301 8.07298 5.44909C8.08379 5.47517 8.08935 5.50312 8.08935 5.53136V9.98781C8.08935 10.0442 8.06694 10.0983 8.02705 10.1382C7.98716 10.1781 7.93306 10.2005 7.87665 10.2005C7.82939 10.2 7.78415 10.1813 7.75039 10.1482L6.68462 9.08469C6.61766 9.01771 6.52683 8.98006 6.43211 8.98005H6.00671C5.91208 8.97975 5.82141 8.94202 5.7545 8.87511C5.68758 8.80819 5.64986 8.71752 5.64956 8.62289V6.89627C5.64986 6.80175 5.68762 6.7112 5.75457 6.64446C5.82151 6.57773 5.91219 6.54026 6.00671 6.54026Z" fill="url(#paint0_linear_4768_4153)"/>
<path fill-rule="evenodd" clip-rule="evenodd" d="M20.3411 9.51904H10.3001C10.1257 9.51957 9.95868 9.58906 9.8354 9.71235C9.71211 9.83563 9.64262 10.0027 9.64209 10.177V18.158C9.64235 18.3325 9.71176 18.4997 9.83511 18.623C9.95845 18.7464 10.1257 18.8158 10.3001 18.816H13.5941C13.6231 18.8163 13.6508 18.828 13.6712 18.8486C13.6916 18.8692 13.7031 18.897 13.7031 18.926V20.28C13.7029 20.3211 13.7143 20.3613 13.7359 20.3962C13.7575 20.431 13.7885 20.4591 13.8253 20.4773C13.8621 20.4954 13.9032 20.5028 13.944 20.4987C13.9848 20.4946 14.0236 20.4791 14.0561 20.454L16.1641 18.839C16.1832 18.8241 16.2068 18.816 16.2311 18.816H20.3411C20.5156 18.8158 20.6829 18.7464 20.8064 18.6231C20.9299 18.4998 20.9996 18.3326 21.0001 18.158V10.177C20.9998 10.0024 20.9303 9.83508 20.8067 9.71171C20.6832 9.58834 20.5157 9.51904 20.3411 9.51904ZM18.8692 13.5277C18.7238 13.4308 18.5528 13.3791 18.378 13.3793C18.144 13.3793 17.9196 13.4723 17.7541 13.6377C17.5886 13.8032 17.4957 14.0276 17.4957 14.2616C17.4955 14.4365 17.5471 14.6074 17.6441 14.7528C17.7411 14.8983 17.8791 15.0117 18.0405 15.0787C18.202 15.1457 18.3797 15.1632 18.5512 15.1292C18.7226 15.0951 18.8801 15.011 19.0038 14.8874C19.1274 14.7638 19.2115 14.6063 19.2456 14.4348C19.2796 14.2633 19.262 14.0856 19.1951 13.9242C19.1281 13.7627 19.0147 13.6247 18.8692 13.5277ZM14.8269 14.7602C14.73 14.6148 14.6784 14.4439 14.6786 14.2691C14.6788 14.035 14.772 13.8106 14.9377 13.6451C15.1033 13.4797 15.3279 13.3867 15.562 13.3867C15.7367 13.3867 15.9076 13.4386 16.0529 13.5357C16.1982 13.6328 16.3114 13.7708 16.3782 13.9323C16.4451 14.0938 16.4625 14.2715 16.4283 14.4429C16.3942 14.6143 16.3099 14.7717 16.1863 14.8952C16.0626 15.0187 15.9051 15.1027 15.7337 15.1367C15.5622 15.1707 15.3846 15.153 15.2232 15.086C15.0618 15.019 14.9239 14.9056 14.8269 14.7602ZM12.0109 14.7602C11.9139 14.6148 11.8623 14.4439 11.8625 14.2691C11.8628 14.035 11.956 13.8106 12.1216 13.6451C12.2873 13.4797 12.5118 13.3867 12.7459 13.3867C12.9207 13.3867 13.0915 13.4386 13.2368 13.5357C13.3821 13.6328 13.4953 13.7708 13.5622 13.9323C13.629 14.0938 13.6464 14.2715 13.6123 14.4429C13.5781 14.6143 13.4938 14.7717 13.3702 14.8952C13.2465 15.0187 13.089 15.1027 12.9176 15.1367C12.7462 15.1707 12.5685 15.153 12.4071 15.086C12.2457 15.019 12.1078 14.9056 12.0109 14.7602Z" fill="#50E6FF" fill-opacity="0.7"/>
<defs>
<linearGradient id="paint0_linear_4768_4153" x1="8.681" y1="2.638" x2="8.681" y2="18.508" gradientUnits="userSpaceOnUse">
<stop stop-color="#5EA0EF"/>
<stop offset="1" stop-color="#0078D4"/>
</linearGradient>
</defs>
</svg>
