<?xml version="1.0" encoding="UTF-8"?>
<svg width="24px" height="24px" viewBox="0 0 24 24" version="1.1" xmlns="http://www.w3.org/2000/svg" xmlns:xlink="http://www.w3.org/1999/xlink">
    <title>🥬/ ic_settings</title>
    <g id="🥬/-ic_settings" stroke="none" stroke-width="1" fill="none" fill-rule="evenodd">
        <g id="#gr" fill="#000000" fill-rule="nonzero">
            <rect id="Rectangle" opacity="0" transform="translate(12.000000, 12.000000) rotate(180.000000) translate(-12.000000, -12.000000) " x="-1.77635684e-15" y="1.77635684e-15" width="24" height="24"></rect>
            <circle id="Oval" cx="12" cy="12" r="1.5"></circle>
            <path d="M20.32,9.37 L19.23,9.37 C19.09,9.37 18.99,9.26 18.93,9.11 C18.8570174,8.99746355 18.8570174,8.85253645 18.93,8.74 L19.74,8 C20.0607877,7.69143242 20.2414358,7.26510293 20.24,6.82 C20.2395608,6.37235219 20.0594219,5.94362145 19.74,5.63 L18.4,4.26 C18.0864844,3.94427896 17.6599402,3.76672214 17.215,3.76672214 C16.7700598,3.76672214 16.3435156,3.94427896 16.03,4.26 L15.26,5 C15.1350559,5.08005209 14.9749441,5.08005209 14.85,5 C14.7267387,4.95403487 14.6410545,4.84108755 14.63,4.71 L14.63,3.68 C14.6304025,2.77134221 13.9082554,2.0270433 13,2 L11.06,2 C10.1305301,2 9.37549982,2.75054638 9.37,3.68 L9.37,4.77 C9.37,4.91 9.26,5.01 9.11,5.07 C8.99746355,5.14298262 8.85253645,5.14298262 8.74,5.07 L8,4.26 C7.6832832,3.94516996 7.25653455,3.7658638 6.81,3.76 C6.36536414,3.76086745 5.93989746,3.94114994 5.63,4.26 L4.26,5.6 C3.93494191,5.91460789 3.75142154,6.3476275 3.75142154,6.8 C3.75142154,7.2523725 3.93494191,7.68539211 4.26,8 L5,8.74 C5.08005209,8.8649441 5.08005209,9.0250559 5,9.15 C4.95403487,9.27326133 4.84108755,9.3589455 4.71,9.37 L3.68,9.37 C2.75216162,9.37 2,10.1221616 2,11.05 L2,12.94 C2,13.8694699 2.75054638,14.6245002 3.68,14.63 L4.77,14.63 C4.91,14.63 5.01,14.74 5.07,14.89 C5.14298262,15.0025364 5.14298262,15.1474636 5.07,15.26 L4.26,16 C3.94516996,16.3167168 3.7658638,16.7434654 3.76,17.19 C3.75930826,17.6378756 3.93962393,18.0670269 4.26,18.38 L5.6,19.74 C5.91351556,20.055721 6.3400598,20.2332779 6.785,20.2332779 C7.2299402,20.2332779 7.65648444,20.055721 7.97,19.74 L8.74,19 C8.8649441,18.9199479 9.0250559,18.9199479 9.15,19 C9.27326133,19.0459651 9.3589455,19.1589124 9.37,19.29 L9.37,20.38 C9.40231779,21.2843261 10.1450968,22.0005773 11.05,22 L12.94,22 C13.8694699,22 14.6245002,21.2494536 14.63,20.32 L14.63,19.23 C14.63,19.09 14.74,18.99 14.89,18.93 C15.0025364,18.8570174 15.1474636,18.8570174 15.26,18.93 L16.02,19.7 C16.3367168,20.01483 16.7634654,20.1941362 17.21,20.2 C17.6546359,20.1991326 18.0801025,20.0188501 18.39,19.7 L19.73,18.36 C20.045721,18.0464844 20.2232779,17.6199402 20.2232779,17.175 C20.2232779,16.7300598 20.045721,16.3035156 19.73,15.99 L19,15.26 C18.9270174,15.1474636 18.9270174,15.0025364 19,14.89 C19.0459651,14.7667387 19.1589124,14.6810545 19.29,14.67 L20.38,14.67 C21.2804627,14.6378328 21.9952111,13.9010244 22,13 L22,11.06 C22,10.1305301 21.2494536,9.37549982 20.32,9.37 Z M12,15.5 C10.5843821,15.5 9.30815514,14.6472524 8.76642164,13.339392 C8.22468814,12.0315316 8.52413328,10.5261193 9.52512627,9.52512627 C10.5261193,8.52413328 12.0315316,8.22468814 13.339392,8.76642164 C14.6472524,9.30815514 15.5,10.5843821 15.5,12 C15.5,13.9329966 13.9329966,15.5 12,15.5 L12,15.5 Z" id="Shape"></path>
        </g>
    </g>
</svg>