<svg width="24" height="24" viewBox="0 0 24 24" fill="none" xmlns="http://www.w3.org/2000/svg">
<path fill-rule="evenodd" clip-rule="evenodd" d="M13.4981 4.128C13.1865 4 12.7908 4 12 4C11.2093 4 10.8136 4 10.502 4.128C10.0872 4.29827 9.75706 4.62631 9.58411 5.03997C9.50496 5.22776 9.47464 5.44754 9.46201 5.76669C9.4564 5.99793 9.39189 6.22391 9.2746 6.42328C9.15731 6.62264 8.99111 6.78879 8.79171 6.90603C8.58856 7.01895 8.36018 7.07878 8.12775 7.07995C7.89532 7.08113 7.66636 7.02362 7.46207 6.91276C7.17744 6.76287 6.97113 6.68035 6.76735 6.6534C6.32151 6.59486 5.87059 6.7147 5.51265 6.98687C5.24486 7.19065 5.04697 7.53085 4.65204 8.21041C4.25626 8.88997 4.05921 9.22933 4.01458 9.56195C3.95564 10.0049 4.0769 10.4529 4.35141 10.8074C4.47604 10.9691 4.65204 11.1046 4.92403 11.2747C5.3257 11.5248 5.58338 11.9509 5.58338 12.4208C5.58338 12.8907 5.3257 13.3168 4.92487 13.5661C4.65204 13.737 4.47604 13.8726 4.35057 14.0343C4.21507 14.2094 4.11561 14.4096 4.05794 14.6233C4.00027 14.8371 3.98553 15.0602 4.01458 15.2797C4.05921 15.6115 4.25626 15.9517 4.65204 16.6312L4.65676 16.6393C5.04939 17.3135 5.24593 17.651 5.51265 17.8548C5.86969 18.1268 6.32104 18.2463 6.76735 18.1882C6.97113 18.1613 7.17744 18.0788 7.46207 17.9289C7.66646 17.8179 7.89558 17.7603 8.12818 17.7615C8.36077 17.7626 8.5893 17.8225 8.79256 17.9356C9.20181 18.1714 9.44433 18.6051 9.46201 19.075C9.47464 19.3949 9.50496 19.6139 9.58411 19.8017C9.7559 20.2143 10.086 20.5427 10.502 20.7136C10.8136 20.8416 11.2093 20.8416 12 20.8416C12.7908 20.8416 13.1865 20.8416 13.4981 20.7136C13.9129 20.5434 14.243 20.2153 14.416 19.8017C14.4951 19.6139 14.5255 19.3949 14.5381 19.075C14.5549 18.6051 14.7983 18.1706 15.2084 17.9356C15.4115 17.8227 15.6399 17.7629 15.8723 17.7617C16.1048 17.7605 16.3337 17.818 16.538 17.9289C16.8227 18.0788 17.029 18.1613 17.2327 18.1882C17.6791 18.2472 18.1304 18.1268 18.4874 17.8548C18.7552 17.651 18.9531 17.3108 19.3481 16.6312C19.7438 15.9517 19.9409 15.6123 19.9855 15.2797C20.0144 15.0601 19.9996 14.837 19.9418 14.6233C19.8839 14.4095 19.7843 14.2093 19.6487 14.0343C19.5241 13.8726 19.3481 13.737 19.0761 13.5669C18.6744 13.3168 18.4167 12.8907 18.4167 12.4208C18.4167 11.9509 18.6744 11.5248 19.0752 11.2756C19.3481 11.1046 19.5241 10.9691 19.6495 10.8074C19.785 10.6323 19.8845 10.4321 19.9422 10.2183C19.9998 10.0045 20.0146 9.78145 19.9855 9.56195C19.9409 9.23017 19.7438 8.88997 19.3481 8.21041L19.3433 8.20229C18.9507 7.52815 18.7542 7.19067 18.4874 6.98687C18.1295 6.7147 17.6786 6.59486 17.2327 6.6534C17.029 6.68035 16.8227 6.76287 16.538 6.91276C16.3336 7.02377 16.1045 7.08136 15.8719 7.08018C15.6393 7.07901 15.4108 7.0191 15.2075 6.90603C15.0083 6.78869 14.8423 6.62249 14.7251 6.42314C14.608 6.22378 14.5436 5.99785 14.5381 5.76669C14.5255 5.4467 14.4951 5.22776 14.416 5.03997C14.3304 4.83512 14.2053 4.64915 14.0478 4.49267C13.8903 4.33619 13.7035 4.21227 13.4981 4.128ZM14.545 12.4208C14.545 13.8162 13.4048 14.9471 11.9994 14.9471C10.5931 14.9471 9.4538 13.8162 9.4538 12.4208C9.4538 11.0255 10.5931 9.89458 11.9994 9.89458C13.4057 9.89458 14.545 11.0255 14.545 12.4208Z" stroke="#637381" stroke-width="1.5"/>
</svg>
