<svg width="24" height="24" viewBox="0 0 24 24" fill="none" xmlns="http://www.w3.org/2000/svg">
<path d="M19.6672 18.9153C17.9961 18.1298 17.0375 16.4459 17.0375 14.2879V13.0539C17.0381 12.825 16.9671 12.6012 16.8338 12.4118C16.7005 12.2224 16.511 12.0761 16.2901 11.9921L14.4448 11.288C14.2996 11.232 14.1833 11.123 14.1211 10.9847C14.059 10.8463 14.056 10.69 14.113 10.5496L15.6923 6.76484C15.7995 6.51643 15.8535 6.24973 15.8513 5.9807C15.849 5.71167 15.7904 5.44585 15.6791 5.19915C15.5677 4.95245 15.4059 4.72996 15.2032 4.54499C15.0005 4.36002 14.7612 4.21638 14.4996 4.12267C13.9901 3.94269 13.4278 3.96136 12.9323 4.17472C12.4368 4.38808 12.0472 4.77929 11.8462 5.26523C11.8459 5.26808 11.8459 5.27095 11.8462 5.2738L10.2891 9.07424C10.2312 9.21485 10.1178 9.32756 9.9738 9.38767C9.8298 9.44778 9.66693 9.45037 9.52095 9.39488L7.63792 8.65578C7.42081 8.57097 7.18239 8.55054 6.95317 8.5971C6.72395 8.64366 6.51436 8.7551 6.35121 8.91714C4.79115 10.4632 4.00002 12.2698 4.00002 14.2872C3.99592 16.3516 4.8241 18.3368 6.30972 19.8236C6.36539 19.8797 6.43232 19.9243 6.50645 19.9546C6.58057 19.9849 6.66033 20.0004 6.74085 20H19.408C19.5419 19.9999 19.6719 19.956 19.7766 19.8756C19.8814 19.7951 19.9548 19.6828 19.9849 19.557C20.0149 19.4312 19.9999 19.2992 19.9422 19.1827C19.8845 19.0661 19.7876 18.9719 19.6672 18.9153ZM7.19568 9.71694L9.07797 10.4525C9.29524 10.5363 9.52754 10.5779 9.76154 10.5749C9.99553 10.572 10.2266 10.5245 10.4416 10.4353C10.6565 10.3461 10.851 10.2168 11.014 10.0549C11.177 9.89305 11.3053 9.70175 11.3914 9.49199L12.947 5.70726C13.1366 5.27094 13.6485 5.04529 14.09 5.20739C14.2026 5.24765 14.3055 5.30947 14.3926 5.38912C14.4797 5.46878 14.5491 5.56461 14.5968 5.67085C14.6444 5.77709 14.6692 5.89153 14.6697 6.00726C14.6702 6.12299 14.6464 6.23762 14.5996 6.34424L13.0144 10.1283C12.8408 10.5503 12.8481 11.0216 13.0346 11.4385C13.2212 11.8554 13.5717 12.184 14.0092 12.352L15.8523 13.0539V14.3586L6.35343 10.696C6.60596 10.348 6.88766 10.0205 7.19568 9.71694ZM10.7514 18.8574C9.86905 18.0416 9.244 17.0018 8.94834 15.8582C8.90713 15.7136 8.80856 15.5903 8.67392 15.5152C8.53928 15.44 8.37937 15.4188 8.22871 15.4564C8.07805 15.4939 7.94874 15.587 7.86869 15.7156C7.78865 15.8442 7.76429 15.9981 7.80089 16.1438C8.05936 17.1277 8.52203 18.0508 9.16093 18.8574H6.99567C5.82688 17.6021 5.1819 15.974 5.18524 14.2872C5.17799 13.3935 5.37342 12.509 5.75785 11.6957L15.9656 15.6318C16.1878 16.9172 16.7479 18.0226 17.5872 18.8567L10.7514 18.8574Z" fill="#637381" stroke="#637381" stroke-width="0.3"/>
</svg>
