<svg width="24" height="24" viewBox="0 0 24 24" fill="none" xmlns="http://www.w3.org/2000/svg">
<path d="M0 12C0 5.37258 5.37258 0 12 0V0C18.6274 0 24 5.37258 24 12V12C24 18.6274 18.6274 24 12 24V24C5.37258 24 0 18.6274 0 12V12Z" fill="#00A7D6"/>
<path d="M14.6853 12.7409C15.4831 12.7409 16.1298 13.3876 16.1298 14.1853V14.5294C16.1298 16.2521 14.1025 17.5558 11.3149 17.5558C8.52733 17.5558 6.5 16.3199 6.5 14.5294V14.1853C6.5 13.3876 7.14671 12.7409 7.94447 12.7409H14.6853ZM14.6853 13.4631H7.94447C7.56905 13.4631 7.26054 13.7495 7.22554 14.1158L7.22224 14.1853V14.5294C7.22224 15.8171 8.8539 16.8335 11.3149 16.8335C13.6867 16.8335 15.3376 15.82 15.4054 14.6071L15.4076 14.5294V14.1853C15.4076 13.8099 15.1211 13.5014 14.7549 13.4664L14.6853 13.4631ZM11.3149 6C12.9104 6 14.2038 7.29342 14.2038 8.88894C14.2038 10.4845 12.9104 11.7779 11.3149 11.7779C9.71938 11.7779 8.42596 10.4845 8.42596 8.88894C8.42596 7.29342 9.71938 6 11.3149 6ZM11.3149 6.72224C10.1183 6.72224 9.1482 7.6923 9.1482 8.88894C9.1482 10.0856 10.1183 11.0556 11.3149 11.0556C12.5115 11.0556 13.4816 10.0856 13.4816 8.88894C13.4816 7.6923 12.5115 6.72224 11.3149 6.72224Z" fill="white"/>
<circle cx="15.1664" cy="14.1853" r="4.09267" fill="#00A7D6" stroke="#00A7D6" stroke-width="0.48149"/>
<path d="M19.171 15.8441C19.3805 15.339 19.4972 14.7856 19.4998 14.2053C19.4998 14.1987 19.4998 14.192 19.4998 14.1853C19.4998 14.1787 19.4998 14.172 19.4998 14.1653C19.4998 14.1787 19.4998 14.192 19.4998 14.2053C19.4972 14.7631 19.3876 15.3205 19.171 15.8441Z" fill="white"/>
<path d="M16.8252 18.1899C16.3016 18.4066 15.7442 18.5161 15.1864 18.5187C15.1731 18.5188 15.1598 18.5188 15.1464 18.5187C14.5886 18.5161 14.0312 18.4066 13.5077 18.1899C14.0128 18.3994 14.5661 18.5161 15.1464 18.5187C15.1531 18.5187 15.1597 18.5188 15.1664 18.5188C15.1731 18.5188 15.1798 18.5187 15.1864 18.5187C15.7667 18.5161 16.32 18.3994 16.8252 18.1899Z" fill="white"/>
<path d="M11.1618 15.8441C10.9507 15.335 10.8339 14.777 10.833 14.1918C10.8339 14.7541 10.9435 15.3163 11.1618 15.8441Z" fill="white"/>
<path d="M10.833 14.1788C10.833 14.1832 10.833 14.1875 10.833 14.1918L10.833 14.1853L10.833 14.1788Z" fill="white"/>
<path d="M10.833 14.1788C10.8339 13.6165 10.9435 13.0544 11.1618 12.5266C10.9507 13.0356 10.8339 13.5936 10.833 14.1788Z" fill="white"/>
<path d="M12.0976 11.1258L12.1022 11.1212L12.1068 11.1166C13.3836 9.84358 15.2563 9.53163 16.8252 10.1807C16.3142 9.96887 15.754 9.85193 15.1664 9.85193C13.9721 9.85193 12.8907 10.3351 12.1068 11.1166C12.1038 11.1196 12.1007 11.1227 12.0976 11.1258Z" fill="white"/>
<path fill-rule="evenodd" clip-rule="evenodd" d="M12.7151 16.6367C11.3612 15.2828 11.3612 13.0878 12.7151 11.734C14.0689 10.3801 16.2639 10.3801 17.6178 11.734C18.9716 13.0878 18.9716 15.2828 17.6178 16.6367C16.2639 17.9905 14.0689 17.9905 12.7151 16.6367ZM15.5997 12.3468C15.5997 12.1075 15.4057 11.9135 15.1664 11.9135C14.9271 11.9135 14.733 12.1075 14.733 12.3468V13.752H13.3279C13.0886 13.752 12.8945 13.946 12.8945 14.1853C12.8945 14.4247 13.0886 14.6187 13.3279 14.6187H14.733V16.0238C14.733 16.2632 14.9271 16.4572 15.1664 16.4572C15.4057 16.4572 15.5997 16.2632 15.5997 16.0238V14.6187H17.0049C17.2442 14.6187 17.4382 14.4247 17.4382 14.1853C17.4382 13.946 17.2442 13.752 17.0049 13.752H15.5997V12.3468Z" fill="white"/>
</svg>
