<svg width="452" height="128" viewBox="0 0 452 128" fill="none" xmlns="http://www.w3.org/2000/svg">
<g clip-path="url(#clip0_863_73914)">
<path d="M83.0469 41.8281C83.0469 45.8149 79.8149 49.0469 75.8281 49.0469H70.4041C66.4468 49.0469 62.9733 51.6814 61.9062 55.4922V55.4922V37.7031C61.9062 33.7163 65.1382 30.4844 69.125 30.4844L75.8281 30.4844C79.8149 30.4844 83.0469 33.7163 83.0469 37.7031V41.8281Z" fill="url(#paint0_linear_863_73914)"/>
<path d="M89.75 49.0469H73.25L83.0469 38.4766L83.1309 39.7795C83.3952 43.8761 85.9607 47.468 89.75 49.0469Z" fill="url(#paint1_linear_863_73914)"/>
<path d="M48.2422 86.1719C48.2422 82.1851 51.4741 78.9531 55.4609 78.9531H60.8849C64.8423 78.9531 68.3158 76.3186 69.3828 72.5078V72.5078V90.2969C69.3828 94.2837 66.1509 97.5156 62.1641 97.5156H55.4609C51.4741 97.5156 48.2422 94.2837 48.2422 90.2969V86.1719Z" fill="url(#paint2_linear_863_73914)"/>
<path d="M41.5391 78.9531H58.0391L48.2422 89.5234L48.1581 88.2205C47.8938 84.1239 45.3284 80.532 41.5391 78.9531Z" fill="url(#paint3_linear_863_73914)"/>
<path d="M72.835 59.024C74.6115 53.1022 80.062 49.0469 86.2446 49.0469H94.6404C98.6316 49.0469 101.867 52.2824 101.867 56.2737V57.4997C101.867 60.2792 101.585 63.0515 101.026 65.7741L99.9137 71.1869C98.6433 77.3691 96.5706 83.3589 93.748 89.004V89.004C91.1398 94.2205 85.8081 97.5156 79.9759 97.5156H58.2969V97.5156C61.6068 97.5156 64.4685 95.2071 65.1689 91.9722L69.3828 72.5078L72.7344 59.3594L72.835 59.024Z" fill="url(#paint4_linear_863_73914)"/>
<path d="M57.6206 69.3803C55.715 75.0971 50.3651 78.9531 44.3391 78.9531H35.6174C31.6262 78.9531 28.3906 75.7176 28.3906 71.7263V70.5003C28.3906 67.7208 28.6725 64.9485 29.232 62.2259L30.3442 56.8131C31.6145 50.6309 33.6872 44.6411 36.5098 38.996V38.996C39.1181 33.7795 44.4497 30.4844 50.282 30.4844H71.9609V30.4844C69.6894 30.4844 67.7105 32.0333 67.1649 34.2384L61.9063 55.4922L57.7813 68.8984L57.6206 69.3803Z" fill="url(#paint5_linear_863_73914)"/>
<path d="M246.58 42.5994C250.215 42.5994 253.257 42.9591 255.706 43.6784C258.193 44.3578 260.048 45.4968 261.273 47.0953C262.535 48.6539 263.167 50.772 263.167 53.4496C263.167 55.0481 262.918 56.5068 262.42 57.8256C261.923 59.1444 261.196 60.2234 260.24 61.0626C259.321 61.9019 258.193 62.4414 256.854 62.6812V62.9809C258.231 63.2606 259.474 63.7602 260.584 64.4795C261.694 65.1989 262.574 66.2379 263.224 67.5967C263.874 68.9555 264.2 70.7538 264.2 72.9918C264.2 75.5894 263.587 77.8274 262.363 79.7057C261.177 81.544 259.455 82.9627 257.198 83.9618C254.94 84.921 252.262 85.4005 249.163 85.4005H233.84V42.5994H246.58ZM247.556 59.564C250.081 59.564 251.822 59.1444 252.779 58.3051C253.774 57.4659 254.271 56.247 254.271 54.6485C254.271 53.01 253.697 51.831 252.549 51.1117C251.401 50.3923 249.584 50.0327 247.097 50.0327H242.506V59.564H247.556ZM242.506 66.7575V77.9073H248.187C250.789 77.9073 252.607 77.3878 253.64 76.3488C254.673 75.2697 255.189 73.851 255.189 72.0926C255.189 71.0136 254.96 70.0745 254.5 69.2752C254.08 68.4759 253.334 67.8565 252.262 67.4169C251.191 66.9773 249.737 66.7575 247.9 66.7575H242.506Z" fill="url(#paint6_linear_863_73914)"/>
<path d="M207.064 42.5994C210.699 42.5994 213.741 42.9591 216.189 43.6784C218.676 44.3578 220.532 45.4968 221.756 47.0953C223.019 48.6539 223.65 50.772 223.65 53.4496C223.65 55.0481 223.401 56.5068 222.904 57.8256C222.407 59.1444 221.68 60.2234 220.723 61.0626C219.805 61.9019 218.676 62.4414 217.337 62.6812V62.9809C218.715 63.2606 219.958 63.7602 221.068 64.4795C222.177 65.1989 223.057 66.2379 223.708 67.5967C224.358 68.9555 224.683 70.7538 224.683 72.9918C224.683 75.5894 224.071 77.8274 222.847 79.7057C221.661 81.544 219.939 82.9627 217.682 83.9618C215.424 84.921 212.746 85.4005 209.647 85.4005H194.323V42.5994H207.064ZM208.04 59.564C210.565 59.564 212.306 59.1444 213.262 58.3051C214.257 57.4659 214.755 56.247 214.755 54.6485C214.755 53.01 214.181 51.831 213.033 51.1117C211.885 50.3923 210.068 50.0327 207.581 50.0327H202.989V59.564H208.04ZM202.989 66.7575V77.9073H208.671C211.273 77.9073 213.09 77.3878 214.123 76.3488C215.156 75.2697 215.673 73.851 215.673 72.0926C215.673 71.0136 215.443 70.0745 214.984 69.2752C214.563 68.4759 213.817 67.8565 212.746 67.4169C211.675 66.9773 210.221 66.7575 208.384 66.7575H202.989Z" fill="url(#paint7_linear_863_73914)"/>
<path d="M168.39 61.3624H184.631V83.5422C182.489 84.3015 180.25 84.901 177.917 85.3406C175.621 85.7802 173 86 170.054 86C165.998 86 162.536 85.1608 159.666 83.4823C156.835 81.8038 154.673 79.3261 153.181 76.049C151.727 72.772 151 68.7357 151 63.9401C151 59.4641 151.823 55.5876 153.468 52.3106C155.151 49.0336 157.581 46.4959 160.757 44.6975C163.932 42.8992 167.816 42 172.407 42C174.588 42 176.73 42.2398 178.835 42.7193C180.939 43.1989 182.852 43.8383 184.574 44.6376L181.704 51.891C180.442 51.2116 179.007 50.6521 177.4 50.2125C175.793 49.7729 174.11 49.5531 172.35 49.5531C169.824 49.5531 167.624 50.1526 165.75 51.3515C163.913 52.5504 162.478 54.2489 161.445 56.4469C160.45 58.6049 159.953 61.1626 159.953 64.1199C159.953 66.9173 160.317 69.3951 161.043 71.5531C161.77 73.7112 162.918 75.4096 164.487 76.6485C166.056 77.8474 168.103 78.4469 170.628 78.4469C171.47 78.4469 172.197 78.4269 172.809 78.3869C173.459 78.307 174.052 78.2271 174.588 78.1471C175.123 78.0272 175.64 77.9273 176.137 77.8474V68.9155H168.39V61.3624Z" fill="url(#paint8_linear_863_73914)"/>
<path d="M299.2 43L283.2 86H275.2L291.2 43H299.2Z" fill="url(#paint9_linear_863_73914)"/>
<path d="M339.132 49.2H347.621V85.2H339.132V49.2Z" fill="white"/>
<path d="M339.132 49.2H347.621V85.2H339.132V49.2Z" fill="url(#paint10_linear_863_73914)"/>
<path d="M300 85.2L312.797 49.2H321.585L334.407 85.2H325.992L323.328 77.532H311.178L308.465 85.2H300ZM313.021 70.2374H321.386L317.228 57.3411L313.021 70.2374Z" fill="white"/>
<path d="M300 85.2L312.797 49.2H321.585L334.407 85.2H325.992L323.328 77.532H311.178L308.465 85.2H300ZM313.021 70.2374H321.386L317.228 57.3411L313.021 70.2374Z" fill="url(#paint11_linear_863_73914)"/>
</g>
<defs>
<linearGradient id="paint0_linear_863_73914" x1="88.4609" y1="49.0469" x2="70.9297" y2="31.5156" gradientUnits="userSpaceOnUse">
<stop stop-color="#086EA1"/>
<stop offset="1" stop-color="#0F4B6E"/>
</linearGradient>
<linearGradient id="paint1_linear_863_73914" x1="88.4609" y1="49.0469" x2="70.9297" y2="31.5156" gradientUnits="userSpaceOnUse">
<stop stop-color="#086EA1"/>
<stop offset="1" stop-color="#0F4B6E"/>
</linearGradient>
<linearGradient id="paint2_linear_863_73914" x1="67.5781" y1="75.6338" x2="46.392" y2="88.7777" gradientUnits="userSpaceOnUse">
<stop stop-color="#0840C0"/>
<stop offset="1" stop-color="#1868E9"/>
</linearGradient>
<linearGradient id="paint3_linear_863_73914" x1="67.5781" y1="75.6338" x2="46.392" y2="88.7777" gradientUnits="userSpaceOnUse">
<stop stop-color="#0840C0"/>
<stop offset="1" stop-color="#1868E9"/>
</linearGradient>
<linearGradient id="paint4_linear_863_73914" x1="80.082" y1="49.0469" x2="80.082" y2="97.5156" gradientUnits="userSpaceOnUse">
<stop stop-color="#1582E5"/>
<stop offset="1" stop-color="#6BD6FF"/>
</linearGradient>
<linearGradient id="paint5_linear_863_73914" x1="50.1758" y1="78.9531" x2="50.1758" y2="30.4844" gradientUnits="userSpaceOnUse">
<stop stop-color="#53D897"/>
<stop offset="0.484375" stop-color="#00A7D6"/>
<stop offset="1" stop-color="#02BCE7"/>
</linearGradient>
<linearGradient id="paint6_linear_863_73914" x1="148.557" y1="8.55039" x2="278.402" y2="29.9085" gradientUnits="userSpaceOnUse">
<stop stop-color="#3ECCA7"/>
<stop offset="1" stop-color="#1F8CE8"/>
</linearGradient>
<linearGradient id="paint7_linear_863_73914" x1="147.601" y1="8.55039" x2="277.446" y2="29.9085" gradientUnits="userSpaceOnUse">
<stop stop-color="#3ECCA7"/>
<stop offset="1" stop-color="#1F8CE8"/>
</linearGradient>
<linearGradient id="paint8_linear_863_73914" x1="147.644" y1="8.55042" x2="277.489" y2="29.9085" gradientUnits="userSpaceOnUse">
<stop stop-color="#3ECCA7"/>
<stop offset="1" stop-color="#1F8CE8"/>
</linearGradient>
<linearGradient id="paint9_linear_863_73914" x1="297.2" y1="43" x2="279.2" y2="86" gradientUnits="userSpaceOnUse">
<stop stop-color="#46D0A1"/>
<stop offset="1" stop-color="#1C8AEE"/>
</linearGradient>
<linearGradient id="paint10_linear_863_73914" x1="341.407" y1="46.8183" x2="347.327" y2="46.7742" gradientUnits="userSpaceOnUse">
<stop stop-color="#2698FF"/>
<stop offset="1" stop-color="#1BB4ED"/>
</linearGradient>
<linearGradient id="paint11_linear_863_73914" x1="309.219" y1="46.8183" x2="333.193" y2="46.0946" gradientUnits="userSpaceOnUse">
<stop stop-color="#2698FF"/>
<stop offset="1" stop-color="#1BB4ED"/>
</linearGradient>
<clipPath id="clip0_863_73914">
<rect width="452" height="128" fill="white"/>
</clipPath>
</defs>
</svg>
