<svg width="120" height="120" viewBox="0 0 120 120" fill="none" xmlns="http://www.w3.org/2000/svg">
<g clip-path="url(#clip0_2985_56525)">
<g opacity="0.48">
<path opacity="0.72" d="M41.4784 99.8352C41.7522 99.562 42.1233 99.4086 42.5101 99.4086C42.897 99.4086 43.268 99.562 43.5419 99.8352L44.5809 100.874C44.717 101.009 44.8258 101.171 44.8995 101.348C44.9734 101.526 45.0115 101.716 45.0115 101.909C45.0115 102.101 44.9734 102.291 44.8995 102.469C44.8258 102.646 44.7178 102.807 44.5817 102.943L43.5419 103.982C43.268 104.255 42.897 104.409 42.5101 104.409C42.1233 104.409 41.7522 104.255 41.4784 103.982L40.4393 102.943C40.3032 102.808 40.1945 102.646 40.1207 102.469C40.0468 102.291 40.0088 102.101 40.0088 101.909C40.0088 101.716 40.0468 101.526 40.1207 101.348C40.1944 101.171 40.3024 101.01 40.4385 100.875L41.4784 99.8352Z" fill="#FFAB00"/>
<path fill-rule="evenodd" clip-rule="evenodd" d="M96.6978 34.0406C96.6977 34.0407 96.6979 34.0406 96.6978 34.0406L95.6585 35.0797L95.2196 34.6407L95.6571 35.081C95.6368 35.1012 95.6207 35.1252 95.6097 35.1517C95.5987 35.1781 95.593 35.2064 95.593 35.235C95.593 35.2637 95.5987 35.292 95.6097 35.3184C95.6207 35.3449 95.6368 35.3689 95.6571 35.3891L95.6585 35.3904L96.6978 36.4295C96.6979 36.4295 96.6977 36.4294 96.6978 36.4295C96.739 36.4704 96.7948 36.4936 96.8529 36.4936C96.911 36.4936 96.9667 36.4706 97.0078 36.4297C97.0079 36.4296 97.0077 36.4298 97.0078 36.4297L98.0487 35.3891C98.069 35.3689 98.0851 35.3449 98.0961 35.3184C98.1072 35.2919 98.1128 35.2636 98.1128 35.235C98.1128 35.2065 98.1072 35.1782 98.0961 35.1517C98.0851 35.1252 98.069 35.1012 98.0487 35.081L98.0473 35.0797L97.008 34.0406C97.008 34.0406 97.0081 34.0407 97.008 34.0406C96.9669 33.9997 96.911 33.9765 96.8529 33.9765C96.7948 33.9765 96.739 33.9997 96.6978 34.0406ZM94.7813 34.2011L95.8211 33.1616C96.095 32.8885 96.466 32.735 96.8529 32.735C97.2397 32.735 97.6108 32.8885 97.8847 33.1616L97.8852 33.1621L98.9237 34.2004C98.924 34.2006 98.9242 34.2008 98.9244 34.2011C99.0606 34.3365 99.1686 34.4975 99.2423 34.6747C99.3162 34.8522 99.3543 35.0426 99.3543 35.235C99.3543 35.4274 99.3162 35.6179 99.2423 35.7954C99.1686 35.9726 99.0606 36.1335 98.9245 36.269C98.9242 36.2692 98.924 36.2695 98.9237 36.2697L97.8847 37.3085C97.6108 37.5816 97.2397 37.735 96.8529 37.735C96.466 37.735 96.095 37.5816 95.8211 37.3085L94.7821 36.2697C94.7818 36.2695 94.7816 36.2692 94.7813 36.2689C94.6452 36.1335 94.5372 35.9726 94.4635 35.7954C94.3896 35.6178 94.3516 35.4273 94.3516 35.235C94.3516 35.0427 94.3896 34.8523 94.4635 34.6747C94.5372 34.4975 94.6452 34.3366 94.7813 34.2011Z" fill="#FF5630"/>
<path opacity="0.48" fill-rule="evenodd" clip-rule="evenodd" d="M104.552 61.3174C104.701 61.2789 104.858 61.278 105.008 61.3153C105.173 61.3561 105.322 61.4409 105.442 61.5601C105.561 61.6797 105.646 61.8295 105.687 61.9935C105.724 62.1437 105.723 62.3005 105.685 62.4497L105.109 65.5411C105.062 65.7839 104.909 66.1334 104.522 66.2523C104.135 66.3714 103.812 66.1678 103.638 65.9932L101.009 63.3653C100.831 63.1888 100.628 62.8651 100.748 62.4773C100.868 62.0899 101.219 61.9375 101.464 61.8922C101.465 61.8921 101.465 61.8921 101.465 61.892L104.552 61.3174ZM104.448 62.5539L102.291 62.9554L104.046 64.7099L104.448 62.5539Z" fill="#36B37E"/>
<path opacity="0.8" fill-rule="evenodd" clip-rule="evenodd" d="M89.4599 94.266C89.6091 94.2275 89.7659 94.2266 89.9161 94.2639C90.0804 94.3047 90.2302 94.3895 90.3494 94.5088C90.469 94.6283 90.5536 94.7781 90.5944 94.9421C90.6317 95.0923 90.6308 95.2491 90.5923 95.3983L90.0165 98.4897C89.9697 98.7325 89.817 99.082 89.4297 99.201C89.0423 99.32 88.7199 99.1164 88.5453 98.9418L85.9167 96.3139C85.7386 96.1374 85.5356 95.8137 85.6558 95.4259C85.776 95.0385 86.1263 94.8861 86.3721 94.8408C86.3724 94.8407 86.3727 94.8407 86.373 94.8406L89.4599 94.266ZM89.3557 95.5025L87.1991 95.904L88.9541 97.6585L89.3557 95.5025Z" fill="#00A7D6"/>
<path opacity="0.8" fill-rule="evenodd" clip-rule="evenodd" d="M16.5004 62.4729C16.3186 62.4729 16.1408 62.5269 15.9896 62.6279C15.8383 62.729 15.7205 62.8724 15.651 63.0402C15.5814 63.2081 15.5632 63.393 15.5987 63.5712C15.6341 63.7494 15.7217 63.9132 15.8502 64.0417C15.9787 64.1702 16.1425 64.2577 16.321 64.2932C16.4996 64.3287 16.6845 64.3105 16.8523 64.241C17.0203 64.1715 17.1639 64.0536 17.265 63.9024C17.366 63.7513 17.4199 63.5736 17.4199 63.3919C17.4199 63.1482 17.323 62.9145 17.1506 62.7421C16.9783 62.5698 16.7444 62.4729 16.5004 62.4729ZM15.1113 61.3132C15.5225 61.0386 16.0059 60.8919 16.5004 60.8919C17.1635 60.8919 17.7995 61.1552 18.2684 61.624C18.7374 62.0929 19.0009 62.7288 19.0009 63.3919C19.0009 63.8864 18.8542 64.3698 18.5794 64.7809C18.3047 65.1919 17.9142 65.5125 17.4572 65.7017C17.0002 65.891 16.4975 65.9403 16.0127 65.8438C15.5278 65.7474 15.0822 65.5095 14.7324 65.1598C14.3827 64.8102 14.1446 64.3647 14.0481 63.8797C13.9516 63.3947 14.0011 62.8919 14.1904 62.4351C14.3797 61.9782 14.7002 61.5878 15.1113 61.3132Z" fill="#3366FF"/>
<path opacity="0.8" fill-rule="evenodd" clip-rule="evenodd" d="M54.5424 18.4018C54.3606 18.4018 54.1828 18.4557 54.0316 18.5567C53.8803 18.6578 53.7625 18.8013 53.693 18.9691C53.6234 19.137 53.6052 19.3218 53.6407 19.5C53.6761 19.6783 53.7637 19.842 53.8922 19.9705C54.0207 20.099 54.1845 20.1865 54.363 20.222C54.5416 20.2575 54.7265 20.2393 54.8943 20.1698C55.0623 20.1003 55.2059 19.9824 55.307 19.8312C55.408 19.6801 55.4619 19.5025 55.4619 19.3207C55.4619 19.0771 55.365 18.8433 55.1926 18.671C55.0203 18.4986 54.7864 18.4018 54.5424 18.4018ZM53.1533 17.2421C53.5645 16.9674 54.0479 16.8207 54.5424 16.8207C55.2055 16.8207 55.8415 17.084 56.3104 17.5529C56.7794 18.0217 57.0429 18.6577 57.0429 19.3207C57.0429 19.8152 56.8962 20.2986 56.6214 20.7097C56.3467 21.1208 55.9562 21.4413 55.4992 21.6306C55.0422 21.8198 54.5395 21.8691 54.0547 21.7727C53.5698 21.6763 53.1242 21.4383 52.7744 21.0886C52.4247 20.739 52.1865 20.2935 52.09 19.8086C51.9936 19.3236 52.0431 18.8208 52.2324 18.3639C52.4217 17.907 52.7422 17.5167 53.1533 17.2421Z" fill="#3366FF"/>
</g>
<path fill-rule="evenodd" clip-rule="evenodd" d="M35.5 60.476C35.5 47.7618 46.6923 37.4545 60.5 37.4545C74.3077 37.4545 85.5 47.7618 85.5 60.476C85.5 73.1903 74.3077 83.4975 60.5 83.4975C58.359 83.4975 56.291 83.2289 54.309 82.7608C54.0192 82.6918 53.718 82.7237 53.4513 82.8568L46.3295 86.4085C45.4769 86.8344 44.4744 86.2153 44.4744 85.2651V78.7449C44.4744 78.3612 44.2949 78.0031 43.9962 77.7601C38.7897 73.5407 35.5 67.3646 35.5 60.476ZM50.9545 63.8182C52.4608 63.8182 53.6818 62.5971 53.6818 61.0909C53.6818 59.5847 52.4608 58.3636 50.9545 58.3636C49.4483 58.3636 48.2273 59.5847 48.2273 61.0909C48.2273 62.5971 49.4483 63.8182 50.9545 63.8182ZM63.6818 61.0909C63.6818 62.5971 62.4608 63.8182 60.9545 63.8182C59.4483 63.8182 58.2273 62.5971 58.2273 61.0909C58.2273 59.5847 59.4483 58.3636 60.9545 58.3636C62.4608 58.3636 63.6818 59.5847 63.6818 61.0909ZM70.9545 63.8182C72.4608 63.8182 73.6818 62.5971 73.6818 61.0909C73.6818 59.5847 72.4608 58.3636 70.9545 58.3636C69.4483 58.3636 68.2273 59.5847 68.2273 61.0909C68.2273 62.5971 69.4483 63.8182 70.9545 63.8182Z" fill="url(#paint0_linear_2985_56525)"/>
</g>
<defs>
<linearGradient id="paint0_linear_2985_56525" x1="35.5" y1="37.4545" x2="84.5826" y2="87.4461" gradientUnits="userSpaceOnUse">
<stop stop-color="#61F3F3"/>
<stop offset="0.549602" stop-color="#2CD3E5"/>
<stop offset="1" stop-color="#00B8D9"/>
</linearGradient>
<clipPath id="clip0_2985_56525">
<rect width="120" height="120" fill="white"/>
</clipPath>
</defs>
</svg>
