<svg width="480" height="360" viewBox="0 0 480 360" fill="none" xmlns="http://www.w3.org/2000/svg">
<g opacity="0.2">
<mask id="mask0_2977_102405" style="mask-type:alpha" maskUnits="userSpaceOnUse" x="76" y="16" width="327" height="327">
<circle cx="239.5" cy="179.5" r="163.5" fill="url(#paint0_linear_2977_102405)"/>
</mask>
<g mask="url(#mask0_2977_102405)">
<rect width="480" height="360" fill="#00A7D6"/>
</g>
</g>
<g clip-path="url(#clip0_2977_102405)">
<mask id="mask1_2977_102405" style="mask-type:alpha" maskUnits="userSpaceOnUse" x="180" y="119" width="120" height="121">
<path d="M203.537 194.062L197.5 200.517L180 182.5V155C180 152.236 182.238 150 185 150H225L242.031 124.448C243.886 121.67 247.007 120 250.348 120H295C297.761 120 300 122.236 300 125V169.653C300 172.993 298.331 176.113 295.552 177.969L270 195V235C270 237.763 267.762 240 265 240H237.5L220 222.5L225.987 216.513L218.432 208.96L212.332 215.058L204.94 207.666L211.04 201.567L203.537 194.062Z" fill="white"/>
<path d="M190 210V230H210V240H180V210H190Z" fill="white"/>
</mask>
<g mask="url(#mask1_2977_102405)">
<path fill-rule="evenodd" clip-rule="evenodd" d="M180 210L190 210V230H210V239.999H180V210Z" fill="#61E7F2"/>
<path d="M180 155V182.5L197.5 200.519L205 192.5L227.5 215L220 222.5L237.5 240H265C267.761 240 270 237.761 270 235V195L225 150H185C182.239 150 180 152.238 180 155Z" fill="#00619A"/>
<path fill-rule="evenodd" clip-rule="evenodd" d="M198.75 189.276L245 120H300V175L230.724 221.25L198.75 189.276Z" fill="#00619A"/>
<path fill-rule="evenodd" clip-rule="evenodd" d="M201.65 192.176C199.964 190.49 199.703 187.848 201.027 185.865L242.031 124.447C243.886 121.668 247.006 120 250.348 120H295C297.761 120 300 122.238 300 125V169.652C300 172.993 298.331 176.114 295.552 177.969L234.135 218.972C232.152 220.296 229.509 220.036 227.823 218.349L201.65 192.176Z" fill="#00A7D6"/>
<path fill-rule="evenodd" clip-rule="evenodd" d="M204.941 207.667L243.116 169.492L250.509 176.884L212.334 215.06L204.941 207.667Z" fill="#00A7D6"/>
<path fill-rule="evenodd" clip-rule="evenodd" d="M204.941 207.667L243.116 169.492L250.509 176.884L212.334 215.06L204.941 207.667Z" fill="#61E7F2"/>
<path d="M218.433 208.958L211.04 201.566L243.114 169.492L250.507 176.885L218.433 208.958Z" fill="#61E7F2"/>
<path d="M270 165C278.284 165 285 158.284 285 150C285 141.715 278.284 135 270 135C261.716 135 255 141.715 255 150C255 158.284 261.716 165 270 165Z" fill="#00A7D6"/>
<path d="M270 165C278.284 165 285 158.284 285 150C285 141.715 278.284 135 270 135C261.716 135 255 141.715 255 150C255 158.284 261.716 165 270 165Z" fill="#61E7F2"/>
<g opacity="0.2">
<path d="M203.537 194.062L197.5 200.517L180 182.5V155C180 152.236 182.238 150 185 150H225L242.031 124.448C243.886 121.67 247.007 120 250.348 120H295C297.761 120 300 122.236 300 125V169.653C300 172.993 298.331 176.113 295.552 177.969L270 195V235C270 237.763 267.762 240 265 240H237.5L220 222.5L225.987 216.513L218.432 208.96L212.332 215.058L204.94 207.666L211.04 201.567L203.537 194.062Z" fill="url(#paint1_linear_2977_102405)"/>
<path d="M190 210V230H210V240H180V210H190Z" fill="url(#paint2_linear_2977_102405)"/>
</g>
</g>
</g>
<defs>
<linearGradient id="paint0_linear_2977_102405" x1="76" y1="343" x2="409.761" y2="23.0533" gradientUnits="userSpaceOnUse">
<stop/>
<stop offset="1" stop-opacity="0.01"/>
</linearGradient>
<linearGradient id="paint1_linear_2977_102405" x1="240" y1="120" x2="240" y2="240" gradientUnits="userSpaceOnUse">
<stop stop-color="white"/>
<stop offset="1" stop-color="white" stop-opacity="0"/>
</linearGradient>
<linearGradient id="paint2_linear_2977_102405" x1="240" y1="120" x2="240" y2="240" gradientUnits="userSpaceOnUse">
<stop stop-color="white"/>
<stop offset="1" stop-color="white" stop-opacity="0"/>
</linearGradient>
<clipPath id="clip0_2977_102405">
<rect width="120" height="120" fill="white" transform="translate(180 120)"/>
</clipPath>
</defs>
</svg>
