<svg width="480" height="360" viewBox="0 0 480 360" fill="none" xmlns="http://www.w3.org/2000/svg">
<g opacity="0.2">
<mask id="mask0_4446_70453" style="mask-type:alpha" maskUnits="userSpaceOnUse" x="76" y="16" width="327" height="327">
<circle cx="239.5" cy="179.5" r="163.5" fill="url(#paint0_linear_4446_70453)"/>
</mask>
<g mask="url(#mask0_4446_70453)">
<rect width="480" height="360" fill="#00A7D6"/>
</g>
</g>
<path d="M137.364 121.747L169.556 222.401C170.089 224.025 171.155 225.423 172.581 226.368C174.007 227.312 175.71 227.747 177.414 227.604L219.631 224.031L318.307 215.601C319.299 215.525 320.266 215.253 321.152 214.801C322.038 214.349 322.827 213.727 323.472 212.969C324.117 212.211 324.605 211.333 324.91 210.386C325.214 209.439 325.328 208.441 325.245 207.449C325.175 206.737 325.011 206.037 324.759 205.368L316.867 184.554L302.592 146.395L291.526 116.908C290.983 115.466 290.013 114.223 288.746 113.347C287.478 112.469 285.974 112 284.432 112H144.562C143.569 112 142.586 112.195 141.668 112.575C140.751 112.955 139.917 113.513 139.215 114.215C138.513 114.917 137.956 115.751 137.576 116.668C137.196 117.585 137 118.569 137 119.562C137.01 120.305 137.133 121.041 137.364 121.747Z" fill="white"/>
<path d="M137.364 121.747L169.556 222.401C170.089 224.025 171.155 225.423 172.581 226.368C174.007 227.312 175.71 227.747 177.414 227.604L219.631 224.031L318.307 215.601C319.299 215.525 320.266 215.253 321.152 214.801C322.038 214.349 322.827 213.727 323.472 212.969C324.117 212.211 324.605 211.333 324.91 210.386C325.214 209.439 325.328 208.441 325.245 207.449C325.175 206.737 325.011 206.037 324.759 205.368L316.867 184.554L302.592 146.395L291.526 116.908C290.983 115.466 290.013 114.223 288.746 113.347C287.478 112.469 285.974 112 284.432 112H144.562C143.569 112 142.586 112.195 141.668 112.575C140.751 112.955 139.917 113.513 139.215 114.215C138.513 114.917 137.956 115.751 137.576 116.668C137.196 117.585 137 118.569 137 119.562C137.01 120.305 137.133 121.041 137.364 121.747Z" fill="white"/>
<path d="M219.119 224.074L177.414 227.604C175.71 227.747 174.007 227.312 172.581 226.368C171.155 225.423 170.089 224.025 169.557 222.401L137.364 121.747C137.133 121.041 137.01 120.305 137 119.562C137 118.569 137.196 117.585 137.576 116.668C137.956 115.751 138.513 114.917 139.215 114.215C139.917 113.513 140.751 112.955 141.668 112.575C142.586 112.195 143.569 112 144.562 112H182.864L219.119 224.074Z" fill="url(#paint1_linear_4446_70453)"/>
<path d="M306.079 206.551C309.083 206.33 311.04 204.408 310.039 202.66L301.623 184.46C300.934 183.259 299.025 182.519 296.956 182.653L226.072 187.25C223.578 187.411 221.789 188.745 221.782 190.19C221.779 190.892 222.201 191.519 222.456 192.173L229.008 208.973C229.262 209.626 229.543 210.299 230.1 210.724C231.039 211.44 232.528 211.828 234.096 211.712L306.079 206.551Z" fill="#DFE3E8"/>
<path d="M238.434 134.206C238.478 134.51 238.391 134.817 238.194 135.053L237.185 136.255L248.111 145.426C248.66 145.887 248.731 146.707 248.271 147.255C247.807 147.809 246.989 147.875 246.442 147.415L235.517 138.245L234.508 139.447C234.324 139.666 234.061 139.802 233.777 139.827C233.758 139.829 233.736 139.83 233.716 139.831C233.409 139.84 233.113 139.717 232.902 139.494L227.692 134.186C227.318 133.788 227.299 133.174 227.651 132.755L230.415 129.46C230.767 129.041 231.374 128.953 231.831 129.252L237.961 133.462C238.218 133.632 238.39 133.902 238.434 134.206Z" fill="#DFE3E8"/>
<path d="M253.56 150.002L257.08 152.957C257.629 153.418 257.701 154.237 257.24 154.787C256.776 155.34 255.956 155.403 255.412 154.947L251.891 151.992C251.342 151.53 251.27 150.712 251.731 150.162C252.192 149.613 253.011 149.541 253.56 150.002Z" fill="#DFE3E8"/>
<path d="M253.56 150.002L257.08 152.957C257.629 153.418 257.701 154.237 257.241 154.787L251.731 150.162C252.192 149.613 253.011 149.541 253.56 150.002Z" fill="#F4F6F8"/>
<path d="M272.264 166.075L270.962 167.627C269.103 169.847 265.753 170.07 263.616 168.079L252.8 157.95C252.297 157.478 252.25 156.696 252.693 156.168L257.746 150.143C258.188 149.617 258.961 149.525 259.513 149.934L271.405 158.738L271.407 158.74C273.745 160.48 274.139 163.841 272.264 166.075Z" fill="url(#paint2_linear_4446_70453)"/>
<path d="M270.616 132.637C270.336 131.713 269.142 131.468 268.523 132.208L264.659 136.815C263.957 137.651 262.711 137.76 261.874 137.058L259.407 134.987C258.571 134.285 258.462 133.038 259.164 132.203L263.027 127.595C263.648 126.856 263.2 125.723 262.242 125.608C258.997 125.217 255.625 126.422 253.367 129.113C250.492 132.541 250.304 137.33 252.579 140.916L230.31 162.732C228.805 164.143 228.871 166.553 230.452 167.881L234.521 171.296C236.102 172.623 238.486 172.27 239.614 170.541L257.224 144.815C261.15 146.433 265.83 145.417 268.706 141.989C270.964 139.298 271.564 135.766 270.616 132.637ZM236.757 165.925C236.4 165.957 236.065 165.84 235.809 165.626C235.555 165.412 235.382 165.102 235.351 164.744C235.288 164.03 235.817 163.4 236.531 163.338C236.889 163.307 237.224 163.424 237.478 163.636C237.733 163.851 237.906 164.161 237.937 164.518C237.999 165.233 237.472 165.863 236.757 165.925Z" fill="url(#paint3_linear_4446_70453)"/>
<path d="M248.196 146.805L229.451 131.07L230.64 129.652L230.641 129.652C230.894 129.35 231.331 129.285 231.661 129.5L237.789 133.708L237.789 133.708L237.794 133.711C237.979 133.834 238.103 134.029 238.136 134.249C238.167 134.469 238.104 134.691 237.962 134.862C237.962 134.862 237.961 134.862 237.961 134.862L236.953 136.063L236.761 136.292L236.99 136.484L247.916 145.655L247.916 145.655C248.259 145.943 248.36 146.413 248.196 146.805Z" fill="#919EAB" stroke="#919EAB" stroke-width="0.597196"/>
<path opacity="0.24" d="M272.264 166.075L271.613 166.851L255.251 153.117L257.745 150.143C258.187 149.617 258.96 149.525 259.512 149.934L271.404 158.738L271.407 158.74C273.744 160.479 274.138 163.84 272.264 166.075Z" fill="#003266"/>
<path opacity="0.24" d="M268.706 141.989C265.83 145.417 261.149 146.433 257.224 144.815L239.614 170.541C238.485 172.27 236.101 172.623 234.52 171.296L232.485 169.589L235.809 165.626C236.064 165.84 236.4 165.957 236.757 165.925C237.471 165.863 237.999 165.233 237.936 164.518C237.905 164.161 237.732 163.851 237.478 163.636L260.641 136.023L261.874 137.058C262.71 137.76 263.957 137.651 264.659 136.815L268.522 132.208C269.142 131.468 270.335 131.713 270.615 132.637C271.563 135.766 270.963 139.298 268.706 141.989Z" fill="#003266"/>
<g opacity="0.4">
<path fill-rule="evenodd" clip-rule="evenodd" d="M157.414 143.481C156.721 140.912 157.064 138.174 158.37 135.856C159.676 133.538 161.84 131.826 164.396 131.088C166.952 130.35 169.696 130.646 172.036 131.911C174.377 133.176 176.126 135.31 176.909 137.853C177.691 140.396 177.443 143.144 176.219 145.506C174.995 147.868 172.892 149.655 170.363 150.482C167.834 151.308 165.082 151.108 162.699 149.926C160.316 148.743 158.493 146.672 157.622 144.158L157.518 143.828L157.414 143.481ZM167.543 140.688L165.15 133.005C165.826 132.796 166.525 132.674 167.231 132.64C168.998 132.574 170.737 133.09 172.182 134.108C173.627 135.127 174.697 136.592 175.227 138.278C175.435 138.954 175.558 139.652 175.591 140.359C175.613 141.064 175.549 141.768 175.401 142.458C175.095 143.835 174.423 145.105 173.458 146.135C172.507 147.182 171.293 147.956 169.942 148.376C168.591 148.798 167.152 148.85 165.774 148.528C165.095 148.37 164.437 148.131 163.814 147.817C163.188 147.486 162.605 147.078 162.08 146.603C161.056 145.655 160.291 144.461 159.86 143.134L167.543 140.688Z" fill="white"/>
<path fill-rule="evenodd" clip-rule="evenodd" d="M179.599 207.883C179.077 205.365 179.525 202.742 180.854 200.541C182.183 198.339 184.295 196.721 186.767 196.01C189.239 195.3 191.887 195.549 194.183 196.708C196.478 197.868 198.251 199.852 199.146 202.263V202.593C199.146 202.697 199.146 202.818 199.267 202.922C199.954 205.392 199.684 208.031 198.511 210.31C197.337 212.589 195.347 214.342 192.937 215.218C190.528 216.094 187.877 216.029 185.513 215.036C183.15 214.043 181.248 212.194 180.188 209.86C180.136 209.695 180.088 209.53 180.041 209.366C179.993 209.201 179.945 209.036 179.893 208.871C179.852 208.739 179.816 208.607 179.779 208.475C179.725 208.278 179.671 208.08 179.599 207.883ZM187.056 198.083L189.554 205.732L189.607 205.715L192.104 213.381C193.099 213.049 194.018 212.525 194.809 211.837C195.601 211.149 196.25 210.313 196.718 209.375C197.036 208.749 197.269 208.084 197.411 207.397C197.565 206.715 197.623 206.014 197.585 205.316C197.494 203.545 196.82 201.854 195.669 200.505C194.518 199.157 192.954 198.226 191.219 197.857C189.835 197.576 188.402 197.654 187.056 198.083Z" fill="white"/>
<path fill-rule="evenodd" clip-rule="evenodd" d="M172.208 165.04C170.299 166.949 169.226 169.538 169.226 172.239V172.95C169.226 175.65 170.299 178.24 172.208 180.149C174.117 182.059 176.707 183.132 179.407 183.132C182.108 183.132 184.697 182.059 186.607 180.149C188.516 178.24 189.589 175.65 189.589 172.95V172.239C189.589 169.538 188.516 166.949 186.607 165.04C184.697 163.13 182.108 162.058 179.407 162.058C176.707 162.058 174.117 163.13 172.208 165.04ZM179.268 172.568V164.52C180.676 164.531 182.057 164.908 183.275 165.613C183.912 165.956 184.496 166.388 185.01 166.896C186.013 167.892 186.735 169.136 187.103 170.502C187.47 171.867 187.47 173.306 187.102 174.671C186.734 176.036 186.011 177.28 185.006 178.275C184.002 179.27 182.753 179.982 181.384 180.339C180.023 180.72 178.583 180.72 177.222 180.339C176.543 180.164 175.89 179.901 175.279 179.558L179.268 172.568Z" fill="white"/>
</g>
<path d="M342 240.473V243.095C342 243.766 341.654 244.321 341.198 244.381L300.224 248.089C299.921 248.13 299.613 248.124 299.313 248.071C299.234 248.056 299.155 248.039 299.076 248.02L270.527 242.648C270.223 242.568 270 242.172 270 241.714V238.944L300.29 235.195L304.189 233.352L308.066 233.91L310.355 233.472L315.588 234.992L342 240.473Z" fill="url(#paint4_linear_4446_70453)"/>
<path opacity="0.3" d="M342 240.473V243.096C342 243.767 341.654 244.321 341.197 244.381L300.226 248.089C299.923 248.13 299.616 248.124 299.315 248.07V233.945L304.191 233.351L308.067 233.908L310.356 233.471L315.588 234.991L342 240.473Z" fill="url(#paint5_linear_4446_70453)"/>
<path d="M310.357 233.47L270.002 238.815L299.11 244.289C299.463 244.38 299.831 244.402 300.193 244.353L341.999 240.474L310.357 233.47Z" fill="url(#paint6_linear_4446_70453)"/>
<path d="M325.151 238.301C325.151 240.22 319.103 241.713 310.753 242.1C308.646 242.196 306.393 242.223 304.055 242.169C292.564 241.905 283.331 239.771 283.331 237.408C283.328 237.35 283.334 237.293 283.346 237.238H283.331L283.378 237.124C283.389 237.086 283.404 237.049 283.421 237.014L286.071 230.096L289.272 221.75L293.754 210.051L297.184 201.096L301.451 189.961C301.985 188.567 302.975 187.7 304.043 187.7C304.188 187.699 304.332 187.715 304.473 187.747C305.375 187.943 306.18 188.756 306.643 189.963L310.947 201.176L314.386 210.248L318.918 222.182L322.174 230.757L322.225 230.762L324.937 237.729C325.054 237.919 325.151 238.109 325.151 238.301Z" fill="url(#paint7_linear_4446_70453)"/>
<path d="M322.225 230.766C319.609 231.639 315.428 232.267 310.415 232.501C308.397 232.596 306.262 232.627 304.042 232.585C296.322 232.44 289.627 231.448 286.065 230.098L289.268 221.75C293.017 222.592 298.242 223.16 304.052 223.247C305.93 223.276 307.76 223.252 309.503 223.182C313.169 223.036 316.402 222.685 318.95 222.186L322.178 230.76L322.225 230.766Z" fill="white"/>
<path d="M314.423 210.248C312.425 210.464 310.23 210.611 307.901 210.677C306.653 210.713 305.368 210.727 304.055 210.713C300.612 210.691 297.172 210.47 293.754 210.051L297.184 201.096C299.331 201.266 301.643 201.362 304.055 201.376C304.905 201.381 305.744 201.375 306.571 201.358C308.083 201.33 309.545 201.27 310.947 201.176L314.423 210.248Z" fill="white"/>
<path opacity="0.2" d="M310.753 242.098C308.646 242.195 306.393 242.222 304.055 242.169C292.564 241.904 283.331 239.77 283.331 237.407C283.328 237.35 283.334 237.293 283.346 237.237H283.331L283.378 237.124C283.389 237.086 283.404 237.048 283.421 237.013L286.071 230.096L289.272 221.749L293.754 210.051L297.184 201.096L301.451 189.961C301.985 188.567 302.975 187.7 304.043 187.7C304.188 187.699 304.332 187.715 304.473 187.747C304.928 190.581 305.708 195.527 306.571 201.358C307.004 204.294 307.458 207.454 307.901 210.678C308.473 214.847 309.029 219.128 309.5 223.181C309.884 226.502 310.212 229.671 310.445 232.501C310.785 236.599 310.924 239.988 310.753 242.098Z" fill="url(#paint8_linear_4446_70453)"/>
<defs>
<linearGradient id="paint0_linear_4446_70453" x1="76" y1="343" x2="409.761" y2="23.0533" gradientUnits="userSpaceOnUse">
<stop/>
<stop offset="1" stop-opacity="0.01"/>
</linearGradient>
<linearGradient id="paint1_linear_4446_70453" x1="137" y1="112" x2="246.175" y2="189.534" gradientUnits="userSpaceOnUse">
<stop stop-color="#61E7F2"/>
<stop offset="1" stop-color="#00A7D6"/>
</linearGradient>
<linearGradient id="paint2_linear_4446_70453" x1="226" y1="128.563" x2="274.016" y2="168.837" gradientUnits="userSpaceOnUse">
<stop stop-color="#61E7F2"/>
<stop offset="1" stop-color="#00A7D6"/>
</linearGradient>
<linearGradient id="paint3_linear_4446_70453" x1="226" y1="128.563" x2="274.016" y2="168.837" gradientUnits="userSpaceOnUse">
<stop stop-color="#61E7F2"/>
<stop offset="1" stop-color="#00A7D6"/>
</linearGradient>
<linearGradient id="paint4_linear_4446_70453" x1="270.003" y1="240.733" x2="342.002" y2="240.733" gradientUnits="userSpaceOnUse">
<stop stop-color="#FFC444"/>
<stop offset="1" stop-color="#F36F56"/>
</linearGradient>
<linearGradient id="paint5_linear_4446_70453" x1="323.776" y1="240.581" x2="323.174" y2="242.237" gradientUnits="userSpaceOnUse">
<stop stop-color="#FFC444"/>
<stop offset="0.59" stop-color="#F8924F"/>
<stop offset="1" stop-color="#F36F56"/>
</linearGradient>
<linearGradient id="paint6_linear_4446_70453" x1="311.203" y1="238.917" x2="310.962" y2="239.582" gradientUnits="userSpaceOnUse">
<stop stop-color="#FFC444"/>
<stop offset="0.59" stop-color="#F8924F"/>
<stop offset="1" stop-color="#F36F56"/>
</linearGradient>
<linearGradient id="paint7_linear_4446_70453" x1="304.942" y1="172.048" x2="302.324" y2="257.168" gradientUnits="userSpaceOnUse">
<stop stop-color="#FFC444"/>
<stop offset="1" stop-color="#F36F56"/>
</linearGradient>
<linearGradient id="paint8_linear_4446_70453" x1="283.331" y1="214.947" x2="310.826" y2="214.947" gradientUnits="userSpaceOnUse">
<stop stop-color="#FFC444"/>
<stop offset="1" stop-color="#F36F56"/>
</linearGradient>
</defs>
</svg>
