<svg width="480" height="360" viewBox="0 0 480 360" fill="none" xmlns="http://www.w3.org/2000/svg">
<g opacity="0.2">
<mask id="mask0_2974_59246" style="mask-type:alpha" maskUnits="userSpaceOnUse" x="76" y="16" width="327" height="327">
<circle cx="239.5" cy="179.5" r="163.5" fill="url(#paint0_linear_2974_59246)"/>
</mask>
<g mask="url(#mask0_2974_59246)">
<rect width="480" height="360" fill="#00A7D6"/>
</g>
</g>
<path d="M310 185.833C310 205.171 294.338 220.833 275 220.833C269.75 220.833 203.075 220.833 197.708 220.833C182.396 220.833 170 208.438 170 193.125C170 179.883 179.275 168.8 191.729 166.058C196.688 145.613 215.092 130.417 237.083 130.417C253.154 130.417 267.3 138.525 275.7 150.863C294.717 151.213 310 166.729 310 185.833Z" fill="url(#paint1_linear_2974_59246)"/>
<path opacity="0.05" d="M231.25 181.286V201.703C231.25 204.926 233.86 207.536 237.083 207.536H242.917C246.14 207.536 248.75 204.926 248.75 201.703V181.286H256.473C260.37 181.286 262.324 176.573 259.568 173.817L244.124 158.373C241.846 156.095 238.154 156.095 235.876 158.373L220.432 173.817C217.676 176.573 219.627 181.286 223.527 181.286H231.25Z" fill="black"/>
<path opacity="0.07" d="M232.709 179.828V201.703C232.709 204.118 234.669 206.078 237.084 206.078H242.917C245.332 206.078 247.292 204.118 247.292 201.703V179.828H256.104C258.839 179.828 260.21 176.52 258.277 174.584L243.317 159.621C241.488 157.792 238.522 157.792 236.693 159.621L221.734 174.584C219.8 176.517 221.168 179.828 223.907 179.828H232.709Z" fill="black"/>
<path d="M224.27 178.37H234.167V201.703C234.167 203.313 235.473 204.62 237.083 204.62H242.917C244.527 204.62 245.833 203.313 245.833 201.703V178.37H255.729C257.304 178.37 258.092 176.465 256.978 175.354L242.499 160.876C241.12 159.496 238.88 159.496 237.5 160.876L223.022 175.354C221.908 176.465 222.695 178.37 224.27 178.37Z" fill="white"/>
<defs>
<linearGradient id="paint0_linear_2974_59246" x1="76" y1="343" x2="409.761" y2="23.0533" gradientUnits="userSpaceOnUse">
<stop/>
<stop offset="1" stop-opacity="0.01"/>
</linearGradient>
<linearGradient id="paint1_linear_2974_59246" x1="211.539" y1="134.378" x2="258.002" y2="222.86" gradientUnits="userSpaceOnUse">
<stop stop-color="#00A7D6"/>
<stop offset="1" stop-color="#00A7D6"/>
</linearGradient>
</defs>
</svg>
