<svg width="24" height="24" viewBox="0 0 24 24" fill="none" xmlns="http://www.w3.org/2000/svg">
<path opacity="0.7" d="M20.3761 9.67432C21.2175 9.67532 21.8993 10.3539 21.9004 11.1912V17.8657C21.8993 18.703 21.2175 19.3816 20.3761 19.3826H20.0713V20.6972C20.0711 20.8088 20.0093 20.9112 19.9105 20.964C19.8116 21.0167 19.6917 21.0112 19.5982 20.9496L17.2362 19.3826H13.0599C12.2185 19.3816 11.5367 18.703 11.5356 17.8657V11.1912C11.5367 10.3539 12.2185 9.67532 13.0599 9.67432H20.3761ZM17.3076 12.0853H16.1226L14.5097 16.6521H15.5538L15.8852 15.5697H17.5508L17.8825 16.6521H18.9263L17.3076 12.0853ZM16.7198 12.7916C16.7357 12.866 16.763 12.9675 16.8018 13.0962C16.8406 13.2248 17.0134 13.7797 17.3201 14.7608H16.1287C16.4537 13.7136 16.6507 13.0571 16.7198 12.7916Z" fill="#919EAB"/>
<path d="M11.8405 3C12.6819 3.001 13.3637 3.67956 13.3647 4.51692V9.06767H13.0599C11.882 9.06918 10.9275 10.0191 10.926 11.1914V12.7083H7.66412L5.3031 14.2753C5.20955 14.3374 5.08925 14.3432 4.9901 14.2904C4.89094 14.2376 4.82905 14.1347 4.82907 14.0228V12.7083H4.52422C3.68284 12.7073 3.00101 12.0287 3 11.1914V4.51692C3.00101 3.67956 3.68284 3.001 4.52422 3H11.8405ZM8.49573 5.38368H7.54645C7.56901 5.50627 7.57993 5.6307 7.57907 5.75533V6.10483H6.27281C6.02167 6.1079 5.77058 6.09513 5.52106 6.0666V6.91304C5.74055 6.8915 5.98747 6.88058 6.25086 6.88058H6.3606C6.46123 7.23461 6.60313 7.57571 6.78342 7.89691C6.97459 8.24195 7.20683 8.56281 7.47511 8.85257C6.85765 9.25854 6.16557 9.53889 5.43875 9.67747C5.63696 9.92331 5.79272 10.2002 5.89968 10.4969C6.69499 10.2824 7.44197 9.91901 8.10065 9.42627C8.73876 9.9149 9.46557 10.2765 10.2413 10.4911C10.3512 10.1784 10.5143 9.88671 10.7235 9.62893C10.0109 9.51668 9.33109 9.25202 8.73107 8.85318C8.97805 8.57984 9.19001 8.27708 9.3621 7.95183C9.54066 7.61372 9.6739 7.25377 9.7584 6.88119H9.8846C10.1265 6.87972 10.3684 6.89056 10.6092 6.91365V6.0666C10.3578 6.09512 10.1047 6.10789 9.85168 6.10483H8.46311V5.74987C8.46223 5.62705 8.47315 5.50443 8.49573 5.38368ZM8.84173 6.88028C8.77259 7.17126 8.66171 7.45081 8.5125 7.71033C8.39402 7.92988 8.24828 8.13374 8.07871 8.3171C7.90147 8.13187 7.74667 7.92659 7.61748 7.70548C7.45804 7.44831 7.33437 7.17081 7.24983 6.88058L8.84173 6.88028Z" fill="#637381"/>
</svg>
